{
.appVersion = "3151";
.formatVersion = 3;
classes = (
{
automatic = 1;
code = "A Aacute Abreve Acircumflex Adieresis Agrave Amacron Aogonek Aring Aringacute Atilde AE AEacute B C Cacute Ccaron Ccedilla Ccircumflex Cdotaccent D Eth Dcaron Dcroat E Eacute Ebreve Ecaron Ecircumflex Edieresis Edotaccent Egrave Emacron Eogonek F G Gbreve Gcircumflex Gcommaaccent Gdotaccent H Hbar Hcircumflex I IJ Iacute Ibreve Icircumflex Idieresis Idotaccent Igrave Imacron Iogonek Itilde J Jcircumflex K Kcommaaccent L Lacute Lcaron Lcommaaccent Ldot Lslash M N Nacute Ncaron Ncommaaccent Ntilde Eng O Oacute Obreve Ocircumflex Odieresis Ograve Ohungarumlaut Omacron Oslash Oslashacute Otilde OE P Thorn Q R Racute Rcaron Rcommaaccent S Sacute Scaron Scedilla Scircumflex Scommaaccent T Tbar Tcaron Tcedilla Tcommaaccent U Uacute Ubreve Ucircumflex Udieresis Ugrave Uhungarumlaut Umacron Uogonek Uring Utilde V W Wacute Wcircumflex Wdieresis Wgrave X Y Yacute Ycircumflex Ydieresis Ygrave Z Zacute Zcaron Zdotaccent Delta Omega";
name = Uppercase;
}
);
customParameters = (
{
name = "Use Typo Metrics";
value = 1;
},
{
name = fsType;
value = (
);
}
);
date = "2023-02-16 15:56:20 +0000";
familyName = "Kite One";
featurePrefixes = (
{
automatic = 1;
code = "languagesystem DFLT dflt;

languagesystem latn dflt;
languagesystem latn AZE;
languagesystem latn CRT;
languagesystem latn KAZ;
languagesystem latn TAT;
languagesystem latn TRK;
languagesystem latn ROM;
languagesystem latn MOL;
languagesystem latn CAT;
";
name = Languagesystems;
}
);
features = (
{
automatic = 1;
code = "feature locl;
feature subs;
feature sinf;
feature sups;
feature frac;
feature ordn;
feature case;
feature salt;
";
tag = aalt;
},
{
automatic = 1;
code = "lookup ccmp_Other_1 {
	@CombiningTopAccents = [acutecomb brevecomb caroncomb circumflexcomb commaturnedabovecomb dieresiscomb dotaccentcomb gravecomb hungarumlautcomb macroncomb ringcomb tildecomb];
	@CombiningNonTopAccents = [cedillacomb ogonekcomb];

glyphs = (
{
glyphname = A;
kernLeft = A;
kernRight = A;
lastChange = "2023-02-17 07:34:05 +0000";
layers = (
{
anchors = (
{
name = bottom;
pos = (350,0);
},
{
name = ogonek;
pos = (727,11);
},
{
name = top;
pos = (423,860);
}
);
background = {
shapes = (
{
closed = 1;
nodes = (
(497,286,l),
(182,286,l),
(402,759,l,{
name = hr00;
})
);
},
{
closed = 1;
nodes = (
(-7,64,o),
(-21,25,o),
(-21,20,cs),
(-21,-7,o),
(7,-14,o),
(25,-14,cs),
(48,-14,o),
(60,21,o),
(87,80,cs),
(153,225,l),
(510,225,l),
(554,15,ls),
(559,-8,o),
(573,-14,o),
(598,-14,cs),
(620,-14,o),
(636,-9,o),
(636,8,cs),
(636,11,o),
(635,16,o),
(634,20,cs),
(463,843,ls),
(458,867,o),
(438,872,o),
(413,872,cs),
(388,872,o),
(367,865,o),
(357,843,cs),
(28,139,ls)
);
}
);
};
layerId = master01;
shapes = (
{
closed = 1;
nodes = (
(48,-14,o),
(60,21,o),
(87,80,cs),
(153,225,l),
(510,225,l),
(554,15,ls),
(559,-8,o),
(573,-14,o),
(598,-14,cs),
(620,-14,o),
(636,-9,o),
(636,8,cs),
(636,11,o),
(635,16,o),
(634,20,cs),
(463,843,ls),
(458,867,o),
(438,872,o),
(413,872,cs),
(388,872,o),
(367,865,o),
(357,843,cs),
(28,139,ls),
(-7,64,o),
(-21,25,o),
(-21,20,cs),
(-21,-7,o),
(7,-14,o),
(25,-14,cs)
);
},
{
closed = 1;
nodes = (
(402,759,l,{
name = hr00;
}),
(497,286,l),
(182,286,l)
);
}
);
width = 700;
}
);
unicode = 65;
},
{
glyphname = Aacute;
kernLeft = A;
kernRight = A;
lastChange = "2023-02-17 07:34:05 +0000";
layers = (
{
background = {
shapes = (
{
closed = 1;
nodes = (
(497,286,l),
(182,286,l),
(402,759,l,{
name = hr00;
})
);
},
{
closed = 1;
nodes = (
(-7,64,o),
(-21,25,o),
(-21,20,cs),
(-21,-7,o),
(7,-14,o),
(25,-14,cs),
(48,-14,o),
(60,21,o),
(87,80,cs),
(153,225,l),
(510,225,l),
(554,15,ls),
(559,-8,o),
(573,-14,o),
(598,-14,cs),
(620,-14,o),
(636,-9,o),
(636,8,cs),
(636,11,o),
(635,16,o),
(634,20,cs),
(463,843,ls),
(458,867,o),
(438,872,o),
(413,872,cs),
(388,872,o),
(367,865,o),
(357,843,cs),
(28,139,ls)
);
},
{
closed = 1;
nodes = (
(321,942,o),
(316,934,o),
(316,926,cs),
(316,913,o),
(326,900,o),
(341,900,cs),
(344,900,o),
(346,900,o),
(350,902,cs),
(538,1001,ls),
(555,1010,o),
(558,1016,o),
(558,1031,cs),
(558,1049,o),
(543,1074,o),
(518,1074,cs),
(515,1074,o),
(511,1073,o),
(507,1071,cs),
(324,944,ls,{
name = hr00;
})
);
}
);
};
layerId = master01;
shapes = (
{
ref = A;
},
{
pos = (270,0);
ref = acutecomb.case;
}
);
width = 700;
}
);
unicode = 193;
},
{
glyphname = Abreve;
kernLeft = A;
kernRight = A;
lastChange = "2023-02-17 07:34:05 +0000";
layers = (
{
background = {
shapes = (
{
closed = 1;
nodes = (
(497,286,l),
(182,286,l),
(402,759,l,{
name = hr00;
})
);
},
{
closed = 1;
nodes = (
(-7,64,o),
(-21,25,o),
(-21,20,cs),
(-21,-7,o),
(7,-14,o),
(25,-14,cs),
(48,-14,o),
(60,21,o),
(87,80,cs),
(153,225,l),
(510,225,l),
(554,15,ls),
(559,-8,o),
(573,-14,o),
(598,-14,cs),
(620,-14,o),
(636,-9,o),
(636,8,cs),
(636,11,o),
(635,16,o),
(634,20,cs),
(463,843,ls),
(458,867,o),
(438,872,o),
(413,872,cs),
(388,872,o),
(367,865,o),
(357,843,cs),
(28,139,ls)
);
},
{
closed = 1;
nodes = (
(302,1071,o),
(297,1051,o),
(297,1034,cs),
(297,986,o),
(337,903,o),
(403,903,cs),
(509,903,o),
(572,1027,o),
(572,1050,cs),
(572,1062,o),
(564,1071,o),
(552,1071,cs),
(517,1071,o),
(481,974,o),
(418,974,cs),
(351,974,o),
(363,1071,o),
(319,1071,cs,{
name = hr00;
})
);
}
);
};
layerId = master01;
shapes = (
{
ref = A;
},
{
pos = (235,0);
ref = brevecomb.case;
}
);
width = 700;
}
);
unicode = 258;
},
{
glyphname = Acircumflex;
kernLeft = A;
kernRight = A;
lastChange = "2023-02-17 07:34:05 +0000";
layers = (
{
background = {
shapes = (
{
closed = 1;
nodes = (
(497,286,l),
(182,286,l),
(402,759,l,{
name = hr00;
})
);
},
{
closed = 1;
nodes = (
(-7,64,o),
(-21,25,o),
(-21,20,cs),
(-21,-7,o),
(7,-14,o),
(25,-14,cs),
(48,-14,o),
(60,21,o),
(87,80,cs),
(153,225,l),
(510,225,l),
(554,15,ls),
(559,-8,o),
(573,-14,o),
(598,-14,cs),
(620,-14,o),
(636,-9,o),
(636,8,cs),
(636,11,o),
(635,16,o),
(634,20,cs),
(463,843,ls),
(458,867,o),
(438,872,o),
(413,872,cs),
(388,872,o),
(367,865,o),
(357,843,cs),
(28,139,ls)
);
},
{
closed = 1;
nodes = (
(514,913,o),
(518,910,o),
(526,910,cs),
(539,910,o),
(555,924,o),
(555,940,cs),
(555,943,o),
(554,947,o),
(549,955,cs),
(478,1063,ls),
(468,1078,o),
(458,1086,o),
(439,1086,cs),
(419,1086,o),
(405,1073,o),
(386,1055,cs),
(279,950,ls),
(276,947,o),
(275,942,o),
(275,937,cs),
(275,923,o),
(285,911,o),
(299,911,cs,{
name = hr01;
}),
(305,911,o),
(309,912,o),
(314,916,cs),
(434,1002,l),
(505,923,ls)
);
}
);
};
layerId = master01;
shapes = (
{
ref = A;
},
{
pos = (223,0);
ref = circumflexcomb.case;
}
);
width = 700;
}
);
unicode = 194;
},
{
glyphname = Adieresis;
kernLeft = A;
kernRight = A;
lastChange = "2023-02-17 07:34:05 +0000";
layers = (
{
background = {
shapes = (
{
closed = 1;
nodes = (
(497,286,l),
(182,286,l),
(402,759,l,{
name = hr00;
})
);
},
{
closed = 1;
nodes = (
(-7,64,o),
(-21,25,o),
(-21,20,cs),
(-21,-7,o),
(7,-14,o),
(25,-14,cs),
(48,-14,o),
(60,21,o),
(87,80,cs),
(153,225,l),
(510,225,l),
(554,15,ls),
(559,-8,o),
(573,-14,o),
(598,-14,cs),
(620,-14,o),
(636,-9,o),
(636,8,cs),
(636,11,o),
(635,16,o),
(634,20,cs),
(463,843,ls),
(458,867,o),
(438,872,o),
(413,872,cs),
(388,872,o),
(367,865,o),
(357,843,cs),
(28,139,ls)
);
},
{
closed = 1;
nodes = (
(380,1013,o),
(370,1029,o),
(335,1029,cs),
(289,1029,o),
(278,999,o),
(278,968,cs),
(278,947,o),
(288,930,o),
(323,930,cs),
(369,930,o),
(380,961,o),
(380,992,cs,{
name = hr00;
})
);
},
{
closed = 1;
nodes = (
(572,1013,o),
(562,1029,o),
(527,1029,cs),
(481,1029,o),
(470,999,o),
(470,968,cs),
(470,947,o),
(480,930,o),
(515,930,cs),
(561,930,o),
(572,961,o),
(572,992,cs)
);
}
);
};
layerId = master01;
shapes = (
{
ref = A;
},
{
pos = (226,0);
ref = dieresiscomb.case;
}
);
width = 700;
}
);
unicode = 196;
},
{
glyphname = Agrave;
kernLeft = A;
kernRight = A;
lastChange = "2023-02-17 07:34:05 +0000";
layers = (
{
background = {
shapes = (
{
closed = 1;
nodes = (
(497,286,l),
(182,286,l),
(402,759,l,{
name = hr00;
})
);
},
{
closed = 1;
nodes = (
(-7,64,o),
(-21,25,o),
(-21,20,cs),
(-21,-7,o),
(7,-14,o),
(25,-14,cs),
(48,-14,o),
(60,21,o),
(87,80,cs),
(153,225,l),
(510,225,l),
(554,15,ls),
(559,-8,o),
(573,-14,o),
(598,-14,cs),
(620,-14,o),
(636,-9,o),
(636,8,cs),
(636,11,o),
(635,16,o),
(634,20,cs),
(463,843,ls),
(458,867,o),
(438,872,o),
(413,872,cs),
(388,872,o),
(367,865,o),
(357,843,cs),
(28,139,ls)
);
},
{
closed = 1;
nodes = (
(338,1074,o),
(332,1074,o),
(329,1074,cs),
(306,1074,o),
(291,1049,o),
(291,1031,cs),
(291,1016,o),
(294,1010,o),
(311,1001,cs),
(499,902,ls),
(503,900,o),
(505,900,o),
(508,900,cs),
(523,900,o),
(533,913,o),
(533,926,cs),
(533,934,o),
(528,942,o),
(525,944,cs),
(342,1071,ls,{
name = hr00;
})
);
}
);
};
layerId = master01;
shapes = (
{
ref = A;
},
{
pos = (270,0);
ref = gravecomb.case;
}
);
width = 700;
}
);
unicode = 192;
},
{
glyphname = Amacron;
kernLeft = A;
kernRight = A;
lastChange = "2023-02-17 07:34:05 +0000";
layers = (
{
background = {
shapes = (
{
closed = 1;
nodes = (
(497,286,l),
(182,286,l),
(402,759,l,{
name = hr00;
})
);
},
{
closed = 1;
nodes = (
(-7,64,o),
(-21,25,o),
(-21,20,cs),
(-21,-7,o),
(7,-14,o),
(25,-14,cs),
(48,-14,o),
(60,21,o),
(87,80,cs),
(153,225,l),
(510,225,l),
(554,15,ls),
(559,-8,o),
(573,-14,o),
(598,-14,cs),
(620,-14,o),
(636,-9,o),
(636,8,cs),
(636,11,o),
(635,16,o),
(634,20,cs),
(463,843,ls),
(458,867,o),
(438,872,o),
(413,872,cs),
(388,872,o),
(367,865,o),
(357,843,cs),
(28,139,ls)
);
},
{
closed = 1;
nodes = (
(300,1007,o),
(293,988,o),
(293,973,cs),
(293,958,o),
(300,946,o),
(316,946,cs),
(534,946,ls),
(564,946,o),
(571,965,o),
(571,980,cs),
(571,995,o),
(564,1007,o),
(548,1007,cs),
(330,1007,ls,{
name = hr00;
})
);
}
);
};
layerId = master01;
shapes = (
{
ref = A;
},
{
pos = (219,0);
ref = macroncomb.case;
}
);
width = 700;
}
);
unicode = 256;
},
{
glyphname = Aogonek;
kernLeft = A;
kernRight = A;
lastChange = "2023-02-17 07:34:05 +0000";
layers = (
{
background = {
shapes = (
{
closed = 1;
nodes = (
(497,286,l),
(182,286,l),
(402,759,l,{
name = hr00;
})
);
},
{
closed = 1;
nodes = (
(-7,64,o),
(-21,25,o),
(-21,20,cs),
(-21,-7,o),
(7,-14,o),
(25,-14,cs),
(48,-14,o),
(60,21,o),
(87,80,cs),
(153,225,l),
(510,225,l),
(554,15,ls),
(559,-8,o),
(573,-14,o),
(598,-14,cs),
(620,-14,o),
(636,-9,o),
(636,8,cs),
(636,11,o),
(635,16,o),
(634,20,cs),
(463,843,ls),
(458,867,o),
(438,872,o),
(413,872,cs),
(388,872,o),
(367,865,o),
(357,843,cs),
(28,139,ls)
);
},
{
closed = 1;
nodes = (
(482,-11,o),
(450,-63,o),
(450,-113,cs),
(450,-172,o),
(498,-229,o),
(584,-229,cs),
(642,-229,o),
(727,-189,o),
(727,-156,cs),
(727,-139,o),
(719,-131,o),
(705,-131,cs),
(684,-131,o),
(649,-172,o),
(588,-172,cs,{
name = hr01;
}),
(543,-172,o),
(518,-142,o),
(518,-107,cs),
(518,-62,o),
(552,-9,o),
(624,11,c),
(556,11,l)
);
}
);
};
layerId = master01;
shapes = (
{
ref = A;
},
{
pos = (315,0);
ref = ogonekcomb;
}
);
width = 700;
}
);
unicode = 260;
},
{
glyphname = Aring;
kernLeft = A;
kernRight = A;
lastChange = "2023-02-17 07:34:05 +0000";
layers = (
{
background = {
shapes = (
{
closed = 1;
nodes = (
(497,286,l),
(182,286,l),
(402,759,l,{
name = hr00;
})
);
},
{
closed = 1;
nodes = (
(-7,64,o),
(-21,25,o),
(-21,20,cs),
(-21,-7,o),
(7,-14,o),
(25,-14,cs),
(48,-14,o),
(60,21,o),
(87,80,cs),
(153,225,l),
(510,225,l),
(554,15,ls),
(559,-8,o),
(573,-14,o),
(598,-14,cs),
(620,-14,o),
(636,-9,o),
(636,8,cs),
(636,11,o),
(635,16,o),
(634,20,cs),
(463,843,ls),
(458,867,o),
(438,872,o),
(413,872,cs),
(388,872,o),
(367,865,o),
(357,843,cs),
(28,139,ls)
);
},
{
closed = 1;
nodes = (
(321,913,o),
(351,868,o),
(414,868,cs),
(490,868,o),
(539,927,o),
(539,996,cs),
(539,1047,o),
(508,1094,o),
(445,1094,cs),
(357,1094,o),
(321,1022,o),
(321,964,cs,{
name = hr00;
})
);
},
{
closed = 1;
nodes = (
(376,1004,o),
(397,1043,o),
(440,1043,cs),
(471,1043,o),
(485,1021,o),
(485,989,cs),
(485,951,o),
(458,917,o),
(421,917,cs),
(389,917,o),
(376,940,o),
(376,970,cs)
);
}
);
};
layerId = master01;
shapes = (
{
ref = A;
},
{
pos = (261,0);
ref = ringcomb.case;
}
);
width = 700;
}
);
unicode = 197;
},
{
glyphname = Aringacute;
kernLeft = A;
kernRight = A;
lastChange = "2023-02-17 07:34:05 +0000";
layers = (
{
background = {
shapes = (
{
closed = 1;
nodes = (
(497,286,l),
(182,286,l),
(402,759,l,{
name = hr00;
})
);
},
{
closed = 1;
nodes = (
(-7,64,o),
(-21,25,o),
(-21,20,cs),
(-21,-7,o),
(7,-14,o),
(25,-14,cs),
(48,-14,o),
(60,21,o),
(87,80,cs),
(153,225,l),
(510,225,l),
(554,15,ls),
(559,-8,o),
(573,-14,o),
(598,-14,cs),
(620,-14,o),
(636,-9,o),
(636,8,cs),
(636,11,o),
(635,16,o),
(634,20,cs),
(463,843,ls),
(458,867,o),
(438,872,o),
(413,872,cs),
(388,872,o),
(367,865,o),
(357,843,cs),
(28,139,ls)
);
},
{
closed = 1;
nodes = (
(604,1131,ls),
(613,1139,o),
(616,1144,o),
(616,1152,cs),
(616,1172,o),
(599,1190,o),
(575,1190,cs),
(571,1190,o),
(565,1189,o),
(561,1184,cs),
(463,1067,l),
(500,1036,l,{
name = hr00;
})
);
},
{
closed = 1;
nodes = (
(321,913,o),
(351,868,o),
(414,868,cs),
(490,868,o),
(539,927,o),
(539,996,cs),
(539,1047,o),
(508,1094,o),
(445,1094,cs),
(357,1094,o),
(321,1022,o),
(321,964,cs)
);
},
{
closed = 1;
nodes = (
(376,1004,o),
(397,1043,o),
(440,1043,cs),
(471,1043,o),
(485,1021,o),
(485,989,cs),
(485,951,o),
(458,917,o),
(421,917,cs),
(389,917,o),
(376,940,o),
(376,970,cs)
);
}
);
};
layerId = master01;
shapes = (
{
closed = 1;
nodes = (
(490,868,o),
(539,927,o),
(539,996,cs),
(539,1047,o),
(508,1094,o),
(445,1094,cs),
(357,1094,o),
(321,1022,o),
(321,964,cs),
(321,913,o),
(351,868,o),
(414,868,cs)
);
},
{
ref = A;
},
{
closed = 1;
nodes = (
(389,917,o),
(376,940,o),
(376,970,cs),
(376,1004,o),
(397,1043,o),
(440,1043,cs),
(471,1043,o),
(485,1021,o),
(485,989,cs),
(485,951,o),
(458,917,o),
(421,917,cs)
);
},
{
closed = 1;
nodes = (
(604,1131,ls),
(613,1139,o),
(616,1144,o),
(616,1152,cs),
(616,1172,o),
(599,1190,o),
(575,1190,cs),
(571,1190,o),
(565,1189,o),
(561,1184,cs),
(463,1067,l),
(500,1036,l,{
name = hr00;
})
);
}
);
width = 700;
}
);
unicode = 506;
},
{
glyphname = Atilde;
kernLeft = A;
kernRight = A;
lastChange = "2023-02-17 07:34:05 +0000";
layers = (
{
background = {
shapes = (
{
closed = 1;
nodes = (
(497,286,l),
(182,286,l),
(402,759,l,{
name = hr00;
})
);
},
{
closed = 1;
nodes = (
(-7,64,o),
(-21,25,o),
(-21,20,cs),
(-21,-7,o),
(7,-14,o),
(25,-14,cs),
(48,-14,o),
(60,21,o),
(87,80,cs),
(153,225,l),
(510,225,l),
(554,15,ls),
(559,-8,o),
(573,-14,o),
(598,-14,cs),
(620,-14,o),
(636,-9,o),
(636,8,cs),
(636,11,o),
(635,16,o),
(634,20,cs),
(463,843,ls),
(458,867,o),
(438,872,o),
(413,872,cs),
(388,872,o),
(367,865,o),
(357,843,cs),
(28,139,ls)
);
},
{
closed = 1;
nodes = (
(441,991,o),
(405,1031,o),
(366,1031,cs,{
name = hr01;
}),
(313,1031,o),
(259,966,o),
(259,953,cs),
(259,936,o),
(267,922,o),
(288,922,cs,{
name = hr02;
}),
(299,922,o),
(325,962,o),
(364,962,cs,{
name = hr03;
}),
(404,962,o),
(440,922,o),
(479,922,cs,{
name = hr04;
}),
(532,922,o),
(586,987,o),
(586,1000,cs),
(586,1017,o),
(578,1031,o),
(557,1031,cs,{
name = hr05;
}),
(546,1031,o),
(520,991,o),
(481,991,cs)
);
}
);
};
layerId = master01;
shapes = (
{
ref = A;
},
{
pos = (209,0);
ref = tildecomb.case;
}
);
width = 700;
}
);
unicode = 195;
},
{
glyphname = AE;
kernLeft = A;
lastChange = "2023-02-17 07:34:05 +0000";
layers = (
{
anchors = (
{
name = bottom;
pos = (477,0);
},
{
name = top;
pos = (694,860);
}
);
background = {
shapes = (
{
closed = 1;
nodes = (
(411,13,o),
(422,0,o),
(446,0,cs),
(850,0,ls),
(866,0,o),
(878,13,o),
(878,34,cs),
(878,55,o),
(868,64,o),
(852,64,cs),
(495,64,l),
(535,388,l),
(818,388,ls),
(846,388,o),
(856,398,o),
(856,425,cs),
(856,444,o),
(842,451,o),
(821,451,cs),
(544,451,l),
(581,797,l),
(917,797,ls),
(945,797,o),
(954,806,o),
(954,833,cs),
(954,851,o),
(941,860,o),
(923,860,cs),
(537,860,l),
(533,860,l),
(412,860,ls),
(387,860,o),
(366,853,o),
(356,831,c),
(-26,82,ls),
(-49,38,o),
(-51,25,o),
(-51,15,cs),
(-51,-7,o),
(-31,-14,o),
(-5,-14,cs,{
name = hr01;
}),
(18,-14,o),
(33,22,o),
(62,80,cs),
(217,388,l),
(456,388,l),
(413,31,ls)
);
},
{
closed = 1;
nodes = (
(505,797,l),
(463,451,l),
(249,451,l),
(424,797,l)
);
}
);
};
layerId = master01;
shapes = (
{
closed = 1;
nodes = (
(18,-14,o),
(33,22,o),
(62,80,cs),
(217,388,l),
(456,388,l),
(413,31,ls),
(411,13,o),
(422,0,o),
(446,0,cs),
(850,0,ls),
(866,0,o),
(878,13,o),
(878,34,cs),
(878,55,o),
(868,64,o),
(852,64,cs),
(495,64,l),
(535,388,l),
(818,388,ls),
(846,388,o),
(856,398,o),
(856,425,cs),
(856,444,o),
(842,451,o),
(821,451,cs),
(544,451,l),
(581,797,l),
(917,797,ls),
(945,797,o),
(954,806,o),
(954,833,cs),
(954,851,o),
(941,860,o),
(923,860,cs),
(412,860,ls),
(387,860,o),
(366,853,o),
(356,831,c),
(-26,82,ls),
(-49,38,o),
(-51,25,o),
(-51,15,cs),
(-51,-7,o),
(-31,-14,o),
(-5,-14,cs,{
name = hr01;
})
);
},
{
closed = 1;
nodes = (
(424,797,l),
(505,797,l),
(463,451,l),
(249,451,l)
);
}
);
width = 954;
}
);
unicode = 198;
},
{
glyphname = AEacute;
kernLeft = A;
lastChange = "2023-02-17 07:34:05 +0000";
layers = (
{
background = {
shapes = (
{
closed = 1;
nodes = (
(411,13,o),
(422,0,o),
(446,0,cs),
(850,0,ls),
(866,0,o),
(878,13,o),
(878,34,cs),
(878,55,o),
(868,64,o),
(852,64,cs),
(495,64,l),
(535,388,l),
(818,388,ls),
(846,388,o),
(856,398,o),
(856,425,cs),
(856,444,o),
(842,451,o),
(821,451,cs),
(544,451,l),
(581,797,l),
(917,797,ls),
(945,797,o),
(954,806,o),
(954,833,cs),
(954,851,o),
(941,860,o),
(923,860,cs),
(537,860,l),
(533,860,l),
(412,860,ls),
(387,860,o),
(366,853,o),
(356,831,c),
(-26,82,ls),
(-49,38,o),
(-51,25,o),
(-51,15,cs),
(-51,-7,o),
(-31,-14,o),
(-5,-14,cs,{
name = hr01;
}),
(18,-14,o),
(33,22,o),
(62,80,cs),
(217,388,l),
(456,388,l),
(413,31,ls)
);
},
{
closed = 1;
nodes = (
(505,797,l),
(463,451,l),
(249,451,l),
(424,797,l)
);
},
{
closed = 1;
nodes = (
(577,942,o),
(572,934,o),
(572,926,cs),
(572,913,o),
(582,900,o),
(597,900,cs),
(600,900,o),
(602,900,o),
(606,902,cs),
(794,1001,ls),
(811,1010,o),
(814,1016,o),
(814,1031,cs),
(814,1049,o),
(799,1074,o),
(774,1074,cs),
(771,1074,o),
(767,1073,o),
(763,1071,cs),
(580,944,ls,{
name = hr00;
})
);
}
);
};
layerId = master01;
shapes = (
{
ref = AE;
},
{
pos = (541,0);
ref = acutecomb.case;
}
);
width = 954;
}
);
unicode = 508;
},
{
glyphname = B;
lastChange = "2023-02-17 07:34:05 +0000";
layers = (
{
anchors = (
{
name = bottom;
pos = (357,0);
},
{
name = center;
pos = (357,430);
},
{
name = top;
pos = (357,860);
}
);
background = {
shapes = (
{
closed = 1;
nodes = (
(644,813,o),
(519,872,o),
(381,872,cs),
(252,872,o),
(183,857,o),
(183,857,c),
(183,857,o),
(155,851,o),
(154,837,cs),
(57,32,l),
(57,27,ls),
(57,7,o),
(73,-1,o),
(95,-3,c),
(95,-3,o),
(168,-14,o),
(301,-14,cs),
(494,-14,o),
(654,71,o),
(654,252,cs),
(654,354,o),
(587,428,o),
(489,470,c),
(585,511,o),
(645,585,o),
(645,683,cs,{
name = hr00;
})
);
},
{
closed = 1;
nodes = (
(468,440,o),
(574,351,o),
(574,251,cs),
(574,123,o),
(434,55,o),
(301,55,cs),
(251,55,o),
(190,57,o),
(140,62,c),
(185,440,l),
(337,440,ls)
);
},
{
closed = 1;
nodes = (
(279,808,o),
(332,811,o),
(381,811,cs),
(476,811,o),
(566,770,o),
(566,680,cs),
(566,582,o),
(482,517,o),
(377,503,c),
(193,503,l),
(228,799,l)
);
}
);
};
layerId = master01;
shapes = (
{
closed = 1;
nodes = (
(494,-14,o),
(654,71,o),
(654,252,cs),
(654,354,o),
(587,428,o),
(489,470,c),
(585,511,o),
(645,585,o),
(645,683,cs,{
name = hr00;
}),
(644,813,o),
(519,872,o),
(381,872,cs),
(252,872,o),
(183,857,o),
(183,857,c),
(183,857,o),
(155,851,o),
(154,837,cs),
(57,32,l),
(57,27,ls),
(57,7,o),
(73,-1,o),
(95,-3,c),
(95,-3,o),
(168,-14,o),
(301,-14,cs)
);
},
{
closed = 1;
nodes = (
(251,55,o),
(190,57,o),
(140,62,c),
(185,440,l),
(337,440,ls),
(468,440,o),
(574,351,o),
(574,251,cs),
(574,123,o),
(434,55,o),
(301,55,cs)
);
},
{
closed = 1;
nodes = (
(228,799,l),
(279,808,o),
(332,811,o),
(381,811,cs),
(476,811,o),
(566,770,o),
(566,680,cs),
(566,582,o),
(482,517,o),
(377,503,c),
(193,503,l)
);
}
);
width = 713;
}
);
unicode = 66;
},
{
glyphname = C;
lastChange = "2023-02-17 07:34:05 +0000";
layers = (
{
anchors = (
{
name = bottom;
pos = (311,0);
},
{
name = top;
pos = (442,860);
}
);
background = {
shapes = (
{
closed = 1;
nodes = (
(139,872,o),
(42,567,o),
(42,330,cs),
(42,137,o),
(120,-14,o),
(333,-14,cs),
(447,-14,o),
(547,36,o),
(609,133,cs),
(613,139,o),
(616,146,o),
(616,151,cs),
(616,169,o),
(599,181,o),
(584,181,cs),
(567,181,o),
(552,153,o),
(539,139,cs),
(486,81,o),
(417,53,o),
(340,53,cs),
(182,53,o),
(122,185,o),
(122,325,cs),
(122,501,o),
(197,811,o),
(421,811,cs),
(570,811,o),
(588,708,o),
(616,708,cs),
(633,708,o),
(662,728,o),
(662,741,cs),
(662,763,o),
(592,872,o),
(424,872,cs,{
name = hr00;
})
);
}
);
};
layerId = master01;
shapes = (
{
closed = 1;
nodes = (
(447,-14,o),
(547,36,o),
(609,133,cs),
(613,139,o),
(616,146,o),
(616,151,cs),
(616,169,o),
(599,181,o),
(584,181,cs),
(567,181,o),
(552,153,o),
(539,139,cs),
(486,81,o),
(417,53,o),
(340,53,cs),
(182,53,o),
(122,185,o),
(122,325,cs),
(122,501,o),
(197,811,o),
(421,811,cs),
(570,811,o),
(588,708,o),
(616,708,cs),
(633,708,o),
(662,728,o),
(662,741,cs),
(662,763,o),
(592,872,o),
(424,872,cs,{
name = hr00;
}),
(139,872,o),
(42,567,o),
(42,330,cs),
(42,137,o),
(120,-14,o),
(333,-14,cs)
);
}
);
width = 661;
}
);
unicode = 67;
},
{
glyphname = Cacute;
lastChange = "2023-02-17 07:34:05 +0000";
layers = (
{
background = {
shapes = (
{
closed = 1;
nodes = (
(139,872,o),
(42,567,o),
(42,330,cs),
(42,137,o),
(120,-14,o),
(333,-14,cs),
(447,-14,o),
(547,36,o),
(609,133,cs),
(613,139,o),
(616,146,o),
(616,151,cs),
(616,169,o),
(599,181,o),
(584,181,cs),
(567,181,o),
(552,153,o),
(539,139,cs),
(486,81,o),
(417,53,o),
(340,53,cs),
(182,53,o),
(122,185,o),
(122,325,cs),
(122,501,o),
(197,811,o),
(421,811,cs),
(570,811,o),
(588,708,o),
(616,708,cs),
(633,708,o),
(662,728,o),
(662,741,cs),
(662,763,o),
(592,872,o),
(424,872,cs,{
name = hr00;
})
);
},
{
closed = 1;
nodes = (
(324,942,o),
(319,934,o),
(319,926,cs),
(319,913,o),
(329,900,o),
(344,900,cs),
(347,900,o),
(349,900,o),
(353,902,cs),
(541,1001,ls),
(558,1010,o),
(561,1016,o),
(561,1031,cs),
(561,1049,o),
(546,1074,o),
(521,1074,cs),
(518,1074,o),
(514,1073,o),
(510,1071,cs),
(327,944,ls,{
name = hr00;
})
);
}
);
};
layerId = master01;
shapes = (
{
ref = C;
},
{
pos = (289,0);
ref = acutecomb.case;
}
);
width = 661;
}
);
unicode = 262;
},
{
glyphname = Ccaron;
lastChange = "2023-02-17 07:34:05 +0000";
layers = (
{
background = {
shapes = (
{
closed = 1;
nodes = (
(139,872,o),
(42,567,o),
(42,330,cs),
(42,137,o),
(120,-14,o),
(333,-14,cs),
(447,-14,o),
(547,36,o),
(609,133,cs),
(613,139,o),
(616,146,o),
(616,151,cs),
(616,169,o),
(599,181,o),
(584,181,cs),
(567,181,o),
(552,153,o),
(539,139,cs),
(486,81,o),
(417,53,o),
(340,53,cs),
(182,53,o),
(122,185,o),
(122,325,cs),
(122,501,o),
(197,811,o),
(421,811,cs),
(570,811,o),
(588,708,o),
(616,708,cs),
(633,708,o),
(662,728,o),
(662,741,cs),
(662,763,o),
(592,872,o),
(424,872,cs,{
name = hr00;
})
);
},
{
closed = 1;
nodes = (
(368,1083,o),
(364,1086,o),
(356,1086,cs),
(343,1086,o),
(326,1072,o),
(326,1056,cs),
(326,1053,o),
(327,1049,o),
(332,1041,cs),
(403,933,ls),
(413,918,o),
(423,910,o),
(442,910,cs),
(462,910,o),
(476,923,o),
(495,941,cs),
(602,1046,ls),
(605,1049,o),
(606,1054,o),
(606,1059,cs),
(606,1073,o),
(595,1085,o),
(581,1085,cs,{
name = hr01;
}),
(577,1085,o),
(572,1084,o),
(567,1080,cs),
(447,994,l),
(376,1073,ls)
);
}
);
};
layerId = master01;
shapes = (
{
ref = C;
},
{
pos = (234,0);
ref = caroncomb.case;
}
);
width = 661;
}
);
unicode = 268;
},
{
glyphname = Ccedilla;
lastChange = "2023-02-17 07:34:05 +0000";
layers = (
{
background = {
shapes = (
{
closed = 1;
nodes = (
(139,872,o),
(42,567,o),
(42,330,cs),
(42,137,o),
(120,-14,o),
(333,-14,cs),
(447,-14,o),
(547,36,o),
(609,133,cs),
(613,139,o),
(616,146,o),
(616,151,cs),
(616,169,o),
(599,181,o),
(584,181,cs),
(567,181,o),
(552,153,o),
(539,139,cs),
(486,81,o),
(417,53,o),
(340,53,cs),
(182,53,o),
(122,185,o),
(122,325,cs),
(122,501,o),
(197,811,o),
(421,811,cs),
(570,811,o),
(588,708,o),
(616,708,cs),
(633,708,o),
(662,728,o),
(662,741,cs),
(662,763,o),
(592,872,o),
(424,872,cs,{
name = hr00;
})
);
},
{
closed = 1;
nodes = (
(261,-72,ls),
(258,-83,o),
(256,-93,o),
(256,-101,cs),
(256,-116,o),
(264,-124,o),
(288,-124,cs),
(331,-124,o),
(379,-137,o),
(379,-193,cs),
(379,-233,o),
(350,-265,o),
(304,-265,cs),
(260,-265,o),
(245,-243,o),
(234,-220,cs),
(227,-206,o),
(215,-203,o),
(207,-203,cs),
(189,-203,o),
(180,-219,o),
(180,-235,cs),
(180,-274,o),
(225,-320,o),
(300,-320,cs),
(374,-320,o),
(441,-280,o),
(441,-185,cs),
(441,-103,o),
(375,-71,o),
(309,-71,c),
(330,0,l),
(282,0,l,{
name = hr00;
})
);
}
);
};
layerId = master01;
shapes = (
{
ref = C;
},
{
pos = (89,0);
ref = cedillacomb;
}
);
width = 661;
}
);
unicode = 199;
},
{
glyphname = Ccircumflex;
lastChange = "2023-02-17 07:34:05 +0000";
layers = (
{
background = {
shapes = (
{
closed = 1;
nodes = (
(139,872,o),
(42,567,o),
(42,330,cs),
(42,137,o),
(120,-14,o),
(333,-14,cs),
(447,-14,o),
(547,36,o),
(609,133,cs),
(613,139,o),
(616,146,o),
(616,151,cs),
(616,169,o),
(599,181,o),
(584,181,cs),
(567,181,o),
(552,153,o),
(539,139,cs),
(486,81,o),
(417,53,o),
(340,53,cs),
(182,53,o),
(122,185,o),
(122,325,cs),
(122,501,o),
(197,811,o),
(421,811,cs),
(570,811,o),
(588,708,o),
(616,708,cs),
(633,708,o),
(662,728,o),
(662,741,cs),
(662,763,o),
(592,872,o),
(424,872,cs,{
name = hr00;
})
);
},
{
closed = 1;
nodes = (
(529,913,o),
(533,910,o),
(541,910,cs),
(554,910,o),
(570,924,o),
(570,940,cs),
(570,943,o),
(569,947,o),
(564,955,cs),
(493,1063,ls),
(483,1078,o),
(473,1086,o),
(454,1086,cs),
(434,1086,o),
(420,1073,o),
(401,1055,cs),
(294,950,ls),
(291,947,o),
(290,942,o),
(290,937,cs),
(290,923,o),
(300,911,o),
(314,911,cs,{
name = hr01;
}),
(320,911,o),
(324,912,o),
(329,916,cs),
(449,1002,l),
(520,923,ls)
);
}
);
};
layerId = master01;
shapes = (
{
ref = C;
},
{
pos = (242,0);
ref = circumflexcomb.case;
}
);
width = 661;
}
);
unicode = 264;
},
{
glyphname = Cdotaccent;
lastChange = "2023-02-17 07:34:05 +0000";
layers = (
{
background = {
shapes = (
{
closed = 1;
nodes = (
(139,872,o),
(42,567,o),
(42,330,cs),
(42,137,o),
(120,-14,o),
(333,-14,cs),
(447,-14,o),
(547,36,o),
(609,133,cs),
(613,139,o),
(616,146,o),
(616,151,cs),
(616,169,o),
(599,181,o),
(584,181,cs),
(567,181,o),
(552,153,o),
(539,139,cs),
(486,81,o),
(417,53,o),
(340,53,cs),
(182,53,o),
(122,185,o),
(122,325,cs),
(122,501,o),
(197,811,o),
(421,811,cs),
(570,811,o),
(588,708,o),
(616,708,cs),
(633,708,o),
(662,728,o),
(662,741,cs),
(662,763,o),
(592,872,o),
(424,872,cs,{
name = hr00;
})
);
},
{
closed = 1;
nodes = (
(501,1013,o),
(491,1029,o),
(456,1029,cs),
(410,1029,o),
(399,999,o),
(399,968,cs),
(399,947,o),
(409,930,o),
(444,930,cs),
(490,930,o),
(501,961,o),
(501,992,cs,{
name = hr00;
})
);
}
);
};
layerId = master01;
shapes = (
{
ref = C;
},
{
pos = (341,0);
ref = dotaccentcomb.case;
}
);
width = 661;
}
);
unicode = 266;
},
{
glyphname = D;
lastChange = "2023-02-17 07:34:05 +0000";
layers = (
{
anchors = (
{
name = bottom;
pos = (389,0);
},
{
name = center;
pos = (389,430);
},
{
name = top;
pos = (445,860);
}
);
background = {
shapes = (
{
closed = 1;
nodes = (
(731,746,o),
(624,872,o),
(399,872,cs),
(297,872,o),
(183,861,o),
(183,861,c),
(171,860,o),
(155,851,o),
(154,837,cs),
(57,29,ls),
(55,8,o),
(71,-1,o),
(95,-3,c),
(95,-3,o),
(164,-14,o),
(301,-14,cs),
(617,-14,o),
(735,241,o),
(732,536,cs,{
name = hr00;
})
);
},
{
closed = 1;
nodes = (
(655,307,o),
(559,53,o),
(301,53,cs),
(246,53,o),
(190,55,o),
(140,62,c),
(228,799,l),
(279,808,o),
(343,809,o),
(395,809,cs),
(559,809,o),
(651,701,o),
(652,547,cs)
);
}
);
};
layerId = master01;
shapes = (
{
closed = 1;
nodes = (
(617,-14,o),
(735,241,o),
(732,536,cs,{
name = hr00;
}),
(731,746,o),
(624,872,o),
(399,872,cs),
(297,872,o),
(183,861,o),
(183,861,c),
(171,860,o),
(156,851,o),
(154,837,cs),
(57,29,ls),
(54,8,o),
(71,-1,o),
(95,-3,c),
(95,-3,o),
(164,-14,o),
(301,-14,cs)
);
},
{
closed = 1;
nodes = (
(246,53,o),
(190,55,o),
(140,62,c),
(228,799,l),
(279,808,o),
(343,809,o),
(395,809,cs),
(559,809,o),
(651,701,o),
(652,547,cs),
(655,307,o),
(559,53,o),
(301,53,cs)
);
}
);
width = 777;
}
);
unicode = 68;
},
{
glyphname = Eth;
lastChange = "2023-02-17 07:34:05 +0000";
layers = (
{
background = {
shapes = (
{
closed = 1;
nodes = (
(729,746,o),
(622,872,o),
(397,872,cs),
(295,872,o),
(181,861,o),
(181,861,c),
(169,860,o),
(153,851,o),
(152,837,cs),
(55,29,ls),
(53,8,o),
(69,-1,o),
(93,-3,c),
(93,-3,o),
(162,-14,o),
(299,-14,cs),
(615,-14,o),
(733,241,o),
(730,536,cs,{
name = hr00;
})
);
},
{
closed = 1;
nodes = (
(653,307,o),
(557,53,o),
(299,53,cs),
(244,53,o),
(188,55,o),
(138,62,c),
(226,799,l),
(277,808,o),
(341,809,o),
(393,809,cs),
(557,809,o),
(649,701,o),
(650,547,cs)
);
},
{
closed = 1;
nodes = (
(6,462,o),
(-2,442,o),
(-2,426,cs),
(-2,411,o),
(6,398,o),
(19,398,cs),
(409,398,ls),
(428,398,o),
(439,415,o),
(439,431,cs),
(439,447,o),
(430,462,o),
(413,462,cs),
(27,462,ls,{
name = hr00;
})
);
}
);
};
layerId = master01;
shapes = (
{
closed = 1;
nodes = (
(409,398,ls),
(428,398,o),
(439,415,o),
(439,431,cs),
(439,447,o),
(430,462,o),
(413,462,cs),
(27,462,ls,{
name = hr00;
}),
(6,462,o),
(-2,442,o),
(-2,426,cs),
(-2,411,o),
(6,398,o),
(19,398,cs)
);
},
{
alignment = -1;
pos = (-2,0);
ref = D;
}
);
width = 775;
}
);
unicode = 208;
},
{
glyphname = Dcaron;
lastChange = "2023-02-17 07:34:05 +0000";
layers = (
{
background = {
shapes = (
{
closed = 1;
nodes = (
(731,746,o),
(624,872,o),
(399,872,cs),
(297,872,o),
(183,861,o),
(183,861,c),
(171,860,o),
(155,851,o),
(154,837,cs),
(57,29,ls),
(55,8,o),
(71,-1,o),
(95,-3,c),
(95,-3,o),
(164,-14,o),
(301,-14,cs),
(617,-14,o),
(735,241,o),
(732,536,cs,{
name = hr00;
})
);
},
{
closed = 1;
nodes = (
(655,307,o),
(559,53,o),
(301,53,cs),
(246,53,o),
(190,55,o),
(140,62,c),
(228,799,l),
(279,808,o),
(343,809,o),
(395,809,cs),
(559,809,o),
(651,701,o),
(652,547,cs)
);
},
{
closed = 1;
nodes = (
(346,1083,o),
(342,1086,o),
(334,1086,cs),
(321,1086,o),
(304,1072,o),
(304,1056,cs),
(304,1053,o),
(305,1049,o),
(310,1041,cs),
(381,933,ls),
(391,918,o),
(401,910,o),
(420,910,cs),
(440,910,o),
(454,923,o),
(473,941,cs),
(580,1046,ls),
(583,1049,o),
(584,1054,o),
(584,1059,cs),
(584,1073,o),
(573,1085,o),
(559,1085,cs,{
name = hr01;
}),
(555,1085,o),
(550,1084,o),
(545,1080,cs),
(425,994,l),
(354,1073,ls)
);
}
);
};
layerId = master01;
shapes = (
{
ref = D;
},
{
pos = (237,0);
ref = caroncomb.case;
}
);
width = 777;
}
);
unicode = 270;
},
{
glyphname = Dcroat;
lastChange = "2023-02-17 07:34:05 +0000";
layers = (
{
background = {
shapes = (
{
closed = 1;
nodes = (
(729,746,o),
(622,872,o),
(397,872,cs),
(295,872,o),
(181,861,o),
(181,861,c),
(169,860,o),
(153,851,o),
(152,837,cs),
(55,29,ls),
(53,8,o),
(69,-1,o),
(93,-3,c),
(93,-3,o),
(162,-14,o),
(299,-14,cs),
(615,-14,o),
(733,241,o),
(730,536,cs,{
name = hr00;
})
);
},
{
closed = 1;
nodes = (
(653,307,o),
(557,53,o),
(299,53,cs),
(244,53,o),
(188,55,o),
(138,62,c),
(226,799,l),
(277,808,o),
(341,809,o),
(393,809,cs),
(557,809,o),
(649,701,o),
(650,547,cs)
);
},
{
closed = 1;
nodes = (
(6,462,o),
(-2,442,o),
(-2,426,cs),
(-2,411,o),
(6,398,o),
(19,398,cs),
(409,398,ls),
(428,398,o),
(439,415,o),
(439,431,cs),
(439,447,o),
(430,462,o),
(413,462,cs),
(27,462,ls,{
name = hr00;
})
);
}
);
};
layerId = master01;
shapes = (
{
ref = Eth;
}
);
width = 775;
}
);
unicode = 272;
},
{
glyphname = E;
lastChange = "2023-02-17 07:34:05 +0000";
layers = (
{
anchors = (
{
name = bottom;
pos = (300,0);
},
{
name = ogonek;
pos = (619,11);
},
{
name = top;
pos = (404,860);
},
{
name = topleft;
pos = (20,860);
}
);
background = {
shapes = (
{
closed = 1;
nodes = (
(56,13,o),
(67,0,o),
(91,0,cs),
(495,0,ls),
(511,0,o),
(523,13,o),
(523,34,cs),
(523,55,o),
(513,64,o),
(497,64,cs),
(140,64,l),
(184,421,l),
(467,421,ls),
(495,421,o),
(505,431,o),
(505,458,cs),
(505,477,o),
(491,484,o),
(470,484,cs),
(193,484,l),
(226,797,l),
(562,797,ls),
(590,797,o),
(599,806,o),
(599,833,cs),
(599,851,o),
(586,860,o),
(568,860,cs),
(182,860,ls),
(166,860,o),
(154,847,o),
(154,826,c),
(58,31,ls,{
name = hr00;
})
);
}
);
};
layerId = master01;
shapes = (
{
closed = 1;
nodes = (
(495,0,ls),
(511,0,o),
(523,13,o),
(523,34,cs),
(523,55,o),
(513,64,o),
(497,64,cs),
(140,64,l),
(184,421,l),
(467,421,ls),
(495,421,o),
(505,431,o),
(505,458,cs),
(505,477,o),
(491,484,o),
(470,484,cs),
(193,484,l),
(226,797,l),
(562,797,ls),
(590,797,o),
(599,806,o),
(599,833,cs),
(599,851,o),
(586,860,o),
(568,860,cs),
(182,860,ls),
(166,860,o),
(154,847,o),
(154,826,c),
(58,31,ls,{
name = hr00;
}),
(56,13,o),
(67,0,o),
(91,0,cs)
);
}
);
width = 599;
}
);
unicode = 69;
},
{
glyphname = Eacute;
lastChange = "2023-02-17 07:34:05 +0000";
layers = (
{
background = {
shapes = (
{
closed = 1;
nodes = (
(57,13,o),
(68,0,o),
(92,0,cs),
(496,0,ls),
(512,0,o),
(524,13,o),
(524,34,cs),
(524,55,o),
(514,64,o),
(498,64,cs),
(141,64,l),
(185,421,l),
(468,421,ls),
(496,421,o),
(506,431,o),
(506,458,cs),
(506,477,o),
(492,484,o),
(471,484,cs),
(194,484,l),
(227,797,l),
(563,797,ls),
(591,797,o),
(600,806,o),
(600,833,cs),
(600,851,o),
(587,860,o),
(569,860,cs),
(183,860,ls),
(167,860,o),
(155,847,o),
(155,826,c),
(59,31,ls,{
name = hr00;
})
);
},
{
closed = 1;
nodes = (
(288,942,o),
(283,934,o),
(283,926,cs),
(283,913,o),
(293,900,o),
(308,900,cs),
(311,900,o),
(313,900,o),
(317,902,cs),
(505,1001,ls),
(522,1010,o),
(525,1016,o),
(525,1031,cs),
(525,1049,o),
(510,1074,o),
(485,1074,cs),
(482,1074,o),
(478,1073,o),
(474,1071,cs),
(291,944,ls,{
name = hr00;
})
);
}
);
};
layerId = master01;
shapes = (
{
ref = E;
},
{
pos = (251,0);
ref = acutecomb.case;
}
);
width = 599;
}
);
unicode = 201;
},
{
glyphname = Ebreve;
lastChange = "2023-02-17 07:34:05 +0000";
layers = (
{
background = {
shapes = (
{
closed = 1;
nodes = (
(56,13,o),
(67,0,o),
(91,0,cs),
(495,0,ls),
(511,0,o),
(523,13,o),
(523,34,cs),
(523,55,o),
(513,64,o),
(497,64,cs),
(140,64,l),
(184,421,l),
(467,421,ls),
(495,421,o),
(505,431,o),
(505,458,cs),
(505,477,o),
(491,484,o),
(470,484,cs),
(193,484,l),
(226,797,l),
(562,797,ls),
(590,797,o),
(599,806,o),
(599,833,cs),
(599,851,o),
(586,860,o),
(568,860,cs),
(182,860,ls),
(166,860,o),
(154,847,o),
(154,826,c),
(58,31,ls,{
name = hr00;
})
);
},
{
closed = 1;
nodes = (
(267,1071,o),
(262,1051,o),
(262,1034,cs),
(262,986,o),
(302,903,o),
(368,903,cs),
(474,903,o),
(537,1027,o),
(537,1050,cs),
(537,1062,o),
(529,1071,o),
(517,1071,cs),
(482,1071,o),
(446,974,o),
(383,974,cs),
(316,974,o),
(328,1071,o),
(284,1071,cs,{
name = hr00;
})
);
}
);
};
layerId = master01;
shapes = (
{
ref = E;
},
{
pos = (216,0);
ref = brevecomb.case;
}
);
width = 599;
}
);
unicode = 276;
},
{
glyphname = Ecaron;
lastChange = "2023-02-17 07:34:05 +0000";
layers = (
{
background = {
shapes = (
{
closed = 1;
nodes = (
(56,13,o),
(67,0,o),
(91,0,cs),
(495,0,ls),
(511,0,o),
(523,13,o),
(523,34,cs),
(523,55,o),
(513,64,o),
(497,64,cs),
(140,64,l),
(184,421,l),
(467,421,ls),
(495,421,o),
(505,431,o),
(505,458,cs),
(505,477,o),
(491,484,o),
(470,484,cs),
(193,484,l),
(226,797,l),
(562,797,ls),
(590,797,o),
(599,806,o),
(599,833,cs),
(599,851,o),
(586,860,o),
(568,860,cs),
(182,860,ls),
(166,860,o),
(154,847,o),
(154,826,c),
(58,31,ls,{
name = hr00;
})
);
},
{
closed = 1;
nodes = (
(307,1083,o),
(303,1086,o),
(295,1086,cs),
(282,1086,o),
(265,1072,o),
(265,1056,cs),
(265,1053,o),
(266,1049,o),
(271,1041,cs),
(342,933,ls),
(352,918,o),
(362,910,o),
(381,910,cs),
(401,910,o),
(415,923,o),
(434,941,cs),
(541,1046,ls),
(544,1049,o),
(545,1054,o),
(545,1059,cs),
(545,1073,o),
(534,1085,o),
(520,1085,cs,{
name = hr01;
}),
(516,1085,o),
(511,1084,o),
(506,1080,cs),
(386,994,l),
(315,1073,ls)
);
}
);
};
layerId = master01;
shapes = (
{
ref = E;
},
{
pos = (196,0);
ref = caroncomb.case;
}
);
width = 599;
}
);
unicode = 282;
},
{
glyphname = Ecircumflex;
lastChange = "2023-02-17 07:34:05 +0000";
layers = (
{
background = {
shapes = (
{
closed = 1;
nodes = (
(57,13,o),
(68,0,o),
(92,0,cs),
(496,0,ls),
(512,0,o),
(524,13,o),
(524,34,cs),
(524,55,o),
(514,64,o),
(498,64,cs),
(141,64,l),
(185,421,l),
(468,421,ls),
(496,421,o),
(506,431,o),
(506,458,cs),
(506,477,o),
(492,484,o),
(471,484,cs),
(194,484,l),
(227,797,l),
(563,797,ls),
(591,797,o),
(600,806,o),
(600,833,cs),
(600,851,o),
(587,860,o),
(569,860,cs),
(183,860,ls),
(167,860,o),
(155,847,o),
(155,826,c),
(59,31,ls,{
name = hr00;
})
);
},
{
closed = 1;
nodes = (
(486,913,o),
(490,910,o),
(498,910,cs),
(511,910,o),
(527,924,o),
(527,940,cs),
(527,943,o),
(526,947,o),
(521,955,cs),
(450,1063,ls),
(440,1078,o),
(430,1086,o),
(411,1086,cs),
(391,1086,o),
(377,1073,o),
(358,1055,cs),
(251,950,ls),
(248,947,o),
(247,942,o),
(247,937,cs),
(247,923,o),
(257,911,o),
(271,911,cs,{
name = hr01;
}),
(277,911,o),
(281,912,o),
(286,916,cs),
(406,1002,l),
(477,923,ls)
);
}
);
};
layerId = master01;
shapes = (
{
ref = E;
},
{
pos = (204,0);
ref = circumflexcomb.case;
}
);
width = 599;
}
);
unicode = 202;
},
{
glyphname = Edieresis;
lastChange = "2023-02-17 07:34:05 +0000";
layers = (
{
background = {
shapes = (
{
closed = 1;
nodes = (
(57,13,o),
(68,0,o),
(92,0,cs),
(496,0,ls),
(512,0,o),
(524,13,o),
(524,34,cs),
(524,55,o),
(514,64,o),
(498,64,cs),
(141,64,l),
(185,421,l),
(468,421,ls),
(496,421,o),
(506,431,o),
(506,458,cs),
(506,477,o),
(492,484,o),
(471,484,cs),
(194,484,l),
(227,797,l),
(563,797,ls),
(591,797,o),
(600,806,o),
(600,833,cs),
(600,851,o),
(587,860,o),
(569,860,cs),
(183,860,ls),
(167,860,o),
(155,847,o),
(155,826,c),
(59,31,ls,{
name = hr00;
})
);
},
{
closed = 1;
nodes = (
(358,1013,o),
(348,1029,o),
(313,1029,cs),
(267,1029,o),
(256,999,o),
(256,968,cs),
(256,947,o),
(266,930,o),
(301,930,cs),
(347,930,o),
(358,961,o),
(358,992,cs,{
name = hr00;
})
);
},
{
closed = 1;
nodes = (
(550,1013,o),
(540,1029,o),
(505,1029,cs),
(459,1029,o),
(448,999,o),
(448,968,cs),
(448,947,o),
(458,930,o),
(493,930,cs),
(539,930,o),
(550,961,o),
(550,992,cs)
);
}
);
};
layerId = master01;
shapes = (
{
ref = E;
},
{
pos = (207,0);
ref = dieresiscomb.case;
}
);
width = 599;
}
);
unicode = 203;
},
{
glyphname = Edotaccent;
lastChange = "2023-02-17 07:34:05 +0000";
layers = (
{
background = {
shapes = (
{
closed = 1;
nodes = (
(56,13,o),
(67,0,o),
(91,0,cs),
(495,0,ls),
(511,0,o),
(523,13,o),
(523,34,cs),
(523,55,o),
(513,64,o),
(497,64,cs),
(140,64,l),
(184,421,l),
(467,421,ls),
(495,421,o),
(505,431,o),
(505,458,cs),
(505,477,o),
(491,484,o),
(470,484,cs),
(193,484,l),
(226,797,l),
(562,797,ls),
(590,797,o),
(599,806,o),
(599,833,cs),
(599,851,o),
(586,860,o),
(568,860,cs),
(182,860,ls),
(166,860,o),
(154,847,o),
(154,826,c),
(58,31,ls,{
name = hr00;
})
);
},
{
closed = 1;
nodes = (
(450,1013,o),
(440,1029,o),
(405,1029,cs),
(359,1029,o),
(348,999,o),
(348,968,cs),
(348,947,o),
(358,930,o),
(393,930,cs),
(439,930,o),
(450,961,o),
(450,992,cs,{
name = hr00;
})
);
}
);
};
layerId = master01;
shapes = (
{
ref = E;
},
{
pos = (303,0);
ref = dotaccentcomb.case;
}
);
width = 599;
}
);
unicode = 278;
},
{
glyphname = Egrave;
lastChange = "2023-02-17 07:34:05 +0000";
layers = (
{
background = {
shapes = (
{
closed = 1;
nodes = (
(57,13,o),
(68,0,o),
(92,0,cs),
(496,0,ls),
(512,0,o),
(524,13,o),
(524,34,cs),
(524,55,o),
(514,64,o),
(498,64,cs),
(141,64,l),
(185,421,l),
(468,421,ls),
(496,421,o),
(506,431,o),
(506,458,cs),
(506,477,o),
(492,484,o),
(471,484,cs),
(194,484,l),
(227,797,l),
(563,797,ls),
(591,797,o),
(600,806,o),
(600,833,cs),
(600,851,o),
(587,860,o),
(569,860,cs),
(183,860,ls),
(167,860,o),
(155,847,o),
(155,826,c),
(59,31,ls,{
name = hr00;
})
);
},
{
closed = 1;
nodes = (
(311,1074,o),
(305,1074,o),
(302,1074,cs),
(279,1074,o),
(264,1049,o),
(264,1031,cs),
(264,1016,o),
(267,1010,o),
(284,1001,cs),
(472,902,ls),
(476,900,o),
(478,900,o),
(481,900,cs),
(496,900,o),
(506,913,o),
(506,926,cs),
(506,934,o),
(501,942,o),
(498,944,cs),
(315,1071,ls,{
name = hr00;
})
);
}
);
};
layerId = master01;
shapes = (
{
ref = E;
},
{
pos = (251,0);
ref = gravecomb.case;
}
);
width = 599;
}
);
unicode = 200;
},
{
glyphname = Emacron;
lastChange = "2023-02-17 07:34:05 +0000";
layers = (
{
background = {
shapes = (
{
closed = 1;
nodes = (
(56,13,o),
(67,0,o),
(91,0,cs),
(495,0,ls),
(511,0,o),
(523,13,o),
(523,34,cs),
(523,55,o),
(513,64,o),
(497,64,cs),
(140,64,l),
(184,421,l),
(467,421,ls),
(495,421,o),
(505,431,o),
(505,458,cs),
(505,477,o),
(491,484,o),
(470,484,cs),
(193,484,l),
(226,797,l),
(562,797,ls),
(590,797,o),
(599,806,o),
(599,833,cs),
(599,851,o),
(586,860,o),
(568,860,cs),
(182,860,ls),
(166,860,o),
(154,847,o),
(154,826,c),
(58,31,ls,{
name = hr00;
})
);
},
{
closed = 1;
nodes = (
(267,1007,o),
(260,988,o),
(260,973,cs),
(260,958,o),
(267,946,o),
(283,946,cs),
(501,946,ls),
(531,946,o),
(538,965,o),
(538,980,cs),
(538,995,o),
(531,1007,o),
(515,1007,cs),
(297,1007,ls,{
name = hr00;
})
);
}
);
};
layerId = master01;
shapes = (
{
ref = E;
},
{
pos = (200,0);
ref = macroncomb.case;
}
);
width = 599;
}
);
unicode = 274;
},
{
glyphname = Eogonek;
lastChange = "2023-02-17 07:34:05 +0000";
layers = (
{
background = {
shapes = (
{
closed = 1;
nodes = (
(56,13,o),
(67,0,o),
(91,0,cs),
(495,0,ls),
(511,0,o),
(523,13,o),
(523,34,cs),
(523,55,o),
(513,64,o),
(497,64,cs),
(140,64,l),
(184,421,l),
(467,421,ls),
(495,421,o),
(505,431,o),
(505,458,cs),
(505,477,o),
(491,484,o),
(470,484,cs),
(193,484,l),
(226,797,l),
(562,797,ls),
(590,797,o),
(599,806,o),
(599,833,cs),
(599,851,o),
(586,860,o),
(568,860,cs),
(182,860,ls),
(166,860,o),
(154,847,o),
(154,826,c),
(58,31,ls,{
name = hr00;
})
);
},
{
closed = 1;
nodes = (
(374,-11,o),
(342,-63,o),
(342,-113,cs),
(342,-172,o),
(390,-229,o),
(476,-229,cs),
(534,-229,o),
(619,-189,o),
(619,-156,cs),
(619,-139,o),
(611,-131,o),
(597,-131,cs),
(576,-131,o),
(541,-172,o),
(480,-172,cs,{
name = hr01;
}),
(435,-172,o),
(410,-142,o),
(410,-107,cs),
(410,-62,o),
(444,-9,o),
(516,11,c),
(448,11,l)
);
}
);
};
layerId = master01;
shapes = (
{
ref = E;
},
{
pos = (207,0);
ref = ogonekcomb;
}
);
width = 599;
}
);
unicode = 280;
},
{
glyphname = F;
lastChange = "2023-02-17 07:34:05 +0000";
layers = (
{
anchors = (
{
name = bottom;
pos = (277,0);
},
{
name = top;
pos = (277,860);
}
);
background = {
shapes = (
{
closed = 1;
nodes = (
(55,0,o),
(57,-14,o),
(94,-14,cs),
(129,-14,o),
(132,0,o),
(137,39,cs),
(185,421,l),
(501,421,ls),
(529,421,o),
(539,431,o),
(539,458,cs),
(539,477,o),
(524,484,o),
(504,484,cs),
(193,484,l),
(227,797,l),
(563,797,ls),
(591,797,o),
(599,806,o),
(599,833,cs),
(599,851,o),
(587,860,o),
(568,860,cs),
(182,860,ls),
(167,860,o),
(154,847,o),
(154,826,c),
(59,39,ls,{
name = hr00;
})
);
}
);
};
layerId = master01;
shapes = (
{
closed = 1;
nodes = (
(129,-14,o),
(132,0,o),
(137,39,cs),
(185,421,l),
(501,421,ls),
(529,421,o),
(539,431,o),
(539,458,cs),
(539,477,o),
(524,484,o),
(504,484,cs),
(193,484,l),
(227,797,l),
(563,797,ls),
(591,797,o),
(599,806,o),
(599,833,cs),
(599,851,o),
(587,860,o),
(568,860,cs),
(182,860,ls),
(167,860,o),
(154,847,o),
(154,826,c),
(59,39,ls,{
name = hr00;
}),
(55,0,o),
(57,-14,o),
(94,-14,cs)
);
}
);
width = 553;
}
);
unicode = 70;
},
{
glyphname = G;
lastChange = "2023-02-17 07:34:05 +0000";
layers = (
{
anchors = (
{
name = bottom;
pos = (301,0);
},
{
name = top;
pos = (415,860);
}
);
background = {
shapes = (
{
closed = 1;
nodes = (
(151,872,o),
(42,587,o),
(42,330,cs),
(42,137,o),
(122,-14,o),
(329,-14,cs),
(407,-14,o),
(486,15,o),
(539,70,c),
(531,17,ls),
(526,-7,o),
(550,-14,o),
(573,-14,cs),
(596,-14,o),
(609,-10,o),
(612,14,cs),
(662,421,ls),
(665,440,o),
(654,452,o),
(631,452,cs),
(328,452,ls),
(312,452,o),
(300,438,o),
(300,420,cs),
(300,399,o),
(309,389,o),
(326,389,cs),
(578,389,l),
(557,225,ls),
(545,126,o),
(444,53,o),
(337,53,cs),
(192,53,o),
(122,188,o),
(122,325,cs),
(122,524,o),
(210,811,o),
(424,811,cs),
(546,811,o),
(585,732,o),
(596,732,cs),
(616,732,o),
(641,756,o),
(641,774,cs),
(641,795,o),
(557,872,o),
(427,872,cs,{
name = hr00;
})
);
}
);
};
layerId = master01;
shapes = (
{
closed = 1;
nodes = (
(407,-14,o),
(486,15,o),
(539,70,c),
(531,17,ls),
(527,-7,o),
(550,-14,o),
(573,-14,cs),
(596,-14,o),
(609,-10,o),
(612,14,cs),
(662,421,ls),
(664,440,o),
(654,452,o),
(631,452,cs),
(328,452,ls),
(312,452,o),
(300,438,o),
(300,420,cs),
(300,399,o),
(309,389,o),
(326,389,cs),
(578,389,l),
(557,225,ls),
(544,126,o),
(444,53,o),
(337,53,cs),
(192,53,o),
(122,188,o),
(122,325,cs),
(122,524,o),
(210,811,o),
(424,811,cs),
(546,811,o),
(585,732,o),
(596,732,cs),
(616,732,o),
(641,756,o),
(641,774,cs),
(641,795,o),
(557,872,o),
(427,872,cs,{
name = hr00;
}),
(151,872,o),
(42,587,o),
(42,330,cs),
(42,137,o),
(122,-14,o),
(329,-14,cs)
);
}
);
width = 729;
}
);
unicode = 71;
},
{
glyphname = Gbreve;
lastChange = "2023-02-17 07:34:05 +0000";
layers = (
{
background = {
shapes = (
{
closed = 1;
nodes = (
(151,872,o),
(42,587,o),
(42,330,cs),
(42,137,o),
(122,-14,o),
(329,-14,cs),
(407,-14,o),
(486,15,o),
(539,70,c),
(531,17,ls),
(526,-7,o),
(550,-14,o),
(573,-14,cs),
(596,-14,o),
(609,-10,o),
(612,14,cs),
(662,421,ls),
(665,440,o),
(654,452,o),
(631,452,cs),
(328,452,ls),
(312,452,o),
(300,438,o),
(300,420,cs),
(300,399,o),
(309,389,o),
(326,389,cs),
(578,389,l),
(557,225,ls),
(545,126,o),
(444,53,o),
(337,53,cs),
(192,53,o),
(122,188,o),
(122,325,cs),
(122,524,o),
(210,811,o),
(424,811,cs),
(546,811,o),
(585,732,o),
(596,732,cs),
(616,732,o),
(641,756,o),
(641,774,cs),
(641,795,o),
(557,872,o),
(427,872,cs,{
name = hr00;
})
);
},
{
closed = 1;
nodes = (
(280,1071,o),
(275,1051,o),
(275,1034,cs),
(275,986,o),
(315,903,o),
(381,903,cs),
(487,903,o),
(550,1027,o),
(550,1050,cs),
(550,1062,o),
(542,1071,o),
(530,1071,cs),
(495,1071,o),
(459,974,o),
(396,974,cs),
(329,974,o),
(341,1071,o),
(297,1071,cs,{
name = hr00;
})
);
}
);
};
layerId = master01;
shapes = (
{
ref = G;
},
{
pos = (227,0);
ref = brevecomb.case;
}
);
width = 729;
}
);
unicode = 286;
},
{
glyphname = Gcircumflex;
lastChange = "2023-02-17 07:34:05 +0000";
layers = (
{
background = {
shapes = (
{
closed = 1;
nodes = (
(151,872,o),
(42,587,o),
(42,330,cs),
(42,137,o),
(122,-14,o),
(329,-14,cs),
(407,-14,o),
(486,15,o),
(539,70,c),
(531,17,ls),
(526,-7,o),
(550,-14,o),
(573,-14,cs),
(596,-14,o),
(609,-10,o),
(612,14,cs),
(662,421,ls),
(665,440,o),
(654,452,o),
(631,452,cs),
(328,452,ls),
(312,452,o),
(300,438,o),
(300,420,cs),
(300,399,o),
(309,389,o),
(326,389,cs),
(578,389,l),
(557,225,ls),
(545,126,o),
(444,53,o),
(337,53,cs),
(192,53,o),
(122,188,o),
(122,325,cs),
(122,524,o),
(210,811,o),
(424,811,cs),
(546,811,o),
(585,732,o),
(596,732,cs),
(616,732,o),
(641,756,o),
(641,774,cs),
(641,795,o),
(557,872,o),
(427,872,cs,{
name = hr00;
})
);
},
{
closed = 1;
nodes = (
(513,913,o),
(517,910,o),
(525,910,cs),
(538,910,o),
(554,924,o),
(554,940,cs),
(554,943,o),
(553,947,o),
(548,955,cs),
(477,1063,ls),
(467,1078,o),
(457,1086,o),
(438,1086,cs),
(418,1086,o),
(404,1073,o),
(385,1055,cs),
(278,950,ls),
(275,947,o),
(274,942,o),
(274,937,cs),
(274,923,o),
(284,911,o),
(298,911,cs,{
name = hr01;
}),
(304,911,o),
(308,912,o),
(313,916,cs),
(433,1002,l),
(504,923,ls)
);
}
);
};
layerId = master01;
shapes = (
{
ref = G;
},
{
pos = (215,0);
ref = circumflexcomb.case;
}
);
width = 729;
}
);
unicode = 284;
},
{
glyphname = Gcommaaccent;
lastChange = "2023-02-17 07:34:05 +0000";
layers = (
{
background = {
shapes = (
{
closed = 1;
nodes = (
(151,872,o),
(42,587,o),
(42,330,cs),
(42,137,o),
(122,-14,o),
(329,-14,cs),
(407,-14,o),
(486,15,o),
(539,70,c),
(531,17,ls),
(526,-7,o),
(550,-14,o),
(573,-14,cs),
(596,-14,o),
(609,-10,o),
(612,14,cs),
(662,421,ls),
(665,440,o),
(654,452,o),
(631,452,cs),
(328,452,ls),
(312,452,o),
(300,438,o),
(300,420,cs),
(300,399,o),
(309,389,o),
(326,389,cs),
(578,389,l),
(557,225,ls),
(545,126,o),
(444,53,o),
(337,53,cs),
(192,53,o),
(122,188,o),
(122,325,cs),
(122,524,o),
(210,811,o),
(424,811,cs),
(546,811,o),
(585,732,o),
(596,732,cs),
(616,732,o),
(641,756,o),
(641,774,cs),
(641,795,o),
(557,872,o),
(427,872,cs,{
name = hr00;
})
);
},
{
closed = 1;
nodes = (
(272,-311,o),
(296,-307,o),
(303,-287,cs),
(348,-157,o),
(361,-117,o),
(361,-100,cs),
(361,-78,o),
(341,-70,o),
(323,-70,cs),
(304,-70,o),
(278,-74,o),
(272,-109,cs),
(245,-267,o),
(241,-289,o),
(241,-293,cs),
(241,-307,o),
(249,-311,o),
(264,-311,cs,{
name = hr00;
})
);
}
);
};
layerId = master01;
shapes = (
{
ref = G;
},
{
pos = (185,0);
ref = commaaccentcomb;
}
);
width = 729;
}
);
unicode = 290;
},
{
glyphname = Gdotaccent;
lastChange = "2023-02-17 07:34:05 +0000";
layers = (
{
background = {
shapes = (
{
closed = 1;
nodes = (
(151,872,o),
(42,587,o),
(42,330,cs),
(42,137,o),
(122,-14,o),
(329,-14,cs),
(407,-14,o),
(486,15,o),
(539,70,c),
(531,17,ls),
(526,-7,o),
(550,-14,o),
(573,-14,cs),
(596,-14,o),
(609,-10,o),
(612,14,cs),
(662,421,ls),
(665,440,o),
(654,452,o),
(631,452,cs),
(328,452,ls),
(312,452,o),
(300,438,o),
(300,420,cs),
(300,399,o),
(309,389,o),
(326,389,cs),
(578,389,l),
(557,225,ls),
(545,126,o),
(444,53,o),
(337,53,cs),
(192,53,o),
(122,188,o),
(122,325,cs),
(122,524,o),
(210,811,o),
(424,811,cs),
(546,811,o),
(585,732,o),
(596,732,cs),
(616,732,o),
(641,756,o),
(641,774,cs),
(641,795,o),
(557,872,o),
(427,872,cs,{
name = hr00;
})
);
},
{
closed = 1;
nodes = (
(465,1013,o),
(455,1029,o),
(420,1029,cs),
(374,1029,o),
(363,999,o),
(363,968,cs),
(363,947,o),
(373,930,o),
(408,930,cs),
(454,930,o),
(465,961,o),
(465,992,cs,{
name = hr00;
})
);
}
);
};
layerId = master01;
shapes = (
{
ref = G;
},
{
pos = (314,0);
ref = dotaccentcomb.case;
}
);
width = 729;
}
);
unicode = 288;
},
{
glyphname = H;
lastChange = "2023-02-17 07:34:05 +0000";
layers = (
{
anchors = (
{
name = bottom;
pos = (382,0);
},
{
name = center;
pos = (382,430);
},
{
name = top;
pos = (451,860);
},
{
name = topleft;
pos = (20,860);
}
);
background = {
shapes = (
{
closed = 1;
nodes = (
(700,780,o),
(708,846,o),
(708,848,cs),
(708,868,o),
(693,872,o),
(675,872,cs),
(654,872,o),
(633,867,o),
(630,840,cs),
(612,698,o),
(599,588,o),
(587,491,c),
(192,491,l),
(235,843,o),
(236,846,o),
(236,848,cs),
(236,868,o),
(221,872,o),
(203,872,cs),
(182,872,o),
(161,867,o),
(158,840,cs),
(57,17,o),
(57,15,o),
(57,14,cs),
(57,-11,o),
(75,-14,o),
(97,-14,cs),
(115,-14,o),
(131,-7,o),
(134,18,cs),
(185,428,l),
(579,428,l),
(530,25,o),
(529,15,o),
(529,14,cs),
(529,-11,o),
(547,-14,o),
(569,-14,cs),
(587,-14,o),
(603,-7,o),
(606,18,cs,{
name = hr00;
})
);
}
);
};
layerId = master01;
shapes = (
{
closed = 1;
nodes = (
(115,-14,o),
(131,-7,o),
(134,18,cs),
(185,428,l),
(579,428,l),
(530,25,o),
(529,15,o),
(529,14,cs),
(529,-11,o),
(547,-14,o),
(569,-14,cs),
(587,-14,o),
(603,-7,o),
(606,18,cs,{
name = hr00;
}),
(700,780,o),
(708,846,o),
(708,848,cs),
(708,868,o),
(693,872,o),
(675,872,cs),
(654,872,o),
(633,867,o),
(630,840,cs),
(612,698,o),
(599,588,o),
(587,491,c),
(192,491,l),
(235,843,o),
(236,846,o),
(236,848,cs),
(236,868,o),
(221,872,o),
(203,872,cs),
(182,872,o),
(161,867,o),
(158,840,cs),
(57,17,o),
(57,15,o),
(57,14,cs),
(57,-11,o),
(75,-14,o),
(97,-14,cs)
);
}
);
width = 764;
}
);
unicode = 72;
},
{
glyphname = Hbar;
lastChange = "2023-02-17 07:34:05 +0000";
layers = (
{
background = {
shapes = (
{
closed = 1;
nodes = (
(700,780,o),
(708,846,o),
(708,848,cs),
(708,868,o),
(693,872,o),
(675,872,cs),
(654,872,o),
(633,867,o),
(630,840,cs),
(612,698,o),
(599,588,o),
(587,491,c),
(192,491,l),
(235,843,o),
(236,846,o),
(236,848,cs),
(236,868,o),
(221,872,o),
(203,872,cs),
(182,872,o),
(161,867,o),
(158,840,cs),
(57,17,o),
(57,15,o),
(57,14,cs),
(57,-11,o),
(75,-14,o),
(97,-14,cs),
(115,-14,o),
(131,-7,o),
(134,18,cs),
(185,428,l),
(579,428,l),
(530,25,o),
(529,15,o),
(529,14,cs),
(529,-11,o),
(547,-14,o),
(569,-14,cs),
(587,-14,o),
(603,-7,o),
(606,18,cs,{
name = hr00;
})
);
},
{
closed = 1;
nodes = (
(72,699,o),
(59,679,o),
(59,663,cs),
(59,648,o),
(72,635,o),
(93,635,cs),
(717,635,ls),
(747,635,o),
(765,652,o),
(765,668,cs),
(765,684,o),
(750,699,o),
(723,699,cs),
(105,699,ls,{
name = hr00;
})
);
}
);
};
layerId = master01;
shapes = (
{
closed = 1;
nodes = (
(717,635,ls),
(747,635,o),
(765,652,o),
(765,668,cs),
(765,684,o),
(750,699,o),
(723,699,cs),
(105,699,ls,{
name = hr00;
}),
(72,699,o),
(59,679,o),
(59,663,cs),
(59,648,o),
(72,635,o),
(93,635,cs)
);
},
{
alignment = -1;
ref = H;
}
);
width = 764;
}
);
unicode = 294;
},
{
glyphname = Hcircumflex;
lastChange = "2023-02-17 07:34:05 +0000";
layers = (
{
background = {
shapes = (
{
closed = 1;
nodes = (
(700,780,o),
(708,846,o),
(708,848,cs),
(708,868,o),
(693,872,o),
(675,872,cs),
(654,872,o),
(633,867,o),
(630,840,cs),
(612,698,o),
(599,588,o),
(587,491,c),
(192,491,l),
(235,843,o),
(236,846,o),
(236,848,cs),
(236,868,o),
(221,872,o),
(203,872,cs),
(182,872,o),
(161,867,o),
(158,840,cs),
(57,17,o),
(57,15,o),
(57,14,cs),
(57,-11,o),
(75,-14,o),
(97,-14,cs),
(115,-14,o),
(131,-7,o),
(134,18,cs),
(185,428,l),
(579,428,l),
(530,25,o),
(529,15,o),
(529,14,cs),
(529,-11,o),
(547,-14,o),
(569,-14,cs),
(587,-14,o),
(603,-7,o),
(606,18,cs,{
name = hr00;
})
);
},
{
closed = 1;
nodes = (
(548,913,o),
(552,910,o),
(560,910,cs),
(573,910,o),
(589,924,o),
(589,940,cs),
(589,943,o),
(588,947,o),
(583,955,cs),
(512,1063,ls),
(502,1078,o),
(492,1086,o),
(473,1086,cs),
(453,1086,o),
(439,1073,o),
(420,1055,cs),
(313,950,ls),
(310,947,o),
(309,942,o),
(309,937,cs),
(309,923,o),
(319,911,o),
(333,911,cs,{
name = hr01;
}),
(339,911,o),
(343,912,o),
(348,916,cs),
(468,1002,l),
(539,923,ls)
);
}
);
};
layerId = master01;
shapes = (
{
ref = H;
},
{
pos = (251,0);
ref = circumflexcomb.case;
}
);
width = 764;
}
);
unicode = 292;
},
{
glyphname = I;
lastChange = "2023-02-17 07:34:05 +0000";
layers = (
{
anchors = (
{
name = bottom;
pos = (147,0);
},
{
name = ogonek;
pos = (236,11);
},
{
name = top;
pos = (217,860);
},
{
name = topleft;
pos = (20,860);
}
);
background = {
shapes = (
{
closed = 1;
nodes = (
(228,780,o),
(236,846,o),
(236,848,cs),
(236,868,o),
(221,872,o),
(203,872,cs),
(182,872,o),
(161,867,o),
(158,840,cs),
(57,17,o),
(57,15,o),
(57,14,cs),
(57,-11,o),
(75,-14,o),
(97,-14,cs),
(115,-14,o),
(131,-7,o),
(134,18,cs,{
name = hr00;
})
);
}
);
};
layerId = master01;
shapes = (
{
closed = 1;
nodes = (
(115,-14,o),
(131,-7,o),
(134,18,cs,{
name = hr00;
}),
(228,780,o),
(236,846,o),
(236,848,cs),
(236,868,o),
(221,872,o),
(203,872,cs),
(182,872,o),
(161,867,o),
(158,840,cs),
(57,17,o),
(57,15,o),
(57,14,cs),
(57,-11,o),
(75,-14,o),
(97,-14,cs)
);
}
);
width = 293;
}
);
unicode = 73;
},
{
glyphname = IJ;
lastChange = "2023-02-17 07:34:05 +0000";
layers = (
{
background = {
shapes = (
{
closed = 1;
nodes = (
(228,780,o),
(236,846,o),
(236,848,cs),
(236,868,o),
(221,872,o),
(203,872,cs),
(182,872,o),
(161,867,o),
(158,840,cs),
(57,17,o),
(57,15,o),
(57,14,cs),
(57,-11,o),
(75,-14,o),
(97,-14,cs),
(115,-14,o),
(131,-7,o),
(134,18,cs,{
name = hr00;
})
);
},
{
closed = 1;
nodes = (
(668,834,ls),
(668,850,o),
(657,860,o),
(636,860,cs),
(335,860,ls),
(320,860,o),
(307,847,o),
(307,826,cs),
(307,805,o),
(317,795,o),
(334,795,cs),
(587,795,l),
(520,209,ls),
(500,43,o),
(461,-69,o),
(282,-69,cs),
(238,-69,o),
(236,-59,o),
(210,-59,cs),
(192,-59,o),
(180,-74,o),
(180,-90,cs),
(180,-130,o),
(245,-141,o),
(289,-141,cs),
(507,-141,o),
(572,-14,o),
(595,189,cs),
(668,829,l,{
name = hr00;
})
);
}
);
};
layerId = master01;
shapes = (
{
ref = I;
},
{
pos = (293,0);
ref = J;
}
);
width = 724;
}
);
unicode = 306;
},
{
glyphname = Iacute;
lastChange = "2023-02-17 07:34:05 +0000";
layers = (
{
background = {
shapes = (
{
closed = 1;
nodes = (
(228,780,o),
(236,846,o),
(236,848,cs),
(236,868,o),
(221,872,o),
(203,872,cs),
(182,872,o),
(161,867,o),
(158,840,cs),
(57,17,o),
(57,15,o),
(57,14,cs),
(57,-11,o),
(75,-14,o),
(97,-14,cs),
(115,-14,o),
(131,-7,o),
(134,18,cs,{
name = hr00;
})
);
},
{
closed = 1;
nodes = (
(97,942,o),
(92,934,o),
(92,926,cs),
(92,913,o),
(102,900,o),
(117,900,cs),
(120,900,o),
(122,900,o),
(126,902,cs),
(314,1001,ls),
(331,1010,o),
(334,1016,o),
(334,1031,cs),
(334,1049,o),
(319,1074,o),
(294,1074,cs),
(291,1074,o),
(287,1073,o),
(283,1071,cs),
(100,944,ls,{
name = hr00;
})
);
}
);
};
layerId = master01;
shapes = (
{
ref = I;
},
{
pos = (64,0);
ref = acutecomb.case;
}
);
width = 293;
}
);
unicode = 205;
},
{
glyphname = Ibreve;
lastChange = "2023-02-17 07:34:05 +0000";
layers = (
{
background = {
shapes = (
{
closed = 1;
nodes = (
(228,780,o),
(236,846,o),
(236,848,cs),
(236,868,o),
(221,872,o),
(203,872,cs),
(182,872,o),
(161,867,o),
(158,840,cs),
(57,17,o),
(57,15,o),
(57,14,cs),
(57,-11,o),
(75,-14,o),
(97,-14,cs),
(115,-14,o),
(131,-7,o),
(134,18,cs,{
name = hr00;
})
);
},
{
closed = 1;
nodes = (
(103,1071,o),
(98,1051,o),
(98,1034,cs),
(98,986,o),
(138,903,o),
(204,903,cs),
(310,903,o),
(373,1027,o),
(373,1050,cs),
(373,1062,o),
(365,1071,o),
(353,1071,cs),
(318,1071,o),
(282,974,o),
(219,974,cs),
(152,974,o),
(164,1071,o),
(120,1071,cs,{
name = hr00;
})
);
}
);
};
layerId = master01;
shapes = (
{
ref = I;
},
{
pos = (29,0);
ref = brevecomb.case;
}
);
width = 293;
}
);
unicode = 300;
},
{
glyphname = Icircumflex;
lastChange = "2023-02-17 07:34:05 +0000";
layers = (
{
background = {
shapes = (
{
closed = 1;
nodes = (
(228,780,o),
(236,846,o),
(236,848,cs),
(236,868,o),
(221,872,o),
(203,872,cs),
(182,872,o),
(161,867,o),
(158,840,cs),
(57,17,o),
(57,15,o),
(57,14,cs),
(57,-11,o),
(75,-14,o),
(97,-14,cs),
(115,-14,o),
(131,-7,o),
(134,18,cs,{
name = hr00;
})
);
},
{
closed = 1;
nodes = (
(303,913,o),
(307,910,o),
(315,910,cs),
(328,910,o),
(344,924,o),
(344,940,cs),
(344,943,o),
(343,947,o),
(338,955,cs),
(267,1063,ls),
(257,1078,o),
(247,1086,o),
(228,1086,cs),
(208,1086,o),
(194,1073,o),
(175,1055,cs),
(68,950,ls),
(65,947,o),
(64,942,o),
(64,937,cs),
(64,923,o),
(74,911,o),
(88,911,cs,{
name = hr01;
}),
(94,911,o),
(98,912,o),
(103,916,cs),
(223,1002,l),
(294,923,ls)
);
}
);
};
layerId = master01;
shapes = (
{
ref = I;
},
{
pos = (17,0);
ref = circumflexcomb.case;
}
);
width = 293;
}
);
unicode = 206;
},
{
glyphname = Idieresis;
lastChange = "2023-02-17 07:34:05 +0000";
layers = (
{
background = {
shapes = (
{
closed = 1;
nodes = (
(228,780,o),
(236,846,o),
(236,848,cs),
(236,868,o),
(221,872,o),
(203,872,cs),
(182,872,o),
(161,867,o),
(158,840,cs),
(57,17,o),
(57,15,o),
(57,14,cs),
(57,-11,o),
(75,-14,o),
(97,-14,cs),
(115,-14,o),
(131,-7,o),
(134,18,cs,{
name = hr00;
})
);
},
{
closed = 1;
nodes = (
(170,1013,o),
(160,1029,o),
(125,1029,cs),
(79,1029,o),
(68,999,o),
(68,968,cs),
(68,947,o),
(78,930,o),
(113,930,cs),
(159,930,o),
(170,961,o),
(170,992,cs,{
name = hr00;
})
);
},
{
closed = 1;
nodes = (
(362,1013,o),
(352,1029,o),
(317,1029,cs),
(271,1029,o),
(260,999,o),
(260,968,cs),
(260,947,o),
(270,930,o),
(305,930,cs),
(351,930,o),
(362,961,o),
(362,992,cs)
);
}
);
};
layerId = master01;
shapes = (
{
ref = I;
},
{
pos = (20,0);
ref = dieresiscomb.case;
}
);
width = 293;
}
);
unicode = 207;
},
{
glyphname = Idotaccent;
lastChange = "2023-02-17 07:34:05 +0000";
layers = (
{
background = {
shapes = (
{
closed = 1;
nodes = (
(228,780,o),
(236,846,o),
(236,848,cs),
(236,868,o),
(221,872,o),
(203,872,cs),
(182,872,o),
(161,867,o),
(158,840,cs),
(57,17,o),
(57,15,o),
(57,14,cs),
(57,-11,o),
(75,-14,o),
(97,-14,cs),
(115,-14,o),
(131,-7,o),
(134,18,cs,{
name = hr00;
})
);
},
{
closed = 1;
nodes = (
(266,1013,o),
(256,1029,o),
(221,1029,cs),
(175,1029,o),
(164,999,o),
(164,968,cs),
(164,947,o),
(174,930,o),
(209,930,cs),
(255,930,o),
(266,961,o),
(266,992,cs,{
name = hr00;
})
);
}
);
};
layerId = master01;
shapes = (
{
ref = I;
},
{
pos = (116,0);
ref = dotaccentcomb.case;
}
);
width = 293;
}
);
unicode = 304;
},
{
glyphname = Igrave;
lastChange = "2023-02-17 07:34:05 +0000";
layers = (
{
background = {
shapes = (
{
closed = 1;
nodes = (
(228,780,o),
(236,846,o),
(236,848,cs),
(236,868,o),
(221,872,o),
(203,872,cs),
(182,872,o),
(161,867,o),
(158,840,cs),
(57,17,o),
(57,15,o),
(57,14,cs),
(57,-11,o),
(75,-14,o),
(97,-14,cs),
(115,-14,o),
(131,-7,o),
(134,18,cs,{
name = hr00;
})
);
},
{
closed = 1;
nodes = (
(133,1074,o),
(127,1074,o),
(124,1074,cs),
(101,1074,o),
(86,1049,o),
(86,1031,cs),
(86,1016,o),
(89,1010,o),
(106,1001,cs),
(294,902,ls),
(298,900,o),
(300,900,o),
(303,900,cs),
(318,900,o),
(328,913,o),
(328,926,cs),
(328,934,o),
(323,942,o),
(320,944,cs),
(137,1071,ls,{
name = hr00;
})
);
}
);
};
layerId = master01;
shapes = (
{
ref = I;
},
{
pos = (64,0);
ref = gravecomb.case;
}
);
width = 293;
}
);
unicode = 204;
},
{
glyphname = Imacron;
lastChange = "2023-02-17 07:34:05 +0000";
layers = (
{
background = {
shapes = (
{
closed = 1;
nodes = (
(228,780,o),
(236,846,o),
(236,848,cs),
(236,868,o),
(221,872,o),
(203,872,cs),
(182,872,o),
(161,867,o),
(158,840,cs),
(57,17,o),
(57,15,o),
(57,14,cs),
(57,-11,o),
(75,-14,o),
(97,-14,cs),
(115,-14,o),
(131,-7,o),
(134,18,cs,{
name = hr00;
})
);
},
{
closed = 1;
nodes = (
(81,1007,o),
(74,988,o),
(74,973,cs),
(74,958,o),
(81,946,o),
(97,946,cs),
(315,946,ls),
(345,946,o),
(352,965,o),
(352,980,cs),
(352,995,o),
(345,1007,o),
(329,1007,cs),
(111,1007,ls,{
name = hr00;
})
);
}
);
};
layerId = master01;
shapes = (
{
ref = I;
},
{
pos = (13,0);
ref = macroncomb.case;
}
);
width = 293;
}
);
unicode = 298;
},
{
glyphname = Iogonek;
lastChange = "2023-02-17 07:34:05 +0000";
layers = (
{
background = {
shapes = (
{
closed = 1;
nodes = (
(228,780,o),
(236,846,o),
(236,848,cs),
(236,868,o),
(221,872,o),
(203,872,cs),
(182,872,o),
(161,867,o),
(158,840,cs),
(57,17,o),
(57,15,o),
(57,14,cs),
(57,-11,o),
(75,-14,o),
(97,-14,cs),
(115,-14,o),
(131,-7,o),
(134,18,cs,{
name = hr00;
})
);
},
{
closed = 1;
nodes = (
(-9,-11,o),
(-41,-63,o),
(-41,-113,cs),
(-41,-172,o),
(7,-229,o),
(93,-229,cs),
(151,-229,o),
(236,-189,o),
(236,-156,cs),
(236,-139,o),
(228,-131,o),
(214,-131,cs),
(193,-131,o),
(158,-172,o),
(97,-172,cs,{
name = hr01;
}),
(52,-172,o),
(27,-142,o),
(27,-107,cs),
(27,-62,o),
(61,-9,o),
(133,11,c),
(65,11,l)
);
}
);
};
layerId = master01;
shapes = (
{
ref = I;
},
{
pos = (-176,0);
ref = ogonekcomb;
}
);
width = 293;
}
);
unicode = 302;
},
{
glyphname = Itilde;
lastChange = "2023-02-17 07:34:05 +0000";
layers = (
{
background = {
shapes = (
{
closed = 1;
nodes = (
(228,780,o),
(236,846,o),
(236,848,cs),
(236,868,o),
(221,872,o),
(203,872,cs),
(182,872,o),
(161,867,o),
(158,840,cs),
(57,17,o),
(57,15,o),
(57,14,cs),
(57,-11,o),
(75,-14,o),
(97,-14,cs),
(115,-14,o),
(131,-7,o),
(134,18,cs,{
name = hr00;
})
);
},
{
closed = 1;
nodes = (
(234,991,o),
(198,1031,o),
(159,1031,cs,{
name = hr01;
}),
(106,1031,o),
(52,966,o),
(52,953,cs),
(52,936,o),
(60,922,o),
(81,922,cs,{
name = hr02;
}),
(92,922,o),
(118,962,o),
(157,962,cs,{
name = hr03;
}),
(197,962,o),
(233,922,o),
(272,922,cs,{
name = hr04;
}),
(325,922,o),
(379,987,o),
(379,1000,cs),
(379,1017,o),
(371,1031,o),
(350,1031,cs,{
name = hr05;
}),
(339,1031,o),
(313,991,o),
(274,991,cs)
);
}
);
};
layerId = master01;
shapes = (
{
ref = I;
},
{
pos = (3,0);
ref = tildecomb.case;
}
);
width = 293;
}
);
unicode = 296;
},
{
glyphname = J;
lastChange = "2023-02-17 07:34:05 +0000";
layers = (
{
anchors = (
{
name = bottom;
pos = (216,0);
},
{
name = top;
pos = (216,860);
}
);
background = {
shapes = (
{
closed = 1;
nodes = (
(375,834,ls),
(375,850,o),
(364,860,o),
(343,860,cs),
(42,860,ls),
(27,860,o),
(14,847,o),
(14,826,cs),
(14,805,o),
(24,795,o),
(41,795,cs),
(294,795,l),
(227,209,ls),
(207,43,o),
(168,-69,o),
(-11,-69,cs),
(-55,-69,o),
(-57,-59,o),
(-83,-59,cs),
(-101,-59,o),
(-113,-74,o),
(-113,-90,cs),
(-113,-130,o),
(-48,-141,o),
(-4,-141,cs),
(214,-141,o),
(279,-14,o),
(302,189,cs),
(375,829,l,{
name = hr00;
})
);
}
);
};
layerId = master01;
shapes = (
{
closed = 1;
nodes = (
(214,-141,o),
(279,-14,o),
(302,189,cs),
(375,829,l,{
name = hr00;
}),
(375,834,ls),
(375,850,o),
(364,860,o),
(343,860,cs),
(42,860,ls),
(27,860,o),
(14,847,o),
(14,826,cs),
(14,805,o),
(24,795,o),
(41,795,cs),
(294,795,l),
(227,209,ls),
(207,43,o),
(168,-69,o),
(-11,-69,cs),
(-55,-69,o),
(-57,-59,o),
(-83,-59,cs),
(-101,-59,o),
(-113,-74,o),
(-113,-90,cs),
(-113,-130,o),
(-48,-141,o),
(-4,-141,cs)
);
}
);
width = 431;
}
);
unicode = 74;
},
{
glyphname = Jcircumflex;
lastChange = "2023-02-17 07:34:05 +0000";
layers = (
{
background = {
shapes = (
{
closed = 1;
nodes = (
(375,834,ls),
(375,850,o),
(364,860,o),
(343,860,cs),
(42,860,ls),
(27,860,o),
(14,847,o),
(14,826,cs),
(14,805,o),
(24,795,o),
(41,795,cs),
(294,795,l),
(227,209,ls),
(207,43,o),
(168,-69,o),
(-11,-69,cs),
(-55,-69,o),
(-57,-59,o),
(-83,-59,cs),
(-101,-59,o),
(-113,-74,o),
(-113,-90,cs),
(-113,-130,o),
(-48,-141,o),
(-4,-141,cs),
(214,-141,o),
(279,-14,o),
(302,189,cs),
(375,829,l,{
name = hr00;
})
);
},
{
closed = 1;
nodes = (
(314,913,o),
(318,910,o),
(326,910,cs),
(339,910,o),
(355,924,o),
(355,940,cs),
(355,943,o),
(354,947,o),
(349,955,cs),
(278,1063,ls),
(268,1078,o),
(258,1086,o),
(239,1086,cs),
(219,1086,o),
(205,1073,o),
(186,1055,cs),
(79,950,ls),
(76,947,o),
(75,942,o),
(75,937,cs),
(75,923,o),
(85,911,o),
(99,911,cs,{
name = hr01;
}),
(105,911,o),
(109,912,o),
(114,916,cs),
(234,1002,l),
(305,923,ls)
);
}
);
};
layerId = master01;
shapes = (
{
ref = J;
},
{
pos = (16,0);
ref = circumflexcomb.case;
}
);
width = 431;
}
);
unicode = 308;
},
{
glyphname = K;
lastChange = "2023-02-17 07:34:05 +0000";
layers = (
{
anchors = (
{
name = bottom;
pos = (292,0);
},
{
name = top;
pos = (317,860);
}
);
background = {
shapes = (
{
closed = 1;
nodes = (
(154,186,o),
(171,320,o),
(184,427,c),
(232,427,ls),
(378,427,o),
(386,351,o),
(433,214,cs),
(503,8,ls),
(509,-10,o),
(519,-14,o),
(540,-14,cs),
(563,-14,o),
(581,-4,o),
(581,13,cs),
(581,15,o),
(581,18,o),
(580,21,cs),
(518,202,ls),
(484,301,o),
(462,417,o),
(364,458,c),
(365,465,l),
(496,531,o),
(605,697,o),
(605,841,cs),
(605,862,o),
(591,872,o),
(570,872,cs),
(543,872,o),
(529,864,o),
(529,841,cs),
(529,707,o),
(389,486,o),
(239,486,cs),
(192,486,l),
(231,808,o),
(236,846,o),
(236,848,cs),
(236,868,o),
(221,872,o),
(203,872,cs),
(182,872,o),
(161,867,o),
(158,840,cs),
(57,17,o),
(57,15,o),
(57,14,cs),
(57,-11,o),
(75,-14,o),
(97,-14,cs),
(115,-14,o),
(131,-7,o),
(134,18,cs,{
name = hr00;
})
);
}
);
};
layerId = master01;
shapes = (
{
closed = 1;
nodes = (
(115,-14,o),
(131,-7,o),
(134,18,cs,{
name = hr00;
}),
(154,186,o),
(171,320,o),
(184,427,c),
(232,427,ls),
(378,427,o),
(386,351,o),
(433,214,cs),
(503,8,ls),
(509,-10,o),
(519,-14,o),
(540,-14,cs),
(563,-14,o),
(581,-4,o),
(581,13,cs),
(581,15,o),
(581,18,o),
(580,21,cs),
(518,202,ls),
(484,301,o),
(462,417,o),
(364,458,c),
(365,465,l),
(496,531,o),
(605,697,o),
(605,841,cs),
(605,862,o),
(591,872,o),
(570,872,cs),
(543,872,o),
(529,864,o),
(529,841,cs),
(529,707,o),
(389,486,o),
(239,486,cs),
(192,486,l),
(231,808,o),
(236,846,o),
(236,848,cs),
(236,868,o),
(221,872,o),
(203,872,cs),
(182,872,o),
(161,867,o),
(158,840,cs),
(57,17,o),
(57,15,o),
(57,14,cs),
(57,-11,o),
(75,-14,o),
(97,-14,cs)
);
}
);
width = 633;
}
);
unicode = 75;
},
{
glyphname = Kcommaaccent;
lastChange = "2023-02-17 07:34:05 +0000";
layers = (
{
background = {
shapes = (
{
closed = 1;
nodes = (
(154,186,o),
(171,320,o),
(184,427,c),
(232,427,ls),
(378,427,o),
(386,351,o),
(433,214,cs),
(503,8,ls),
(509,-10,o),
(519,-14,o),
(540,-14,cs),
(563,-14,o),
(581,-4,o),
(581,13,cs),
(581,15,o),
(581,18,o),
(580,21,cs),
(518,202,ls),
(484,301,o),
(462,417,o),
(364,458,c),
(365,465,l),
(496,531,o),
(605,697,o),
(605,841,cs),
(605,862,o),
(591,872,o),
(570,872,cs),
(543,872,o),
(529,864,o),
(529,841,cs),
(529,707,o),
(389,486,o),
(239,486,cs),
(192,486,l),
(231,808,o),
(236,846,o),
(236,848,cs),
(236,868,o),
(221,872,o),
(203,872,cs),
(182,872,o),
(161,867,o),
(158,840,cs),
(57,17,o),
(57,15,o),
(57,14,cs),
(57,-11,o),
(75,-14,o),
(97,-14,cs),
(115,-14,o),
(131,-7,o),
(134,18,cs,{
name = hr00;
})
);
},
{
closed = 1;
nodes = (
(232,-311,o),
(256,-307,o),
(263,-287,cs),
(308,-157,o),
(321,-117,o),
(321,-100,cs),
(321,-78,o),
(301,-70,o),
(283,-70,cs),
(264,-70,o),
(238,-74,o),
(232,-109,cs),
(205,-267,o),
(201,-289,o),
(201,-293,cs),
(201,-307,o),
(209,-311,o),
(224,-311,cs,{
name = hr00;
})
);
}
);
};
layerId = master01;
shapes = (
{
ref = K;
},
{
pos = (176,0);
ref = commaaccentcomb;
}
);
width = 633;
}
);
unicode = 310;
},
{
glyphname = L;
kernRight = L;
lastChange = "2023-02-17 07:34:05 +0000";
layers = (
{
anchors = (
{
name = bottom;
pos = (242,0);
},
{
name = center;
pos = (262,430);
},
{
name = top;
pos = (224,860);
},
{
name = topright;
pos = (469,860);
}
);
background = {
shapes = (
{
closed = 1;
nodes = (
(230,847,ls),
(230,868,o),
(214,872,o),
(197,872,cs),
(176,872,o),
(155,867,o),
(153,840,cs),
(56,31,l),
(56,25,ls),
(56,10,o),
(67,0,o),
(88,0,cs),
(489,0,ls),
(504,0,o),
(517,13,o),
(517,34,cs),
(517,55,o),
(507,64,o),
(490,64,cs),
(137,64,l),
(230,840,l,{
name = hr00;
})
);
}
);
};
layerId = master01;
shapes = (
{
closed = 1;
nodes = (
(489,0,ls),
(504,0,o),
(517,13,o),
(517,34,cs),
(517,55,o),
(507,64,o),
(490,64,cs),
(137,64,l),
(230,840,l,{
name = hr00;
}),
(230,847,ls),
(230,868,o),
(214,872,o),
(197,872,cs),
(176,872,o),
(156,867,o),
(153,840,cs),
(56,31,l),
(56,25,ls),
(56,10,o),
(67,0,o),
(88,0,cs)
);
}
);
width = 524;
}
);
unicode = 76;
},
{
glyphname = Lacute;
kernRight = L;
lastChange = "2023-02-17 07:34:05 +0000";
layers = (
{
background = {
shapes = (
{
closed = 1;
nodes = (
(230,847,ls),
(230,868,o),
(214,872,o),
(197,872,cs),
(176,872,o),
(155,867,o),
(153,840,cs),
(56,31,l),
(56,25,ls),
(56,10,o),
(67,0,o),
(88,0,cs),
(489,0,ls),
(504,0,o),
(517,13,o),
(517,34,cs),
(517,55,o),
(507,64,o),
(490,64,cs),
(137,64,l),
(230,840,l,{
name = hr00;
})
);
},
{
closed = 1;
nodes = (
(108,942,o),
(103,934,o),
(103,926,cs),
(103,913,o),
(113,900,o),
(128,900,cs),
(131,900,o),
(133,900,o),
(137,902,cs),
(325,1001,ls),
(342,1010,o),
(345,1016,o),
(345,1031,cs),
(345,1049,o),
(330,1074,o),
(305,1074,cs),
(302,1074,o),
(298,1073,o),
(294,1071,cs),
(111,944,ls,{
name = hr00;
})
);
}
);
};
layerId = master01;
shapes = (
{
ref = L;
},
{
pos = (71,0);
ref = acutecomb.case;
}
);
width = 524;
}
);
unicode = 313;
},
{
glyphname = Lcaron;
kernRight = L;
lastChange = "2023-02-17 07:34:05 +0000";
layers = (
{
background = {
shapes = (
{
closed = 1;
nodes = (
(230,847,ls),
(230,868,o),
(214,872,o),
(197,872,cs),
(176,872,o),
(155,867,o),
(153,840,cs),
(56,31,l),
(56,25,ls),
(56,10,o),
(67,0,o),
(88,0,cs),
(489,0,ls),
(504,0,o),
(517,13,o),
(517,34,cs),
(517,55,o),
(507,64,o),
(490,64,cs),
(137,64,l),
(230,840,l,{
name = hr00;
})
);
},
{
closed = 1;
nodes = (
(366,689,o),
(390,693,o),
(397,713,cs),
(442,843,o),
(455,883,o),
(455,900,cs),
(455,922,o),
(435,930,o),
(417,930,cs),
(398,930,o),
(372,926,o),
(366,891,cs),
(339,733,o),
(335,711,o),
(335,707,cs),
(335,693,o),
(343,689,o),
(358,689,cs,{
name = hr00;
})
);
}
);
};
layerId = master01;
shapes = (
{
ref = L;
},
{
pos = (-1,0);
ref = caroncomb.alt;
}
);
width = 524;
}
);
unicode = 317;
},
{
glyphname = Lcommaaccent;
kernRight = L;
lastChange = "2023-02-17 07:34:05 +0000";
layers = (
{
background = {
shapes = (
{
closed = 1;
nodes = (
(230,847,ls),
(230,868,o),
(214,872,o),
(197,872,cs),
(176,872,o),
(155,867,o),
(153,840,cs),
(56,31,l),
(56,25,ls),
(56,10,o),
(67,0,o),
(88,0,cs),
(489,0,ls),
(504,0,o),
(517,13,o),
(517,34,cs),
(517,55,o),
(507,64,o),
(490,64,cs),
(137,64,l),
(230,840,l,{
name = hr00;
})
);
},
{
closed = 1;
nodes = (
(212,-311,o),
(236,-307,o),
(243,-287,cs),
(288,-157,o),
(301,-117,o),
(301,-100,cs),
(301,-78,o),
(281,-70,o),
(263,-70,cs),
(244,-70,o),
(218,-74,o),
(212,-109,cs),
(185,-267,o),
(181,-289,o),
(181,-293,cs),
(181,-307,o),
(189,-311,o),
(204,-311,cs,{
name = hr00;
})
);
}
);
};
layerId = master01;
shapes = (
{
ref = L;
},
{
pos = (126,0);
ref = commaaccentcomb;
}
);
width = 524;
}
);
unicode = 315;
},
{
glyphname = Ldot;
kernRight = L;
lastChange = "2023-02-17 07:34:05 +0000";
layers = (
{
background = {
shapes = (
{
closed = 1;
nodes = (
(230,847,ls),
(230,868,o),
(214,872,o),
(197,872,cs),
(176,872,o),
(155,867,o),
(153,840,cs),
(56,31,l),
(56,25,ls),
(56,10,o),
(67,0,o),
(88,0,cs),
(489,0,ls),
(504,0,o),
(517,13,o),
(517,34,cs),
(517,55,o),
(507,64,o),
(490,64,cs),
(137,64,l),
(230,840,l,{
name = hr00;
})
);
},
{
closed = 1;
nodes = (
(384,478,o),
(374,494,o),
(339,494,cs),
(293,494,o),
(282,464,o),
(282,433,cs),
(282,412,o),
(292,395,o),
(327,395,cs),
(373,395,o),
(384,426,o),
(384,457,cs,{
name = hr00;
})
);
}
);
};
layerId = master01;
shapes = (
{
ref = L;
},
{
pos = (182,177);
ref = periodcentered;
}
);
width = 524;
}
);
unicode = 319;
},
{
glyphname = Lslash;
kernRight = L;
lastChange = "2023-02-17 07:34:05 +0000";
layers = (
{
background = {
shapes = (
{
closed = 1;
nodes = (
(230,847,ls),
(230,868,o),
(214,872,o),
(197,872,cs),
(176,872,o),
(155,867,o),
(153,840,cs),
(56,31,l),
(56,25,ls),
(56,10,o),
(67,0,o),
(88,0,cs),
(489,0,ls),
(504,0,o),
(517,13,o),
(517,34,cs),
(517,55,o),
(507,64,o),
(490,64,cs),
(137,64,l),
(230,840,l,{
name = hr00;
})
);
},
{
closed = 1;
nodes = (
(3,376,o),
(-1,367,o),
(-1,359,cs),
(-1,341,o),
(11,324,o),
(23,324,cs),
(28,324,o),
(32,326,o),
(44,332,cs),
(277,450,ls),
(287,455,o),
(291,464,o),
(291,472,cs),
(291,490,o),
(279,507,o),
(267,507,cs),
(262,507,o),
(258,505,o),
(246,499,cs),
(13,381,ls,{
name = hr00;
})
);
}
);
};
layerId = master01;
shapes = (
{
closed = 1;
nodes = (
(28,324,o),
(32,326,o),
(44,332,cs),
(277,450,ls),
(287,455,o),
(291,464,o),
(291,472,cs),
(291,490,o),
(279,507,o),
(267,507,cs),
(262,507,o),
(258,505,o),
(246,499,cs),
(13,381,ls,{
name = hr00;
}),
(3,376,o),
(-1,367,o),
(-1,359,cs),
(-1,341,o),
(11,324,o),
(23,324,cs)
);
},
{
alignment = -1;
ref = L;
}
);
width = 524;
}
);
unicode = 321;
},
{
glyphname = M;
lastChange = "2023-02-17 07:34:05 +0000";
layers = (
{
anchors = (
{
name = bottom;
pos = (439,0);
},
{
name = top;
pos = (439,860);
}
);
background = {
shapes = (
{
closed = 1;
nodes = (
(354,28,ls),
(358,6,o),
(385,0,o),
(399,0,cs),
(421,0,o),
(437,7,o),
(445,28,cs),
(724,721,l),
(668,15,l),
(668,-8,o),
(678,-14,o),
(701,-14,cs,{
name = hr01;
}),
(725,-14,o),
(742,-7,o),
(743,15,cs),
(806,841,l),
(806,862,o),
(790,872,o),
(766,872,cs),
(748,872,ls),
(725,872,o),
(707,861,o),
(699,841,cs),
(409,144,l),
(279,841,ls),
(275,862,o),
(255,874,o),
(234,874,cs,{
name = hr02;
}),
(223,874,ls),
(200,874,o),
(176,864,o),
(172,841,cs),
(36,15,l),
(36,8,ls),
(36,-10,o),
(46,-14,o),
(67,-14,cs),
(92,-14,o),
(108,-7,o),
(112,15,cs),
(225,724,l)
);
}
);
};
layerId = master01;
shapes = (
{
closed = 1;
nodes = (
(92,-14,o),
(108,-7,o),
(112,15,cs),
(225,724,l),
(354,28,ls),
(358,6,o),
(385,0,o),
(399,0,cs),
(421,0,o),
(437,7,o),
(445,28,cs),
(724,721,l),
(668,15,l),
(668,-8,o),
(678,-14,o),
(701,-14,cs,{
name = hr01;
}),
(725,-14,o),
(742,-7,o),
(743,15,cs),
(806,841,l),
(806,862,o),
(790,872,o),
(766,872,cs),
(748,872,ls),
(725,872,o),
(707,861,o),
(699,841,cs),
(409,144,l),
(279,841,ls),
(275,862,o),
(255,874,o),
(234,874,cs,{
name = hr02;
}),
(223,874,ls),
(200,874,o),
(176,864,o),
(172,841,cs),
(36,15,l),
(36,8,ls),
(36,-10,o),
(46,-14,o),
(67,-14,cs)
);
}
);
width = 878;
}
);
unicode = 77;
},
{
glyphname = N;
lastChange = "2023-02-17 07:34:05 +0000";
layers = (
{
anchors = (
{
name = bottom;
pos = (338,0);
},
{
name = top;
pos = (470,860);
}
);
background = {
shapes = (
{
closed = 1;
nodes = (
(501,13,ls),
(509,-7,o),
(528,-14,o),
(545,-14,cs),
(564,-14,ls),
(587,-14,o),
(601,-4,o),
(603,17,cs),
(701,819,ls),
(702,829,o),
(703,836,o),
(703,843,cs),
(703,865,o),
(695,872,o),
(665,872,cs),
(629,872,o),
(628,854,o),
(624,819,cs),
(543,139,l),
(262,847,ls),
(255,866,o),
(235,872,o),
(221,872,cs),
(199,872,ls),
(176,872,o),
(158,864,o),
(155,841,cs),
(59,39,ls),
(58,29,o),
(57,21,o),
(57,14,cs),
(57,-8,o),
(65,-14,o),
(95,-14,cs),
(122,-14,o),
(131,-6,o),
(136,39,cs),
(218,727,l,{
name = hr00;
})
);
}
);
};
layerId = master01;
shapes = (
{
closed = 1;
nodes = (
(122,-14,o),
(131,-6,o),
(136,39,cs),
(218,727,l,{
name = hr00;
}),
(501,13,ls),
(509,-7,o),
(528,-14,o),
(545,-14,cs),
(564,-14,ls),
(587,-14,o),
(600,-4,o),
(603,17,cs),
(701,819,ls),
(702,829,o),
(703,836,o),
(703,843,cs),
(703,865,o),
(695,872,o),
(665,872,cs),
(629,872,o),
(628,854,o),
(624,819,cs),
(543,139,l),
(262,847,ls),
(255,866,o),
(235,872,o),
(221,872,cs),
(199,872,ls),
(176,872,o),
(158,864,o),
(155,841,cs),
(59,39,ls),
(58,29,o),
(57,21,o),
(57,14,cs),
(57,-8,o),
(65,-14,o),
(95,-14,cs)
);
}
);
width = 760;
}
);
unicode = 78;
},
{
glyphname = Nacute;
lastChange = "2023-02-17 07:34:05 +0000";
layers = (
{
background = {
shapes = (
{
closed = 1;
nodes = (
(501,13,ls),
(509,-7,o),
(528,-14,o),
(545,-14,cs),
(564,-14,ls),
(587,-14,o),
(601,-4,o),
(603,17,cs),
(701,819,ls),
(702,829,o),
(703,836,o),
(703,843,cs),
(703,865,o),
(695,872,o),
(665,872,cs),
(629,872,o),
(628,854,o),
(624,819,cs),
(543,139,l),
(262,847,ls),
(255,866,o),
(235,872,o),
(221,872,cs),
(199,872,ls),
(176,872,o),
(158,864,o),
(155,841,cs),
(59,39,ls),
(58,29,o),
(57,21,o),
(57,14,cs),
(57,-8,o),
(65,-14,o),
(95,-14,cs),
(122,-14,o),
(131,-6,o),
(136,39,cs),
(218,727,l,{
name = hr00;
})
);
},
{
closed = 1;
nodes = (
(353,942,o),
(348,934,o),
(348,926,cs),
(348,913,o),
(358,900,o),
(373,900,cs),
(376,900,o),
(378,900,o),
(382,902,cs),
(570,1001,ls),
(587,1010,o),
(590,1016,o),
(590,1031,cs),
(590,1049,o),
(575,1074,o),
(550,1074,cs),
(547,1074,o),
(543,1073,o),
(539,1071,cs),
(356,944,ls,{
name = hr00;
})
);
}
);
};
layerId = master01;
shapes = (
{
ref = N;
},
{
pos = (317,0);
ref = acutecomb.case;
}
);
width = 760;
}
);
unicode = 323;
},
{
glyphname = Ncaron;
lastChange = "2023-02-17 07:34:05 +0000";
layers = (
{
background = {
shapes = (
{
closed = 1;
nodes = (
(501,13,ls),
(509,-7,o),
(528,-14,o),
(545,-14,cs),
(564,-14,ls),
(587,-14,o),
(601,-4,o),
(603,17,cs),
(701,819,ls),
(702,829,o),
(703,836,o),
(703,843,cs),
(703,865,o),
(695,872,o),
(665,872,cs),
(629,872,o),
(628,854,o),
(624,819,cs),
(543,139,l),
(262,847,ls),
(255,866,o),
(235,872,o),
(221,872,cs),
(199,872,ls),
(176,872,o),
(158,864,o),
(155,841,cs),
(59,39,ls),
(58,29,o),
(57,21,o),
(57,14,cs),
(57,-8,o),
(65,-14,o),
(95,-14,cs),
(122,-14,o),
(131,-6,o),
(136,39,cs),
(218,727,l,{
name = hr00;
})
);
},
{
closed = 1;
nodes = (
(350,1170,o),
(346,1173,o),
(338,1173,cs),
(325,1173,o),
(308,1159,o),
(308,1143,cs),
(308,1140,o),
(309,1136,o),
(314,1128,cs),
(399,988,ls),
(408,973,o),
(418,965,o),
(440,965,cs),
(469,965,o),
(483,987,o),
(491,996,cs),
(608,1134,ls),
(610,1137,o),
(612,1142,o),
(612,1147,cs),
(612,1161,o),
(601,1173,o),
(587,1173,cs),
(581,1173,o),
(577,1172,o),
(573,1168,cs),
(443,1049,l),
(358,1160,ls,{
name = hr00;
})
);
}
);
};
layerId = master01;
shapes = (
{
ref = N;
},
{
pos = (262,0);
ref = caroncomb.case;
}
);
width = 760;
}
);
unicode = 327;
},
{
glyphname = Ncommaaccent;
lastChange = "2023-02-17 07:34:05 +0000";
layers = (
{
background = {
shapes = (
{
closed = 1;
nodes = (
(501,13,ls),
(509,-7,o),
(528,-14,o),
(545,-14,cs),
(564,-14,ls),
(587,-14,o),
(601,-4,o),
(603,17,cs),
(701,819,ls),
(702,829,o),
(703,836,o),
(703,843,cs),
(703,865,o),
(695,872,o),
(665,872,cs),
(629,872,o),
(628,854,o),
(624,819,cs),
(543,139,l),
(262,847,ls),
(255,866,o),
(235,872,o),
(221,872,cs),
(199,872,ls),
(176,872,o),
(158,864,o),
(155,841,cs),
(59,39,ls),
(58,29,o),
(57,21,o),
(57,14,cs),
(57,-8,o),
(65,-14,o),
(95,-14,cs),
(122,-14,o),
(131,-6,o),
(136,39,cs),
(218,727,l,{
name = hr00;
})
);
},
{
closed = 1;
nodes = (
(272,-311,o),
(296,-307,o),
(303,-287,cs),
(348,-157,o),
(361,-117,o),
(361,-100,cs),
(361,-78,o),
(341,-70,o),
(323,-70,cs),
(304,-70,o),
(278,-74,o),
(272,-109,cs),
(245,-267,o),
(241,-289,o),
(241,-293,cs),
(241,-307,o),
(249,-311,o),
(264,-311,cs,{
name = hr00;
})
);
}
);
};
layerId = master01;
shapes = (
{
ref = N;
},
{
pos = (222,0);
ref = commaaccentcomb;
}
);
width = 760;
}
);
unicode = 325;
},
{
glyphname = Ntilde;
lastChange = "2023-02-17 07:34:05 +0000";
layers = (
{
background = {
shapes = (
{
closed = 1;
nodes = (
(501,13,ls),
(509,-7,o),
(528,-14,o),
(545,-14,cs),
(564,-14,ls),
(587,-14,o),
(601,-4,o),
(603,17,cs),
(701,819,ls),
(702,829,o),
(703,836,o),
(703,843,cs),
(703,865,o),
(695,872,o),
(665,872,cs),
(629,872,o),
(628,854,o),
(624,819,cs),
(543,139,l),
(262,847,ls),
(255,866,o),
(235,872,o),
(221,872,cs),
(199,872,ls),
(176,872,o),
(158,864,o),
(155,841,cs),
(59,39,ls),
(58,29,o),
(57,21,o),
(57,14,cs),
(57,-8,o),
(65,-14,o),
(95,-14,cs),
(122,-14,o),
(131,-6,o),
(136,39,cs),
(218,727,l,{
name = hr00;
})
);
},
{
closed = 1;
nodes = (
(478,991,o),
(442,1031,o),
(403,1031,cs,{
name = hr01;
}),
(350,1031,o),
(296,966,o),
(296,953,cs),
(296,936,o),
(304,922,o),
(325,922,cs,{
name = hr02;
}),
(336,922,o),
(362,962,o),
(401,962,cs,{
name = hr03;
}),
(441,962,o),
(477,922,o),
(516,922,cs,{
name = hr04;
}),
(569,922,o),
(623,987,o),
(623,1000,cs),
(623,1017,o),
(615,1031,o),
(594,1031,cs,{
name = hr05;
}),
(583,1031,o),
(557,991,o),
(518,991,cs)
);
}
);
};
layerId = master01;
shapes = (
{
ref = N;
},
{
pos = (256,0);
ref = tildecomb.case;
}
);
width = 760;
}
);
unicode = 209;
},
{
glyphname = Eng;
lastChange = "2023-02-17 07:34:05 +0000";
layers = (
{
anchors = (
{
name = bottom;
pos = (380,0);
},
{
name = top;
pos = (380,860);
}
);
background = {
shapes = (
{
closed = 1;
nodes = (
(702,829,o),
(703,836,o),
(703,843,cs),
(703,865,o),
(695,872,o),
(665,872,cs),
(629,872,o),
(628,854,o),
(624,819,cs),
(543,139,l),
(262,847,ls),
(255,866,o),
(235,872,o),
(221,872,cs),
(199,872,ls),
(176,872,o),
(158,864,o),
(155,841,cs),
(59,39,ls),
(58,29,o),
(57,21,o),
(57,14,cs),
(57,-8,o),
(65,-14,o),
(95,-14,cs),
(122,-14,o),
(131,-6,o),
(136,39,cs),
(218,727,l),
(513,-6,ls),
(487,-221,o),
(470,-276,o),
(378,-276,cs),
(304,-276,o),
(272,-234,o),
(266,-234,cs),
(248,-234,o),
(225,-263,o),
(225,-281,cs),
(225,-302,o),
(298,-343,o),
(378,-343,cs),
(526,-343,o),
(570,-238,o),
(588,-92,cs),
(701,819,ls,{
name = hr00;
})
);
}
);
};
layerId = master01;
shapes = (
{
closed = 1;
nodes = (
(526,-343,o),
(570,-238,o),
(588,-92,cs),
(701,819,ls,{
name = hr00;
}),
(702,829,o),
(703,836,o),
(703,843,cs),
(703,865,o),
(695,872,o),
(665,872,cs),
(629,872,o),
(628,854,o),
(624,819,cs),
(543,139,l),
(262,847,ls),
(255,866,o),
(235,872,o),
(221,872,cs),
(199,872,ls),
(176,872,o),
(158,864,o),
(155,841,cs),
(59,39,ls),
(58,29,o),
(57,21,o),
(57,14,cs),
(57,-8,o),
(65,-14,o),
(95,-14,cs),
(122,-14,o),
(131,-6,o),
(136,39,cs),
(218,727,l),
(513,-6,ls),
(487,-221,o),
(470,-276,o),
(378,-276,cs),
(304,-276,o),
(272,-234,o),
(266,-234,cs),
(248,-234,o),
(225,-263,o),
(225,-281,cs),
(225,-302,o),
(298,-343,o),
(378,-343,cs)
);
}
);
width = 760;
}
);
unicode = 330;
},
{
glyphname = O;
lastChange = "2023-02-17 07:34:05 +0000";
layers = (
{
anchors = (
{
name = bottom;
pos = (367,0);
},
{
name = center;
pos = (367,430);
},
{
name = ogonek;
pos = (661,10);
},
{
name = top;
pos = (447,860);
},
{
name = topleft;
pos = (20,860);
},
{
name = topright;
pos = (714,860);
}
);
background = {
shapes = (
{
closed = 1;
nodes = (
(692,722,o),
(623,872,o),
(416,872,cs),
(139,872,o),
(42,546,o),
(42,321,cs),
(42,137,o),
(112,-14,o),
(318,-14,cs),
(596,-14,o),
(692,312,o),
(692,539,cs,{
name = hr00;
})
);
},
{
closed = 1;
nodes = (
(172,50,o),
(123,182,o),
(123,315,cs),
(123,483,o),
(188,811,o),
(409,811,cs),
(563,811,o),
(612,679,o),
(612,546,cs),
(612,378,o),
(547,50,o),
(326,50,cs)
);
}
);
};
layerId = master01;
shapes = (
{
closed = 1;
nodes = (
(596,-14,o),
(692,312,o),
(692,539,cs,{
name = hr00;
}),
(692,722,o),
(623,872,o),
(416,872,cs),
(139,872,o),
(42,546,o),
(42,321,cs),
(42,137,o),
(112,-14,o),
(318,-14,cs)
);
},
{
closed = 1;
nodes = (
(172,50,o),
(123,182,o),
(123,315,cs),
(123,483,o),
(188,811,o),
(409,811,cs),
(563,811,o),
(612,679,o),
(612,546,cs),
(612,378,o),
(547,50,o),
(326,50,cs)
);
}
);
width = 734;
}
);
unicode = 79;
},
{
glyphname = Oacute;
lastChange = "2023-02-17 07:34:05 +0000";
layers = (
{
background = {
shapes = (
{
closed = 1;
nodes = (
(692,722,o),
(623,872,o),
(416,872,cs),
(139,872,o),
(42,546,o),
(42,321,cs),
(42,137,o),
(112,-14,o),
(318,-14,cs),
(596,-14,o),
(692,312,o),
(692,539,cs,{
name = hr00;
})
);
},
{
closed = 1;
nodes = (
(172,50,o),
(123,182,o),
(123,315,cs),
(123,483,o),
(188,811,o),
(409,811,cs),
(563,811,o),
(612,679,o),
(612,546,cs),
(612,378,o),
(547,50,o),
(326,50,cs)
);
},
{
closed = 1;
nodes = (
(330,942,o),
(325,934,o),
(325,926,cs),
(325,913,o),
(335,900,o),
(350,900,cs),
(353,900,o),
(355,900,o),
(359,902,cs),
(547,1001,ls),
(564,1010,o),
(567,1016,o),
(567,1031,cs),
(567,1049,o),
(552,1074,o),
(527,1074,cs),
(524,1074,o),
(520,1073,o),
(516,1071,cs),
(333,944,ls,{
name = hr00;
})
);
}
);
};
layerId = master01;
shapes = (
{
ref = O;
},
{
pos = (294,0);
ref = acutecomb.case;
}
);
width = 734;
}
);
unicode = 211;
},
{
glyphname = Obreve;
lastChange = "2023-02-17 07:34:05 +0000";
layers = (
{
background = {
shapes = (
{
closed = 1;
nodes = (
(692,722,o),
(623,872,o),
(416,872,cs),
(139,872,o),
(42,546,o),
(42,321,cs),
(42,137,o),
(112,-14,o),
(318,-14,cs),
(596,-14,o),
(692,312,o),
(692,539,cs,{
name = hr00;
})
);
},
{
closed = 1;
nodes = (
(172,50,o),
(123,182,o),
(123,315,cs),
(123,483,o),
(188,811,o),
(409,811,cs),
(563,811,o),
(612,679,o),
(612,546,cs),
(612,378,o),
(547,50,o),
(326,50,cs)
);
},
{
closed = 1;
nodes = (
(334,1071,o),
(329,1051,o),
(329,1034,cs),
(329,986,o),
(369,903,o),
(435,903,cs),
(541,903,o),
(604,1027,o),
(604,1050,cs),
(604,1062,o),
(596,1071,o),
(584,1071,cs),
(549,1071,o),
(513,974,o),
(450,974,cs),
(383,974,o),
(395,1071,o),
(351,1071,cs,{
name = hr00;
})
);
}
);
};
layerId = master01;
shapes = (
{
ref = O;
},
{
pos = (259,0);
ref = brevecomb.case;
}
);
width = 734;
}
);
unicode = 334;
},
{
glyphname = Ocircumflex;
lastChange = "2023-02-17 07:34:05 +0000";
layers = (
{
background = {
shapes = (
{
closed = 1;
nodes = (
(692,722,o),
(623,872,o),
(416,872,cs),
(139,872,o),
(42,546,o),
(42,321,cs),
(42,137,o),
(112,-14,o),
(318,-14,cs),
(596,-14,o),
(692,312,o),
(692,539,cs,{
name = hr00;
})
);
},
{
closed = 1;
nodes = (
(172,50,o),
(123,182,o),
(123,315,cs),
(123,483,o),
(188,811,o),
(409,811,cs),
(563,811,o),
(612,679,o),
(612,546,cs),
(612,378,o),
(547,50,o),
(326,50,cs)
);
},
{
closed = 1;
nodes = (
(528,913,o),
(532,910,o),
(540,910,cs),
(553,910,o),
(569,924,o),
(569,940,cs),
(569,943,o),
(568,947,o),
(563,955,cs),
(492,1063,ls),
(482,1078,o),
(472,1086,o),
(453,1086,cs),
(433,1086,o),
(419,1073,o),
(400,1055,cs),
(293,950,ls),
(290,947,o),
(289,942,o),
(289,937,cs),
(289,923,o),
(299,911,o),
(313,911,cs,{
name = hr01;
}),
(319,911,o),
(323,912,o),
(328,916,cs),
(448,1002,l),
(519,923,ls)
);
}
);
};
layerId = master01;
shapes = (
{
ref = O;
},
{
pos = (247,0);
ref = circumflexcomb.case;
}
);
width = 734;
}
);
unicode = 212;
},
{
glyphname = Odieresis;
lastChange = "2023-02-17 07:34:05 +0000";
layers = (
{
background = {
shapes = (
{
closed = 1;
nodes = (
(692,722,o),
(623,872,o),
(416,872,cs),
(139,872,o),
(42,546,o),
(42,321,cs),
(42,137,o),
(112,-14,o),
(318,-14,cs),
(596,-14,o),
(692,312,o),
(692,539,cs,{
name = hr00;
})
);
},
{
closed = 1;
nodes = (
(172,50,o),
(123,182,o),
(123,315,cs),
(123,483,o),
(188,811,o),
(409,811,cs),
(563,811,o),
(612,679,o),
(612,546,cs),
(612,378,o),
(547,50,o),
(326,50,cs)
);
},
{
closed = 1;
nodes = (
(391,1013,o),
(381,1029,o),
(346,1029,cs),
(300,1029,o),
(289,999,o),
(289,968,cs),
(289,947,o),
(299,930,o),
(334,930,cs),
(380,930,o),
(391,961,o),
(391,992,cs,{
name = hr00;
})
);
},
{
closed = 1;
nodes = (
(583,1013,o),
(573,1029,o),
(538,1029,cs),
(492,1029,o),
(481,999,o),
(481,968,cs),
(481,947,o),
(491,930,o),
(526,930,cs),
(572,930,o),
(583,961,o),
(583,992,cs)
);
}
);
};
layerId = master01;
shapes = (
{
ref = O;
},
{
pos = (250,0);
ref = dieresiscomb.case;
}
);
width = 734;
}
);
unicode = 214;
},
{
glyphname = Ograve;
lastChange = "2023-02-17 07:34:05 +0000";
layers = (
{
background = {
shapes = (
{
closed = 1;
nodes = (
(692,722,o),
(623,872,o),
(416,872,cs),
(139,872,o),
(42,546,o),
(42,321,cs),
(42,137,o),
(112,-14,o),
(318,-14,cs),
(596,-14,o),
(692,312,o),
(692,539,cs,{
name = hr00;
})
);
},
{
closed = 1;
nodes = (
(172,50,o),
(123,182,o),
(123,315,cs),
(123,483,o),
(188,811,o),
(409,811,cs),
(563,811,o),
(612,679,o),
(612,546,cs),
(612,378,o),
(547,50,o),
(326,50,cs)
);
},
{
closed = 1;
nodes = (
(343,1074,o),
(337,1074,o),
(334,1074,cs),
(311,1074,o),
(296,1049,o),
(296,1031,cs),
(296,1016,o),
(299,1010,o),
(316,1001,cs),
(504,902,ls),
(508,900,o),
(510,900,o),
(513,900,cs),
(528,900,o),
(538,913,o),
(538,926,cs),
(538,934,o),
(533,942,o),
(530,944,cs),
(347,1071,ls,{
name = hr00;
})
);
}
);
};
layerId = master01;
shapes = (
{
ref = O;
},
{
pos = (294,0);
ref = gravecomb.case;
}
);
width = 734;
}
);
unicode = 210;
},
{
glyphname = Ohungarumlaut;
lastChange = "2023-02-17 07:34:05 +0000";
layers = (
{
background = {
shapes = (
{
closed = 1;
nodes = (
(692,722,o),
(623,872,o),
(416,872,cs),
(139,872,o),
(42,546,o),
(42,321,cs),
(42,137,o),
(112,-14,o),
(318,-14,cs),
(596,-14,o),
(692,312,o),
(692,539,cs,{
name = hr00;
})
);
},
{
closed = 1;
nodes = (
(172,50,o),
(123,182,o),
(123,315,cs),
(123,483,o),
(188,811,o),
(409,811,cs),
(563,811,o),
(612,679,o),
(612,546,cs),
(612,378,o),
(547,50,o),
(326,50,cs)
);
},
{
closed = 1;
nodes = (
(241,942,o),
(236,934,o),
(236,926,cs),
(236,913,o),
(246,900,o),
(261,900,cs),
(264,900,o),
(266,900,o),
(270,902,cs),
(458,1001,ls),
(475,1010,o),
(478,1016,o),
(478,1031,cs),
(478,1049,o),
(463,1074,o),
(438,1074,cs),
(435,1074,o),
(431,1073,o),
(427,1071,cs),
(244,944,ls,{
name = hr00;
})
);
},
{
closed = 1;
nodes = (
(461,942,o),
(456,934,o),
(456,926,cs),
(456,913,o),
(466,900,o),
(481,900,cs),
(484,900,o),
(486,900,o),
(490,902,cs),
(678,1001,ls),
(695,1010,o),
(698,1016,o),
(698,1031,cs),
(698,1049,o),
(683,1074,o),
(658,1074,cs),
(655,1074,o),
(651,1073,o),
(647,1071,cs),
(464,944,ls)
);
}
);
};
layerId = master01;
shapes = (
{
ref = O;
},
{
pos = (196,0);
ref = hungarumlautcomb.case;
}
);
width = 734;
}
);
unicode = 336;
},
{
glyphname = Omacron;
lastChange = "2023-02-17 07:34:05 +0000";
layers = (
{
background = {
shapes = (
{
closed = 1;
nodes = (
(692,722,o),
(623,872,o),
(416,872,cs),
(139,872,o),
(42,546,o),
(42,321,cs),
(42,137,o),
(112,-14,o),
(318,-14,cs),
(596,-14,o),
(692,312,o),
(692,539,cs,{
name = hr00;
})
);
},
{
closed = 1;
nodes = (
(172,50,o),
(123,182,o),
(123,315,cs),
(123,483,o),
(188,811,o),
(409,811,cs),
(563,811,o),
(612,679,o),
(612,546,cs),
(612,378,o),
(547,50,o),
(326,50,cs)
);
},
{
closed = 1;
nodes = (
(335,1007,o),
(328,988,o),
(328,973,cs),
(328,958,o),
(335,946,o),
(351,946,cs),
(569,946,ls),
(599,946,o),
(606,965,o),
(606,980,cs),
(606,995,o),
(599,1007,o),
(583,1007,cs),
(365,1007,ls,{
name = hr00;
})
);
}
);
};
layerId = master01;
shapes = (
{
ref = O;
},
{
pos = (243,0);
ref = macroncomb.case;
}
);
width = 734;
}
);
unicode = 332;
},
{
glyphname = Oslash;
lastChange = "2023-02-17 07:34:05 +0000";
layers = (
{
background = {
shapes = (
{
closed = 1;
nodes = (
(692,722,o),
(623,872,o),
(416,872,cs),
(139,872,o),
(42,546,o),
(42,321,cs),
(42,137,o),
(112,-14,o),
(318,-14,cs),
(596,-14,o),
(692,312,o),
(692,539,cs,{
name = hr00;
})
);
},
{
closed = 1;
nodes = (
(172,50,o),
(123,182,o),
(123,315,cs),
(123,483,o),
(188,811,o),
(409,811,cs),
(563,811,o),
(612,679,o),
(612,546,cs),
(612,378,o),
(547,50,o),
(326,50,cs)
);
},
{
closed = 1;
nodes = (
(535,934,o),
(537,943,o),
(537,947,cs),
(537,960,o),
(525,966,o),
(510,966,cs),
(486,966,o),
(468,962,o),
(461,937,cs),
(202,-70,ls),
(198,-84,o),
(197,-89,o),
(197,-92,cs),
(197,-104,o),
(205,-108,o),
(221,-108,cs),
(243,-108,o),
(266,-104,o),
(273,-79,cs),
(532,923,ls,{
name = hr00;
})
);
}
);
};
layerId = master01;
shapes = (
{
ref = O;
},
{
pos = (117,-64);
ref = slash;
scale = (1,1.15);
}
);
width = 734;
}
);
unicode = 216;
},
{
glyphname = Oslashacute;
lastChange = "2023-02-17 07:34:05 +0000";
layers = (
{
background = {
shapes = (
{
closed = 1;
nodes = (
(330,942,o),
(325,934,o),
(325,926,cs),
(325,913,o),
(335,900,o),
(350,900,cs),
(353,900,o),
(355,900,o),
(359,902,cs),
(547,1001,ls),
(564,1010,o),
(567,1016,o),
(567,1031,cs),
(567,1049,o),
(552,1074,o),
(527,1074,cs),
(524,1074,o),
(520,1073,o),
(516,1071,cs),
(333,944,ls,{
name = hr00;
})
);
},
{
closed = 1;
nodes = (
(692,723,o),
(623,873,o),
(416,873,cs),
(139,873,o),
(42,547,o),
(42,322,cs),
(42,138,o),
(112,-13,o),
(318,-13,cs),
(596,-13,o),
(692,313,o),
(692,540,cs,{
name = hr00;
})
);
},
{
closed = 1;
nodes = (
(172,51,o),
(123,183,o),
(123,316,cs),
(123,484,o),
(188,812,o),
(409,812,cs),
(563,812,o),
(612,680,o),
(612,547,cs),
(612,379,o),
(547,51,o),
(326,51,cs)
);
},
{
closed = 1;
nodes = (
(535,870,o),
(537,878,o),
(537,881,cs),
(537,892,o),
(525,898,o),
(510,898,cs),
(486,898,o),
(468,894,o),
(461,872,cs),
(202,-3,ls),
(198,-15,o),
(197,-20,o),
(197,-22,cs),
(197,-33,o),
(205,-36,o),
(221,-36,cs),
(243,-36,o),
(266,-33,o),
(273,-11,cs),
(532,860,ls,{
name = hr00;
})
);
}
);
};
layerId = master01;
shapes = (
{
closed = 1;
nodes = (
(596,-13,o),
(692,313,o),
(692,540,cs,{
name = hr00;
}),
(692,723,o),
(623,873,o),
(416,873,cs),
(139,873,o),
(42,547,o),
(42,322,cs),
(42,138,o),
(112,-13,o),
(318,-13,cs)
);
},
{
closed = 1;
nodes = (
(243,-36,o),
(266,-33,o),
(273,-11,cs),
(532,860,ls,{
name = hr00;
}),
(535,870,o),
(537,878,o),
(537,881,cs),
(537,892,o),
(525,898,o),
(510,898,cs),
(486,898,o),
(468,894,o),
(461,872,cs),
(202,-3,ls),
(198,-15,o),
(197,-20,o),
(197,-22,cs),
(197,-33,o),
(205,-36,o),
(221,-36,cs)
);
},
{
closed = 1;
nodes = (
(172,51,o),
(123,183,o),
(123,316,cs),
(123,484,o),
(188,812,o),
(409,812,cs),
(563,812,o),
(612,680,o),
(612,547,cs),
(612,379,o),
(547,51,o),
(326,51,cs)
);
},
{
pos = (294,0);
ref = acutecomb.case;
}
);
width = 734;
}
);
unicode = 510;
},
{
glyphname = Otilde;
lastChange = "2023-02-17 07:34:05 +0000";
layers = (
{
background = {
shapes = (
{
closed = 1;
nodes = (
(692,722,o),
(623,872,o),
(416,872,cs),
(139,872,o),
(42,546,o),
(42,321,cs),
(42,137,o),
(112,-14,o),
(318,-14,cs),
(596,-14,o),
(692,312,o),
(692,539,cs,{
name = hr00;
})
);
},
{
closed = 1;
nodes = (
(172,50,o),
(123,182,o),
(123,315,cs),
(123,483,o),
(188,811,o),
(409,811,cs),
(563,811,o),
(612,679,o),
(612,546,cs),
(612,378,o),
(547,50,o),
(326,50,cs)
);
},
{
closed = 1;
nodes = (
(452,991,o),
(416,1031,o),
(377,1031,cs,{
name = hr01;
}),
(324,1031,o),
(270,966,o),
(270,953,cs),
(270,936,o),
(278,922,o),
(299,922,cs,{
name = hr02;
}),
(310,922,o),
(336,962,o),
(375,962,cs,{
name = hr03;
}),
(415,962,o),
(451,922,o),
(490,922,cs,{
name = hr04;
}),
(543,922,o),
(597,987,o),
(597,1000,cs),
(597,1017,o),
(589,1031,o),
(568,1031,cs,{
name = hr05;
}),
(557,1031,o),
(531,991,o),
(492,991,cs)
);
}
);
};
layerId = master01;
shapes = (
{
ref = O;
},
{
pos = (233,0);
ref = tildecomb.case;
}
);
width = 734;
}
);
unicode = 213;
},
{
glyphname = OE;
lastChange = "2023-02-17 07:34:05 +0000";
layers = (
{
anchors = (
{
name = bottom;
pos = (498,0);
},
{
name = top;
pos = (498,860);
}
);
background = {
shapes = (
{
closed = 1;
nodes = (
(692,643,o),
(670,736,o),
(613,797,c),
(958,797,ls),
(986,797,o),
(995,806,o),
(995,833,cs),
(995,851,o),
(982,860,o),
(964,860,cs),
(509,860,l),
(481,868,o),
(451,872,o),
(416,872,cs,{
name = hr01;
}),
(139,872,o),
(42,546,o),
(42,321,cs),
(42,137,o),
(112,-14,o),
(318,-14,cs),
(352,-14,o),
(383,-9,o),
(412,0,c,{
name = hr02;
}),
(891,0,ls),
(907,0,o),
(919,13,o),
(919,34,cs),
(919,55,o),
(909,64,o),
(893,64,cs,{
name = hr03;
}),
(523,64,l),
(616,148,o),
(665,289,o),
(683,421,c),
(883,421,ls),
(911,421,o),
(921,431,o),
(921,458,cs),
(921,477,o),
(907,484,o),
(886,484,cs),
(690,484,l),
(691,503,o),
(692,521,o),
(692,539,cs)
);
},
{
closed = 1;
nodes = (
(172,50,o),
(123,182,o),
(123,315,cs),
(123,483,o),
(188,811,o),
(409,811,cs),
(563,811,o),
(612,679,o),
(612,546,cs),
(612,378,o),
(547,50,o),
(326,50,cs,{
name = hr04;
})
);
}
);
};
layerId = master01;
shapes = (
{
closed = 1;
nodes = (
(352,-14,o),
(383,-9,o),
(412,0,c,{
name = hr02;
}),
(891,0,ls),
(907,0,o),
(919,13,o),
(919,34,cs),
(919,55,o),
(909,64,o),
(893,64,cs,{
name = hr03;
}),
(523,64,l),
(616,148,o),
(665,289,o),
(683,421,c),
(883,421,ls),
(911,421,o),
(921,431,o),
(921,458,cs),
(921,477,o),
(907,484,o),
(886,484,cs),
(690,484,l),
(691,503,o),
(692,521,o),
(692,539,cs),
(692,643,o),
(670,736,o),
(613,797,c),
(958,797,ls),
(986,797,o),
(995,806,o),
(995,833,cs),
(995,851,o),
(982,860,o),
(964,860,cs),
(509,860,l),
(481,868,o),
(451,872,o),
(416,872,cs,{
name = hr01;
}),
(139,872,o),
(42,546,o),
(42,321,cs),
(42,137,o),
(112,-14,o),
(318,-14,cs)
);
},
{
closed = 1;
nodes = (
(172,50,o),
(123,182,o),
(123,315,cs),
(123,483,o),
(188,811,o),
(409,811,cs),
(563,811,o),
(612,679,o),
(612,546,cs),
(612,378,o),
(547,50,o),
(326,50,cs,{
name = hr04;
})
);
}
);
width = 995;
}
);
unicode = 338;
},
{
glyphname = P;
kernRight = P;
lastChange = "2023-02-17 07:34:05 +0000";
layers = (
{
anchors = (
{
name = bottom;
pos = (323,0);
},
{
name = top;
pos = (323,860);
}
);
background = {
shapes = (
{
closed = 1;
nodes = (
(119,-14,o),
(133,-6,o),
(135,18,cs),
(177,368,l),
(406,358,o),
(642,433,o),
(641,654,cs),
(639,798,o),
(536,872,o),
(378,872,cs),
(313,872,o),
(252,864,o),
(189,857,cs),
(176,855,o),
(161,847,o),
(159,833,cs),
(58,14,ls),
(56,-10,o),
(78,-14,o),
(99,-14,cs,{
name = hr00;
})
);
},
{
closed = 1;
nodes = (
(561,475,o),
(371,434,o),
(187,437,c),
(231,799,l),
(284,806,o),
(331,809,o),
(379,809,cs),
(488,809,o),
(558,757,o),
(560,654,cs)
);
}
);
};
layerId = master01;
shapes = (
{
closed = 1;
nodes = (
(119,-14,o),
(133,-6,o),
(135,18,cs),
(177,368,l),
(406,358,o),
(642,433,o),
(641,654,cs),
(639,798,o),
(536,872,o),
(378,872,cs),
(313,872,o),
(252,864,o),
(189,857,cs),
(176,855,o),
(161,847,o),
(159,833,cs),
(58,14,ls),
(56,-10,o),
(78,-14,o),
(99,-14,cs,{
name = hr00;
})
);
},
{
closed = 1;
nodes = (
(231,799,l),
(284,806,o),
(331,809,o),
(379,809,cs),
(488,809,o),
(558,757,o),
(560,654,cs),
(561,475,o),
(371,434,o),
(187,437,c)
);
}
);
width = 646;
}
);
unicode = 80;
},
{
glyphname = Thorn;
lastChange = "2023-02-17 07:34:05 +0000";
layers = (
{
anchors = (
{
name = bottom;
pos = (322,0);
},
{
name = top;
pos = (322,860);
}
);
background = {
shapes = (
{
closed = 1;
nodes = (
(169,198,o),
(181,198,o),
(194,198,cs),
(411,198,o),
(619,277,o),
(619,485,cs),
(619,629,o),
(514,703,o),
(356,703,cs),
(308,703,o),
(263,699,o),
(217,694,c),
(234,827,o),
(236,847,o),
(236,848,cs),
(236,868,o),
(221,872,o),
(203,872,cs),
(182,872,o),
(161,867,o),
(158,840,cs),
(57,17,o),
(57,15,o),
(57,14,cs),
(57,-11,o),
(75,-14,o),
(97,-14,cs),
(115,-14,o),
(131,-7,o),
(134,18,cs),
(156,199,l,{
name = hr00;
})
);
},
{
closed = 1;
nodes = (
(538,304,o),
(350,268,o),
(165,268,c),
(209,630,l),
(262,637,o),
(309,640,o),
(357,640,cs),
(466,640,o),
(538,588,o),
(538,485,cs)
);
}
);
};
layerId = master01;
shapes = (
{
closed = 1;
nodes = (
(115,-14,o),
(131,-7,o),
(134,18,cs),
(156,199,l,{
name = hr00;
}),
(169,198,o),
(181,198,o),
(194,198,cs),
(411,198,o),
(619,277,o),
(619,485,cs),
(619,629,o),
(514,703,o),
(356,703,cs),
(308,703,o),
(263,699,o),
(217,694,c),
(234,827,o),
(236,847,o),
(236,848,cs),
(236,868,o),
(221,872,o),
(203,872,cs),
(182,872,o),
(161,867,o),
(158,840,cs),
(57,17,o),
(57,15,o),
(57,14,cs),
(57,-11,o),
(75,-14,o),
(97,-14,cs)
);
},
{
closed = 1;
nodes = (
(209,630,l),
(262,637,o),
(309,640,o),
(357,640,cs),
(466,640,o),
(538,588,o),
(538,485,cs),
(538,304,o),
(350,268,o),
(165,268,c)
);
}
);
width = 644;
}
);
unicode = 222;
},
{
glyphname = Q;
lastChange = "2023-02-17 07:34:05 +0000";
layers = (
{
anchors = (
{
name = bottom;
pos = (365,0);
},
{
name = top;
pos = (365,860);
}
);
background = {
shapes = (
{
closed = 1;
nodes = (
(689,722,o),
(620,872,o),
(413,872,cs),
(136,872,o),
(39,546,o),
(39,321,cs),
(39,137,o),
(109,-14,o),
(315,-14,cs),
(358,-14,o),
(398,-6,o),
(433,8,c),
(539,-94,ls),
(566,-120,o),
(573,-127,o),
(585,-127,cs),
(605,-127,o),
(627,-111,o),
(627,-91,cs),
(627,-74,o),
(623,-69,o),
(591,-39,cs),
(501,48,l),
(637,154,o),
(689,372,o),
(689,539,cs,{
name = hr00;
})
);
},
{
closed = 1;
nodes = (
(169,50,o),
(120,182,o),
(120,315,cs),
(120,483,o),
(185,811,o),
(406,811,cs),
(560,811,o),
(609,679,o),
(609,546,cs),
(609,416,o),
(570,192,o),
(452,97,c),
(389,158,ls),
(358,189,o),
(347,199,o),
(333,199,cs),
(315,199,o),
(294,183,o),
(294,162,cs),
(294,146,o),
(304,134,o),
(332,106,cs),
(381,59,l),
(363,53,o),
(344,50,o),
(323,50,cs)
);
}
);
};
layerId = master01;
shapes = (
{
closed = 1;
nodes = (
(605,-127,o),
(627,-111,o),
(627,-91,cs),
(627,-74,o),
(623,-69,o),
(591,-39,cs),
(501,48,l),
(637,154,o),
(689,372,o),
(689,539,cs,{
name = hr00;
}),
(689,722,o),
(620,872,o),
(413,872,cs),
(136,872,o),
(39,546,o),
(39,321,cs),
(39,137,o),
(109,-14,o),
(315,-14,cs),
(358,-14,o),
(398,-6,o),
(433,8,c),
(539,-94,ls),
(566,-120,o),
(573,-127,o),
(585,-127,cs)
);
},
{
closed = 1;
nodes = (
(169,50,o),
(120,182,o),
(120,315,cs),
(120,483,o),
(185,811,o),
(406,811,cs),
(560,811,o),
(609,679,o),
(609,546,cs),
(609,416,o),
(570,192,o),
(452,97,c),
(389,158,ls),
(358,189,o),
(347,199,o),
(333,199,cs),
(315,199,o),
(294,183,o),
(294,162,cs),
(294,146,o),
(304,134,o),
(332,106,cs),
(381,59,l),
(363,53,o),
(344,50,o),
(323,50,cs)
);
}
);
width = 729;
}
);
unicode = 81;
},
{
glyphname = R;
lastChange = "2023-02-17 07:34:05 +0000";
layers = (
{
anchors = (
{
name = bottom;
pos = (338,0);
},
{
name = top;
pos = (413,860);
}
);
background = {
shapes = (
{
closed = 1;
nodes = (
(119,-14,o),
(130,-8,o),
(133,13,cs),
(183,423,l),
(297,423,ls),
(358,423,o),
(382,414,o),
(399,403,cs),
(441,377,o),
(469,298,o),
(497,214,cs),
(567,8,ls),
(573,-10,o),
(584,-14,o),
(605,-14,cs),
(627,-14,o),
(645,-4,o),
(645,13,cs),
(645,15,o),
(645,18,o),
(644,21,cs),
(582,202,ls),
(549,301,o),
(526,417,o),
(428,458,c),
(561,484,o),
(641,571,o),
(641,678,cs),
(641,811,o),
(531,872,o),
(388,872,cs),
(259,872,o),
(185,857,o),
(185,857,c),
(171,855,o),
(160,846,o),
(158,834,cs),
(57,15,l),
(57,11,ls),
(57,-7,o),
(73,-14,o),
(94,-14,cs,{
name = hr00;
})
);
},
{
closed = 1;
nodes = (
(230,799,l),
(280,808,o),
(332,811,o),
(381,811,cs),
(473,811,o),
(560,764,o),
(560,676,cs),
(560,540,o),
(402,489,o),
(309,489,cs),
(192,489,l)
);
}
);
};
layerId = master01;
shapes = (
{
closed = 1;
nodes = (
(119,-14,o),
(130,-8,o),
(133,13,cs),
(183,423,l),
(297,423,ls),
(358,423,o),
(382,414,o),
(399,403,cs),
(441,377,o),
(469,298,o),
(497,214,cs),
(567,8,ls),
(573,-10,o),
(584,-14,o),
(605,-14,cs),
(627,-14,o),
(645,-4,o),
(645,13,cs),
(645,15,o),
(645,18,o),
(644,21,cs),
(582,202,ls),
(548,301,o),
(526,417,o),
(428,458,c),
(561,484,o),
(641,571,o),
(641,678,cs),
(641,811,o),
(531,872,o),
(388,872,cs),
(259,872,o),
(185,857,o),
(185,857,c),
(171,855,o),
(159,846,o),
(158,834,cs),
(57,15,l),
(57,11,ls),
(57,-7,o),
(73,-14,o),
(94,-14,cs,{
name = hr00;
})
);
},
{
closed = 1;
nodes = (
(230,799,l),
(280,808,o),
(332,811,o),
(381,811,cs),
(473,811,o),
(560,764,o),
(560,676,cs),
(560,540,o),
(402,489,o),
(309,489,cs),
(192,489,l)
);
}
);
width = 699;
}
);
unicode = 82;
},
{
glyphname = Racute;
lastChange = "2023-02-17 07:34:05 +0000";
layers = (
{
background = {
shapes = (
{
closed = 1;
nodes = (
(119,-14,o),
(130,-8,o),
(133,13,cs),
(183,423,l),
(297,423,ls),
(358,423,o),
(382,414,o),
(399,403,cs),
(441,377,o),
(469,298,o),
(497,214,cs),
(567,8,ls),
(573,-10,o),
(584,-14,o),
(605,-14,cs),
(627,-14,o),
(645,-4,o),
(645,13,cs),
(645,15,o),
(645,18,o),
(644,21,cs),
(582,202,ls),
(549,301,o),
(526,417,o),
(428,458,c),
(561,484,o),
(641,571,o),
(641,678,cs),
(641,811,o),
(531,872,o),
(388,872,cs),
(259,872,o),
(185,857,o),
(185,857,c),
(171,855,o),
(160,846,o),
(158,834,cs),
(57,15,l),
(57,11,ls),
(57,-7,o),
(73,-14,o),
(94,-14,cs,{
name = hr00;
})
);
},
{
closed = 1;
nodes = (
(230,799,l),
(280,808,o),
(332,811,o),
(381,811,cs),
(473,811,o),
(560,764,o),
(560,676,cs),
(560,540,o),
(402,489,o),
(309,489,cs),
(192,489,l)
);
},
{
closed = 1;
nodes = (
(296,942,o),
(291,934,o),
(291,926,cs),
(291,913,o),
(301,900,o),
(316,900,cs),
(319,900,o),
(321,900,o),
(325,902,cs),
(513,1001,ls),
(530,1010,o),
(533,1016,o),
(533,1031,cs),
(533,1049,o),
(518,1074,o),
(493,1074,cs),
(490,1074,o),
(486,1073,o),
(482,1071,cs),
(299,944,ls,{
name = hr00;
})
);
}
);
};
layerId = master01;
shapes = (
{
ref = R;
},
{
pos = (260,0);
ref = acutecomb.case;
}
);
width = 699;
}
);
unicode = 340;
},
{
glyphname = Rcaron;
lastChange = "2023-02-17 07:34:05 +0000";
layers = (
{
background = {
shapes = (
{
closed = 1;
nodes = (
(119,-14,o),
(130,-8,o),
(133,13,cs),
(183,423,l),
(297,423,ls),
(358,423,o),
(382,414,o),
(399,403,cs),
(441,377,o),
(469,298,o),
(497,214,cs),
(567,8,ls),
(573,-10,o),
(584,-14,o),
(605,-14,cs),
(627,-14,o),
(645,-4,o),
(645,13,cs),
(645,15,o),
(645,18,o),
(644,21,cs),
(582,202,ls),
(549,301,o),
(526,417,o),
(428,458,c),
(561,484,o),
(641,571,o),
(641,678,cs),
(641,811,o),
(531,872,o),
(388,872,cs),
(259,872,o),
(185,857,o),
(185,857,c),
(171,855,o),
(160,846,o),
(158,834,cs),
(57,15,l),
(57,11,ls),
(57,-7,o),
(73,-14,o),
(94,-14,cs,{
name = hr00;
})
);
},
{
closed = 1;
nodes = (
(230,799,l),
(280,808,o),
(332,811,o),
(381,811,cs),
(473,811,o),
(560,764,o),
(560,676,cs),
(560,540,o),
(402,489,o),
(309,489,cs),
(192,489,l)
);
},
{
closed = 1;
nodes = (
(316,1083,o),
(312,1086,o),
(304,1086,cs),
(291,1086,o),
(274,1072,o),
(274,1056,cs),
(274,1053,o),
(275,1049,o),
(280,1041,cs),
(351,933,ls),
(361,918,o),
(371,910,o),
(390,910,cs),
(410,910,o),
(424,923,o),
(443,941,cs),
(550,1046,ls),
(553,1049,o),
(554,1054,o),
(554,1059,cs),
(554,1073,o),
(543,1085,o),
(529,1085,cs,{
name = hr01;
}),
(525,1085,o),
(520,1084,o),
(515,1080,cs),
(395,994,l),
(324,1073,ls)
);
}
);
};
layerId = master01;
shapes = (
{
ref = R;
},
{
pos = (205,0);
ref = caroncomb.case;
}
);
width = 699;
}
);
unicode = 344;
},
{
glyphname = Rcommaaccent;
lastChange = "2023-02-17 07:34:05 +0000";
layers = (
{
background = {
shapes = (
{
closed = 1;
nodes = (
(119,-14,o),
(130,-8,o),
(133,13,cs),
(183,423,l),
(297,423,ls),
(358,423,o),
(382,414,o),
(399,403,cs),
(441,377,o),
(469,298,o),
(497,214,cs),
(567,8,ls),
(573,-10,o),
(584,-14,o),
(605,-14,cs),
(627,-14,o),
(645,-4,o),
(645,13,cs),
(645,15,o),
(645,18,o),
(644,21,cs),
(582,202,ls),
(549,301,o),
(526,417,o),
(428,458,c),
(561,484,o),
(641,571,o),
(641,678,cs),
(641,811,o),
(531,872,o),
(388,872,cs),
(259,872,o),
(185,857,o),
(185,857,c),
(171,855,o),
(160,846,o),
(158,834,cs),
(57,15,l),
(57,11,ls),
(57,-7,o),
(73,-14,o),
(94,-14,cs,{
name = hr00;
})
);
},
{
closed = 1;
nodes = (
(230,799,l),
(280,808,o),
(332,811,o),
(381,811,cs),
(473,811,o),
(560,764,o),
(560,676,cs),
(560,540,o),
(402,489,o),
(309,489,cs),
(192,489,l)
);
},
{
closed = 1;
nodes = (
(272,-311,o),
(296,-307,o),
(303,-287,cs),
(348,-157,o),
(361,-117,o),
(361,-100,cs),
(361,-78,o),
(341,-70,o),
(323,-70,cs),
(304,-70,o),
(278,-74,o),
(272,-109,cs),
(245,-267,o),
(241,-289,o),
(241,-293,cs),
(241,-307,o),
(249,-311,o),
(264,-311,cs,{
name = hr00;
})
);
}
);
};
layerId = master01;
shapes = (
{
ref = R;
},
{
pos = (222,0);
ref = commaaccentcomb;
}
);
width = 699;
}
);
unicode = 342;
},
{
glyphname = S;
lastChange = "2023-02-17 07:34:05 +0000";
layers = (
{
anchors = (
{
name = bottom;
pos = (247,0);
},
{
name = top;
pos = (368,860);
}
);
background = {
shapes = (
{
closed = 1;
nodes = (
(227,872,o),
(112,798,o),
(112,657,cs),
(112,452,o),
(441,385,o),
(441,221,cs),
(441,119,o),
(364,50,o),
(255,50,cs),
(178,50,o),
(133,77,o),
(99,126,cs),
(80,157,o),
(74,189,o),
(49,189,cs),
(28,189,o),
(17,172,o),
(17,154,cs),
(17,116,o),
(46,73,o),
(76,48,cs),
(127,4,o),
(193,-14,o),
(258,-14,cs),
(412,-14,o),
(521,74,o),
(521,225,cs),
(521,438,o),
(193,503,o),
(193,659,cs),
(193,752,o),
(260,809,o),
(358,809,cs),
(472,809,o),
(503,731,o),
(540,731,cs),
(557,731,o),
(568,742,o),
(568,762,cs),
(568,811,o),
(469,872,o),
(368,872,cs,{
name = hr00;
})
);
}
);
};
layerId = master01;
shapes = (
{
closed = 1;
nodes = (
(412,-14,o),
(521,74,o),
(521,225,cs),
(521,438,o),
(193,503,o),
(193,659,cs),
(193,752,o),
(260,809,o),
(358,809,cs),
(472,809,o),
(503,731,o),
(540,731,cs),
(557,731,o),
(568,742,o),
(568,762,cs),
(568,811,o),
(469,872,o),
(368,872,cs,{
name = hr00;
}),
(227,872,o),
(112,798,o),
(112,657,cs),
(112,452,o),
(441,385,o),
(441,221,cs),
(441,119,o),
(364,50,o),
(255,50,cs),
(178,50,o),
(133,77,o),
(99,126,cs),
(80,157,o),
(74,189,o),
(49,189,cs),
(28,189,o),
(17,172,o),
(17,154,cs),
(17,116,o),
(46,73,o),
(76,48,cs),
(127,4,o),
(193,-14,o),
(258,-14,cs)
);
}
);
width = 596;
}
);
unicode = 83;
},
{
glyphname = Sacute;
lastChange = "2023-02-17 07:34:05 +0000";
layers = (
{
background = {
shapes = (
{
closed = 1;
nodes = (
(227,872,o),
(112,798,o),
(112,657,cs),
(112,452,o),
(441,385,o),
(441,221,cs),
(441,119,o),
(364,50,o),
(255,50,cs),
(178,50,o),
(133,77,o),
(99,126,cs),
(80,157,o),
(74,189,o),
(49,189,cs),
(28,189,o),
(17,172,o),
(17,154,cs),
(17,116,o),
(46,73,o),
(76,48,cs),
(127,4,o),
(193,-14,o),
(258,-14,cs),
(412,-14,o),
(521,74,o),
(521,225,cs),
(521,438,o),
(193,503,o),
(193,659,cs),
(193,752,o),
(260,809,o),
(358,809,cs),
(472,809,o),
(503,731,o),
(540,731,cs),
(557,731,o),
(568,742,o),
(568,762,cs),
(568,811,o),
(469,872,o),
(368,872,cs,{
name = hr00;
})
);
},
{
closed = 1;
nodes = (
(248,942,o),
(243,934,o),
(243,926,cs),
(243,913,o),
(253,900,o),
(268,900,cs),
(271,900,o),
(273,900,o),
(277,902,cs),
(465,1001,ls),
(482,1010,o),
(485,1016,o),
(485,1031,cs),
(485,1049,o),
(470,1074,o),
(445,1074,cs),
(442,1074,o),
(438,1073,o),
(434,1071,cs),
(251,944,ls,{
name = hr00;
})
);
}
);
};
layerId = master01;
shapes = (
{
ref = S;
},
{
pos = (215,0);
ref = acutecomb.case;
}
);
width = 596;
}
);
unicode = 346;
},
{
glyphname = Scaron;
lastChange = "2023-02-17 07:34:05 +0000";
layers = (
{
background = {
shapes = (
{
closed = 1;
nodes = (
(227,872,o),
(112,798,o),
(112,657,cs),
(112,452,o),
(441,385,o),
(441,221,cs),
(441,119,o),
(364,50,o),
(255,50,cs),
(178,50,o),
(133,77,o),
(99,126,cs),
(80,157,o),
(74,189,o),
(49,189,cs),
(28,189,o),
(17,172,o),
(17,154,cs),
(17,116,o),
(46,73,o),
(76,48,cs),
(127,4,o),
(193,-14,o),
(258,-14,cs),
(412,-14,o),
(521,74,o),
(521,225,cs),
(521,438,o),
(193,503,o),
(193,659,cs),
(193,752,o),
(260,809,o),
(358,809,cs),
(472,809,o),
(503,731,o),
(540,731,cs),
(557,731,o),
(568,742,o),
(568,762,cs),
(568,811,o),
(469,872,o),
(368,872,cs,{
name = hr00;
})
);
},
{
closed = 1;
nodes = (
(278,1083,o),
(274,1086,o),
(266,1086,cs),
(253,1086,o),
(236,1072,o),
(236,1056,cs),
(236,1053,o),
(237,1049,o),
(242,1041,cs),
(313,933,ls),
(323,918,o),
(333,910,o),
(352,910,cs),
(372,910,o),
(386,923,o),
(405,941,cs),
(512,1046,ls),
(515,1049,o),
(516,1054,o),
(516,1059,cs),
(516,1073,o),
(505,1085,o),
(491,1085,cs,{
name = hr01;
}),
(487,1085,o),
(482,1084,o),
(477,1080,cs),
(357,994,l),
(286,1073,ls)
);
}
);
};
layerId = master01;
shapes = (
{
ref = S;
},
{
pos = (160,0);
ref = caroncomb.case;
}
);
width = 596;
}
);
unicode = 352;
},
{
glyphname = Scedilla;
lastChange = "2023-02-17 07:34:05 +0000";
layers = (
{
background = {
shapes = (
{
closed = 1;
nodes = (
(227,872,o),
(112,798,o),
(112,657,cs),
(112,452,o),
(441,385,o),
(441,221,cs),
(441,119,o),
(364,50,o),
(255,50,cs),
(178,50,o),
(133,77,o),
(99,126,cs),
(80,157,o),
(74,189,o),
(49,189,cs),
(28,189,o),
(17,172,o),
(17,154,cs),
(17,116,o),
(46,73,o),
(76,48,cs),
(127,4,o),
(193,-14,o),
(258,-14,cs),
(412,-14,o),
(521,74,o),
(521,225,cs),
(521,438,o),
(193,503,o),
(193,659,cs),
(193,752,o),
(260,809,o),
(358,809,cs),
(472,809,o),
(503,731,o),
(540,731,cs),
(557,731,o),
(568,742,o),
(568,762,cs),
(568,811,o),
(469,872,o),
(368,872,cs,{
name = hr00;
})
);
},
{
closed = 1;
nodes = (
(196,-72,ls),
(193,-83,o),
(191,-93,o),
(191,-101,cs),
(191,-116,o),
(199,-124,o),
(223,-124,cs),
(266,-124,o),
(314,-137,o),
(314,-193,cs),
(314,-233,o),
(285,-265,o),
(239,-265,cs),
(195,-265,o),
(180,-243,o),
(169,-220,cs),
(162,-206,o),
(150,-203,o),
(142,-203,cs),
(124,-203,o),
(115,-219,o),
(115,-235,cs),
(115,-274,o),
(160,-320,o),
(235,-320,cs),
(309,-320,o),
(376,-280,o),
(376,-185,cs),
(376,-103,o),
(310,-71,o),
(244,-71,c),
(265,0,l),
(217,0,l,{
name = hr00;
})
);
}
);
};
layerId = master01;
shapes = (
{
ref = S;
},
{
pos = (25,0);
ref = cedillacomb;
}
);
width = 596;
}
);
unicode = 350;
},
{
glyphname = Scircumflex;
lastChange = "2023-02-17 07:34:05 +0000";
layers = (
{
background = {
shapes = (
{
closed = 1;
nodes = (
(227,872,o),
(112,798,o),
(112,657,cs),
(112,452,o),
(441,385,o),
(441,221,cs),
(441,119,o),
(364,50,o),
(255,50,cs),
(178,50,o),
(133,77,o),
(99,126,cs),
(80,157,o),
(74,189,o),
(49,189,cs),
(28,189,o),
(17,172,o),
(17,154,cs),
(17,116,o),
(46,73,o),
(76,48,cs),
(127,4,o),
(193,-14,o),
(258,-14,cs),
(412,-14,o),
(521,74,o),
(521,225,cs),
(521,438,o),
(193,503,o),
(193,659,cs),
(193,752,o),
(260,809,o),
(358,809,cs),
(472,809,o),
(503,731,o),
(540,731,cs),
(557,731,o),
(568,742,o),
(568,762,cs),
(568,811,o),
(469,872,o),
(368,872,cs,{
name = hr00;
})
);
},
{
closed = 1;
nodes = (
(467,913,o),
(471,910,o),
(479,910,cs),
(492,910,o),
(508,924,o),
(508,940,cs),
(508,943,o),
(507,947,o),
(502,955,cs),
(431,1063,ls),
(421,1078,o),
(411,1086,o),
(392,1086,cs),
(372,1086,o),
(358,1073,o),
(339,1055,cs),
(232,950,ls),
(229,947,o),
(228,942,o),
(228,937,cs),
(228,923,o),
(238,911,o),
(252,911,cs,{
name = hr01;
}),
(258,911,o),
(262,912,o),
(267,916,cs),
(387,1002,l),
(458,923,ls)
);
}
);
};
layerId = master01;
shapes = (
{
ref = S;
},
{
pos = (168,0);
ref = circumflexcomb.case;
}
);
width = 596;
}
);
unicode = 348;
},
{
glyphname = Scommaaccent;
lastChange = "2023-02-17 07:34:05 +0000";
layers = (
{
background = {
shapes = (
{
closed = 1;
nodes = (
(227,872,o),
(112,798,o),
(112,657,cs),
(112,452,o),
(441,385,o),
(441,221,cs),
(441,119,o),
(364,50,o),
(255,50,cs),
(178,50,o),
(133,77,o),
(99,126,cs),
(80,157,o),
(74,189,o),
(49,189,cs),
(28,189,o),
(17,172,o),
(17,154,cs),
(17,116,o),
(46,73,o),
(76,48,cs),
(127,4,o),
(193,-14,o),
(258,-14,cs),
(412,-14,o),
(521,74,o),
(521,225,cs),
(521,438,o),
(193,503,o),
(193,659,cs),
(193,752,o),
(260,809,o),
(358,809,cs),
(472,809,o),
(503,731,o),
(540,731,cs),
(557,731,o),
(568,742,o),
(568,762,cs),
(568,811,o),
(469,872,o),
(368,872,cs,{
name = hr00;
})
);
},
{
closed = 1;
nodes = (
(202,-311,o),
(226,-307,o),
(233,-287,cs),
(278,-157,o),
(291,-117,o),
(291,-100,cs),
(291,-78,o),
(271,-70,o),
(253,-70,cs),
(234,-70,o),
(208,-74,o),
(202,-109,cs),
(175,-267,o),
(171,-289,o),
(171,-293,cs),
(171,-307,o),
(179,-311,o),
(194,-311,cs,{
name = hr00;
})
);
}
);
};
layerId = master01;
shapes = (
{
ref = S;
},
{
pos = (131,0);
ref = commaaccentcomb;
}
);
width = 596;
}
);
unicode = 536;
},
{
glyphname = T;
kernLeft = T;
kernRight = T;
lastChange = "2023-02-17 07:34:05 +0000";
layers = (
{
anchors = (
{
name = bottom;
pos = (207,0);
},
{
name = center;
pos = (258,430);
},
{
name = top;
pos = (258,860);
}
);
background = {
shapes = (
{
closed = 1;
nodes = (
(552,797,o),
(564,809,o),
(564,833,cs),
(564,851,o),
(550,860,o),
(532,860,cs),
(73,860,ls),
(49,860,o),
(36,847,o),
(36,823,cs),
(36,805,o),
(50,797,o),
(69,797,cs),
(258,797,l),
(162,18,o),
(162,15,o),
(162,14,cs),
(162,-11,o),
(180,-14,o),
(202,-14,cs),
(220,-14,o),
(236,-7,o),
(239,18,cs),
(335,797,l),
(528,797,ls,{
name = hr00;
})
);
}
);
};
layerId = master01;
shapes = (
{
closed = 1;
nodes = (
(220,-14,o),
(236,-7,o),
(239,18,cs),
(335,797,l),
(528,797,ls,{
name = hr00;
}),
(552,797,o),
(564,809,o),
(564,833,cs),
(564,851,o),
(550,860,o),
(532,860,cs),
(73,860,ls),
(49,860,o),
(36,847,o),
(36,823,cs),
(36,805,o),
(50,797,o),
(69,797,cs),
(258,797,l),
(162,18,o),
(162,15,o),
(162,14,cs),
(162,-11,o),
(180,-14,o),
(202,-14,cs)
);
}
);
width = 515;
}
);
unicode = 84;
},
{
glyphname = Tbar;
kernLeft = T;
kernRight = T;
lastChange = "2023-02-17 07:34:05 +0000";
layers = (
{
background = {
shapes = (
{
closed = 1;
nodes = (
(552,797,o),
(564,809,o),
(564,833,cs),
(564,851,o),
(550,860,o),
(532,860,cs),
(73,860,ls),
(49,860,o),
(36,847,o),
(36,823,cs),
(36,805,o),
(50,797,o),
(69,797,cs),
(258,797,l),
(162,18,o),
(162,15,o),
(162,14,cs),
(162,-11,o),
(180,-14,o),
(202,-14,cs),
(220,-14,o),
(236,-7,o),
(239,18,cs),
(335,797,l),
(528,797,ls,{
name = hr00;
})
);
},
{
closed = 1;
nodes = (
(72,462,o),
(66,442,o),
(66,426,cs),
(66,411,o),
(72,398,o),
(83,398,cs),
(415,398,ls),
(431,398,o),
(440,415,o),
(440,431,cs),
(440,447,o),
(433,462,o),
(418,462,cs),
(90,462,ls,{
name = hr00;
})
);
}
);
};
layerId = master01;
shapes = (
{
alignment = -1;
ref = T;
},
{
alignment = -1;
pos = (23,0);
ref = ethbar;
scale = (0.85,1);
}
);
width = 515;
}
);
unicode = 358;
},
{
glyphname = Tcaron;
kernLeft = T;
kernRight = T;
lastChange = "2023-02-17 07:34:05 +0000";
layers = (
{
background = {
shapes = (
{
closed = 1;
nodes = (
(552,797,o),
(564,809,o),
(564,833,cs),
(564,851,o),
(550,860,o),
(532,860,cs),
(73,860,ls),
(49,860,o),
(36,847,o),
(36,823,cs),
(36,805,o),
(50,797,o),
(69,797,cs),
(258,797,l),
(162,18,o),
(162,15,o),
(162,14,cs),
(162,-11,o),
(180,-14,o),
(202,-14,cs),
(220,-14,o),
(236,-7,o),
(239,18,cs),
(335,797,l),
(528,797,ls,{
name = hr00;
})
);
},
{
closed = 1;
nodes = (
(235,1083,o),
(231,1086,o),
(223,1086,cs),
(210,1086,o),
(193,1072,o),
(193,1056,cs),
(193,1053,o),
(194,1049,o),
(199,1041,cs),
(270,933,ls),
(280,918,o),
(290,910,o),
(309,910,cs),
(329,910,o),
(343,923,o),
(362,941,cs),
(469,1046,ls),
(472,1049,o),
(473,1054,o),
(473,1059,cs),
(473,1073,o),
(462,1085,o),
(448,1085,cs,{
name = hr01;
}),
(444,1085,o),
(439,1084,o),
(434,1080,cs),
(314,994,l),
(243,1073,ls)
);
}
);
};
layerId = master01;
shapes = (
{
ref = T;
},
{
pos = (50,0);
ref = caroncomb.case;
}
);
width = 515;
}
);
unicode = 356;
},
{
glyphname = Tcedilla;
kernLeft = T;
kernRight = T;
lastChange = "2023-02-17 07:34:05 +0000";
layers = (
{
background = {
shapes = (
{
closed = 1;
nodes = (
(552,797,o),
(564,809,o),
(564,833,cs),
(564,851,o),
(550,860,o),
(532,860,cs),
(73,860,ls),
(49,860,o),
(36,847,o),
(36,823,cs),
(36,805,o),
(50,797,o),
(69,797,cs),
(258,797,l),
(162,18,o),
(162,15,o),
(162,14,cs),
(162,-11,o),
(180,-14,o),
(202,-14,cs),
(220,-14,o),
(236,-7,o),
(239,18,cs),
(335,797,l),
(528,797,ls,{
name = hr00;
})
);
},
{
closed = 1;
nodes = (
(155,-72,ls),
(152,-83,o),
(150,-93,o),
(150,-101,cs),
(150,-116,o),
(158,-124,o),
(182,-124,cs),
(225,-124,o),
(273,-137,o),
(273,-193,cs),
(273,-233,o),
(244,-265,o),
(198,-265,cs),
(154,-265,o),
(139,-243,o),
(128,-220,cs),
(121,-206,o),
(109,-203,o),
(101,-203,cs),
(83,-203,o),
(74,-219,o),
(74,-235,cs),
(74,-274,o),
(119,-320,o),
(194,-320,cs),
(268,-320,o),
(335,-280,o),
(335,-185,cs),
(335,-103,o),
(269,-71,o),
(203,-71,c),
(224,0,l),
(176,0,l,{
name = hr00;
})
);
}
);
};
layerId = master01;
shapes = (
{
ref = T;
},
{
pos = (-15,0);
ref = cedillacomb;
}
);
width = 515;
}
);
unicode = 354;
},
{
glyphname = Tcommaaccent;
kernLeft = T;
kernRight = T;
lastChange = "2023-02-17 07:34:05 +0000";
layers = (
{
background = {
shapes = (
{
closed = 1;
nodes = (
(552,797,o),
(564,809,o),
(564,833,cs),
(564,851,o),
(550,860,o),
(532,860,cs),
(73,860,ls),
(49,860,o),
(36,847,o),
(36,823,cs),
(36,805,o),
(50,797,o),
(69,797,cs),
(258,797,l),
(162,18,o),
(162,15,o),
(162,14,cs),
(162,-11,o),
(180,-14,o),
(202,-14,cs),
(220,-14,o),
(236,-7,o),
(239,18,cs),
(335,797,l),
(528,797,ls,{
name = hr00;
})
);
},
{
closed = 1;
nodes = (
(134,-311,o),
(158,-307,o),
(165,-287,cs),
(210,-157,o),
(223,-117,o),
(223,-100,cs),
(223,-78,o),
(203,-70,o),
(185,-70,cs),
(166,-70,o),
(140,-74,o),
(134,-109,cs),
(107,-267,o),
(103,-289,o),
(103,-293,cs),
(103,-307,o),
(111,-311,o),
(126,-311,cs,{
name = hr00;
})
);
}
);
};
layerId = master01;
shapes = (
{
ref = T;
},
{
pos = (91,0);
ref = commaaccentcomb;
}
);
width = 515;
}
);
unicode = 538;
},
{
glyphname = U;
lastChange = "2023-02-17 07:34:05 +0000";
layers = (
{
anchors = (
{
name = bottom;
pos = (371,0);
},
{
name = ogonek;
pos = (483,11);
},
{
name = top;
pos = (426,860);
},
{
name = topright;
pos = (721,860);
}
);
background = {
shapes = (
{
closed = 1;
nodes = (
(59,287,o),
(56,255,o),
(56,225,cs),
(56,76,o),
(116,-14,o),
(302,-14,cs),
(531,-14,o),
(585,108,o),
(612,322,cs),
(675,846,l),
(675,862,o),
(666,872,o),
(640,872,cs),
(619,872,o),
(602,862,o),
(599,846,cs),
(535,322,ls),
(515,160,o),
(486,52,o),
(311,52,cs),
(174,52,o),
(134,120,o),
(134,228,cs),
(134,256,o),
(137,288,o),
(141,322,cs),
(204,846,l),
(204,862,o),
(196,872,o),
(169,872,cs),
(148,872,o),
(132,862,o),
(129,846,cs),
(63,322,ls,{
name = hr00;
})
);
}
);
};
layerId = master01;
shapes = (
{
closed = 1;
nodes = (
(531,-14,o),
(586,108,o),
(612,322,cs),
(675,846,l),
(675,862,o),
(666,872,o),
(640,872,cs),
(619,872,o),
(601,862,o),
(599,846,cs),
(535,322,ls),
(515,160,o),
(486,52,o),
(311,52,cs),
(174,52,o),
(134,120,o),
(134,228,cs),
(134,256,o),
(137,288,o),
(141,322,cs),
(204,846,l),
(204,862,o),
(196,872,o),
(169,872,cs),
(148,872,o),
(131,862,o),
(129,846,cs),
(63,322,ls,{
name = hr00;
}),
(59,287,o),
(56,255,o),
(56,225,cs),
(56,76,o),
(116,-14,o),
(302,-14,cs)
);
}
);
width = 741;
}
);
unicode = 85;
},
{
glyphname = Uacute;
lastChange = "2023-02-17 07:34:05 +0000";
layers = (
{
background = {
shapes = (
{
closed = 1;
nodes = (
(59,287,o),
(56,255,o),
(56,225,cs),
(56,76,o),
(116,-14,o),
(302,-14,cs),
(531,-14,o),
(585,108,o),
(612,322,cs),
(675,846,l),
(675,862,o),
(666,872,o),
(640,872,cs),
(619,872,o),
(602,862,o),
(599,846,cs),
(535,322,ls),
(515,160,o),
(486,52,o),
(311,52,cs),
(174,52,o),
(134,120,o),
(134,228,cs),
(134,256,o),
(137,288,o),
(141,322,cs),
(204,846,l),
(204,862,o),
(196,872,o),
(169,872,cs),
(148,872,o),
(132,862,o),
(129,846,cs),
(63,322,ls,{
name = hr00;
})
);
},
{
closed = 1;
nodes = (
(316,942,o),
(311,934,o),
(311,926,cs),
(311,913,o),
(321,900,o),
(336,900,cs),
(339,900,o),
(341,900,o),
(345,902,cs),
(533,1001,ls),
(550,1010,o),
(553,1016,o),
(553,1031,cs),
(553,1049,o),
(538,1074,o),
(513,1074,cs),
(510,1074,o),
(506,1073,o),
(502,1071,cs),
(319,944,ls,{
name = hr00;
})
);
}
);
};
layerId = master01;
shapes = (
{
ref = U;
},
{
pos = (273,0);
ref = acutecomb.case;
}
);
width = 741;
}
);
unicode = 218;
},
{
glyphname = Ubreve;
lastChange = "2023-02-17 07:34:05 +0000";
layers = (
{
background = {
shapes = (
{
closed = 1;
nodes = (
(59,287,o),
(56,255,o),
(56,225,cs),
(56,76,o),
(116,-14,o),
(302,-14,cs),
(531,-14,o),
(585,108,o),
(612,322,cs),
(675,846,l),
(675,862,o),
(666,872,o),
(640,872,cs),
(619,872,o),
(602,862,o),
(599,846,cs),
(535,322,ls),
(515,160,o),
(486,52,o),
(311,52,cs),
(174,52,o),
(134,120,o),
(134,228,cs),
(134,256,o),
(137,288,o),
(141,322,cs),
(204,846,l),
(204,862,o),
(196,872,o),
(169,872,cs),
(148,872,o),
(132,862,o),
(129,846,cs),
(63,322,ls,{
name = hr00;
})
);
},
{
closed = 1;
nodes = (
(298,1071,o),
(293,1051,o),
(293,1034,cs),
(293,986,o),
(333,903,o),
(399,903,cs),
(505,903,o),
(568,1027,o),
(568,1050,cs),
(568,1062,o),
(560,1071,o),
(548,1071,cs),
(513,1071,o),
(477,974,o),
(414,974,cs),
(347,974,o),
(359,1071,o),
(315,1071,cs,{
name = hr00;
})
);
}
);
};
layerId = master01;
shapes = (
{
ref = U;
},
{
pos = (238,0);
ref = brevecomb.case;
}
);
width = 741;
}
);
unicode = 364;
},
{
glyphname = Ucircumflex;
lastChange = "2023-02-17 07:34:05 +0000";
layers = (
{
background = {
shapes = (
{
closed = 1;
nodes = (
(59,287,o),
(56,255,o),
(56,225,cs),
(56,76,o),
(116,-14,o),
(302,-14,cs),
(531,-14,o),
(585,108,o),
(612,322,cs),
(675,846,l),
(675,862,o),
(666,872,o),
(640,872,cs),
(619,872,o),
(602,862,o),
(599,846,cs),
(535,322,ls),
(515,160,o),
(486,52,o),
(311,52,cs),
(174,52,o),
(134,120,o),
(134,228,cs),
(134,256,o),
(137,288,o),
(141,322,cs),
(204,846,l),
(204,862,o),
(196,872,o),
(169,872,cs),
(148,872,o),
(132,862,o),
(129,846,cs),
(63,322,ls,{
name = hr00;
})
);
},
{
closed = 1;
nodes = (
(517,913,o),
(521,910,o),
(529,910,cs),
(542,910,o),
(558,924,o),
(558,940,cs),
(558,943,o),
(557,947,o),
(552,955,cs),
(481,1063,ls),
(471,1078,o),
(461,1086,o),
(442,1086,cs),
(422,1086,o),
(408,1073,o),
(389,1055,cs),
(282,950,ls),
(279,947,o),
(278,942,o),
(278,937,cs),
(278,923,o),
(288,911,o),
(302,911,cs,{
name = hr01;
}),
(308,911,o),
(312,912,o),
(317,916,cs),
(437,1002,l),
(508,923,ls)
);
}
);
};
layerId = master01;
shapes = (
{
ref = U;
},
{
pos = (226,0);
ref = circumflexcomb.case;
}
);
width = 741;
}
);
unicode = 219;
},
{
glyphname = Udieresis;
lastChange = "2023-02-17 07:34:05 +0000";
layers = (
{
background = {
shapes = (
{
closed = 1;
nodes = (
(59,287,o),
(56,255,o),
(56,225,cs),
(56,76,o),
(116,-14,o),
(302,-14,cs),
(531,-14,o),
(585,108,o),
(612,322,cs),
(675,846,l),
(675,862,o),
(666,872,o),
(640,872,cs),
(619,872,o),
(602,862,o),
(599,846,cs),
(535,322,ls),
(515,160,o),
(486,52,o),
(311,52,cs),
(174,52,o),
(134,120,o),
(134,228,cs),
(134,256,o),
(137,288,o),
(141,322,cs),
(204,846,l),
(204,862,o),
(196,872,o),
(169,872,cs),
(148,872,o),
(132,862,o),
(129,846,cs),
(63,322,ls,{
name = hr00;
})
);
},
{
closed = 1;
nodes = (
(377,1013,o),
(367,1029,o),
(332,1029,cs),
(286,1029,o),
(275,999,o),
(275,968,cs),
(275,947,o),
(285,930,o),
(320,930,cs),
(366,930,o),
(377,961,o),
(377,992,cs,{
name = hr00;
})
);
},
{
closed = 1;
nodes = (
(569,1013,o),
(559,1029,o),
(524,1029,cs),
(478,1029,o),
(467,999,o),
(467,968,cs),
(467,947,o),
(477,930,o),
(512,930,cs),
(558,930,o),
(569,961,o),
(569,992,cs)
);
}
);
};
layerId = master01;
shapes = (
{
ref = U;
},
{
pos = (229,0);
ref = dieresiscomb.case;
}
);
width = 741;
}
);
unicode = 220;
},
{
glyphname = Ugrave;
lastChange = "2023-02-17 07:34:05 +0000";
layers = (
{
background = {
shapes = (
{
closed = 1;
nodes = (
(59,287,o),
(56,255,o),
(56,225,cs),
(56,76,o),
(116,-14,o),
(302,-14,cs),
(531,-14,o),
(585,108,o),
(612,322,cs),
(675,846,l),
(675,862,o),
(666,872,o),
(640,872,cs),
(619,872,o),
(602,862,o),
(599,846,cs),
(535,322,ls),
(515,160,o),
(486,52,o),
(311,52,cs),
(174,52,o),
(134,120,o),
(134,228,cs),
(134,256,o),
(137,288,o),
(141,322,cs),
(204,846,l),
(204,862,o),
(196,872,o),
(169,872,cs),
(148,872,o),
(132,862,o),
(129,846,cs),
(63,322,ls,{
name = hr00;
})
);
},
{
closed = 1;
nodes = (
(326,1074,o),
(320,1074,o),
(317,1074,cs),
(294,1074,o),
(279,1049,o),
(279,1031,cs),
(279,1016,o),
(282,1010,o),
(299,1001,cs),
(487,902,ls),
(491,900,o),
(493,900,o),
(496,900,cs),
(511,900,o),
(521,913,o),
(521,926,cs),
(521,934,o),
(516,942,o),
(513,944,cs),
(330,1071,ls,{
name = hr00;
})
);
}
);
};
layerId = master01;
shapes = (
{
ref = U;
},
{
pos = (273,0);
ref = gravecomb.case;
}
);
width = 741;
}
);
unicode = 217;
},
{
glyphname = Uhungarumlaut;
lastChange = "2023-02-17 07:34:05 +0000";
layers = (
{
background = {
shapes = (
{
closed = 1;
nodes = (
(59,287,o),
(56,255,o),
(56,225,cs),
(56,76,o),
(116,-14,o),
(302,-14,cs),
(531,-14,o),
(585,108,o),
(612,322,cs),
(675,846,l),
(675,862,o),
(666,872,o),
(640,872,cs),
(619,872,o),
(602,862,o),
(599,846,cs),
(535,322,ls),
(515,160,o),
(486,52,o),
(311,52,cs),
(174,52,o),
(134,120,o),
(134,228,cs),
(134,256,o),
(137,288,o),
(141,322,cs),
(204,846,l),
(204,862,o),
(196,872,o),
(169,872,cs),
(148,872,o),
(132,862,o),
(129,846,cs),
(63,322,ls,{
name = hr00;
})
);
},
{
closed = 1;
nodes = (
(224,942,o),
(219,934,o),
(219,926,cs),
(219,913,o),
(229,900,o),
(244,900,cs),
(247,900,o),
(249,900,o),
(253,902,cs),
(441,1001,ls),
(458,1010,o),
(461,1016,o),
(461,1031,cs),
(461,1049,o),
(446,1074,o),
(421,1074,cs),
(418,1074,o),
(414,1073,o),
(410,1071,cs),
(227,944,ls,{
name = hr00;
})
);
},
{
closed = 1;
nodes = (
(444,942,o),
(439,934,o),
(439,926,cs),
(439,913,o),
(449,900,o),
(464,900,cs),
(467,900,o),
(469,900,o),
(473,902,cs),
(661,1001,ls),
(678,1010,o),
(681,1016,o),
(681,1031,cs),
(681,1049,o),
(666,1074,o),
(641,1074,cs),
(638,1074,o),
(634,1073,o),
(630,1071,cs),
(447,944,ls)
);
}
);
};
layerId = master01;
shapes = (
{
ref = U;
},
{
pos = (175,0);
ref = hungarumlautcomb.case;
}
);
width = 741;
}
);
unicode = 368;
},
{
glyphname = Umacron;
lastChange = "2023-02-17 07:34:05 +0000";
layers = (
{
background = {
shapes = (
{
closed = 1;
nodes = (
(59,287,o),
(56,255,o),
(56,225,cs),
(56,76,o),
(116,-14,o),
(302,-14,cs),
(531,-14,o),
(585,108,o),
(612,322,cs),
(675,846,l),
(675,862,o),
(666,872,o),
(640,872,cs),
(619,872,o),
(602,862,o),
(599,846,cs),
(535,322,ls),
(515,160,o),
(486,52,o),
(311,52,cs),
(174,52,o),
(134,120,o),
(134,228,cs),
(134,256,o),
(137,288,o),
(141,322,cs),
(204,846,l),
(204,862,o),
(196,872,o),
(169,872,cs),
(148,872,o),
(132,862,o),
(129,846,cs),
(63,322,ls,{
name = hr00;
})
);
},
{
closed = 1;
nodes = (
(288,1007,o),
(281,988,o),
(281,973,cs),
(281,958,o),
(288,946,o),
(304,946,cs),
(522,946,ls),
(552,946,o),
(559,965,o),
(559,980,cs),
(559,995,o),
(552,1007,o),
(536,1007,cs),
(318,1007,ls,{
name = hr00;
})
);
}
);
};
layerId = master01;
shapes = (
{
ref = U;
},
{
pos = (222,0);
ref = macroncomb.case;
}
);
width = 741;
}
);
unicode = 362;
},
{
glyphname = Uogonek;
lastChange = "2023-02-17 07:34:05 +0000";
layers = (
{
background = {
shapes = (
{
closed = 1;
nodes = (
(59,287,o),
(56,255,o),
(56,225,cs),
(56,76,o),
(116,-14,o),
(302,-14,cs),
(531,-14,o),
(585,108,o),
(612,322,cs),
(675,846,l),
(675,862,o),
(666,872,o),
(640,872,cs),
(619,872,o),
(602,862,o),
(599,846,cs),
(535,322,ls),
(515,160,o),
(486,52,o),
(311,52,cs),
(174,52,o),
(134,120,o),
(134,228,cs),
(134,256,o),
(137,288,o),
(141,322,cs),
(204,846,l),
(204,862,o),
(196,872,o),
(169,872,cs),
(148,872,o),
(132,862,o),
(129,846,cs),
(63,322,ls,{
name = hr00;
})
);
},
{
closed = 1;
nodes = (
(238,-11,o),
(206,-63,o),
(206,-113,cs),
(206,-172,o),
(254,-229,o),
(340,-229,cs),
(398,-229,o),
(483,-189,o),
(483,-156,cs),
(483,-139,o),
(475,-131,o),
(461,-131,cs),
(440,-131,o),
(405,-172,o),
(344,-172,cs,{
name = hr01;
}),
(299,-172,o),
(274,-142,o),
(274,-107,cs),
(274,-62,o),
(308,-9,o),
(380,11,c),
(312,11,l)
);
}
);
};
layerId = master01;
shapes = (
{
ref = U;
},
{
pos = (71,0);
ref = ogonekcomb;
}
);
width = 741;
}
);
unicode = 370;
},
{
glyphname = Uring;
lastChange = "2023-02-17 07:34:05 +0000";
layers = (
{
background = {
shapes = (
{
closed = 1;
nodes = (
(59,287,o),
(56,255,o),
(56,225,cs),
(56,76,o),
(116,-14,o),
(302,-14,cs),
(531,-14,o),
(585,108,o),
(612,322,cs),
(675,846,l),
(675,862,o),
(666,872,o),
(640,872,cs),
(619,872,o),
(602,862,o),
(599,846,cs),
(535,322,ls),
(515,160,o),
(486,52,o),
(311,52,cs),
(174,52,o),
(134,120,o),
(134,228,cs),
(134,256,o),
(137,288,o),
(141,322,cs),
(204,846,l),
(204,862,o),
(196,872,o),
(169,872,cs),
(148,872,o),
(132,862,o),
(129,846,cs),
(63,322,ls,{
name = hr00;
})
);
},
{
closed = 1;
nodes = (
(319,913,o),
(349,868,o),
(412,868,cs),
(488,868,o),
(537,927,o),
(537,996,cs),
(537,1047,o),
(506,1094,o),
(443,1094,cs),
(355,1094,o),
(319,1022,o),
(319,964,cs,{
name = hr00;
})
);
},
{
closed = 1;
nodes = (
(374,1004,o),
(395,1043,o),
(438,1043,cs),
(469,1043,o),
(483,1021,o),
(483,989,cs),
(483,951,o),
(456,917,o),
(419,917,cs),
(387,917,o),
(374,940,o),
(374,970,cs)
);
}
);
};
layerId = master01;
shapes = (
{
ref = U;
},
{
pos = (264,0);
ref = ringcomb.case;
}
);
width = 741;
}
);
unicode = 366;
},
{
glyphname = Utilde;
lastChange = "2023-02-17 07:34:05 +0000";
layers = (
{
background = {
shapes = (
{
closed = 1;
nodes = (
(59,287,o),
(56,255,o),
(56,225,cs),
(56,76,o),
(116,-14,o),
(302,-14,cs),
(531,-14,o),
(585,108,o),
(612,322,cs),
(675,846,l),
(675,862,o),
(666,872,o),
(640,872,cs),
(619,872,o),
(602,862,o),
(599,846,cs),
(535,322,ls),
(515,160,o),
(486,52,o),
(311,52,cs),
(174,52,o),
(134,120,o),
(134,228,cs),
(134,256,o),
(137,288,o),
(141,322,cs),
(204,846,l),
(204,862,o),
(196,872,o),
(169,872,cs),
(148,872,o),
(132,862,o),
(129,846,cs),
(63,322,ls,{
name = hr00;
})
);
},
{
closed = 1;
nodes = (
(442,991,o),
(406,1031,o),
(367,1031,cs,{
name = hr01;
}),
(314,1031,o),
(260,966,o),
(260,953,cs),
(260,936,o),
(268,922,o),
(289,922,cs,{
name = hr02;
}),
(300,922,o),
(326,962,o),
(365,962,cs,{
name = hr03;
}),
(405,962,o),
(441,922,o),
(480,922,cs,{
name = hr04;
}),
(533,922,o),
(587,987,o),
(587,1000,cs),
(587,1017,o),
(579,1031,o),
(558,1031,cs,{
name = hr05;
}),
(547,1031,o),
(521,991,o),
(482,991,cs)
);
}
);
};
layerId = master01;
shapes = (
{
ref = U;
},
{
pos = (212,0);
ref = tildecomb.case;
}
);
width = 741;
}
);
unicode = 360;
},
{
glyphname = V;
kernLeft = V;
kernRight = V;
lastChange = "2023-02-17 07:34:05 +0000";
layers = (
{
anchors = (
{
name = bottom;
pos = (312,0);
},
{
name = top;
pos = (312,860);
}
);
background = {
shapes = (
{
closed = 1;
nodes = (
(147,843,l),
(141,867,o),
(129,872,o),
(104,872,cs),
(81,872,o),
(66,864,o),
(66,847,cs),
(66,844,o),
(67,841,o),
(67,839,cs),
(199,15,l),
(204,-8,o),
(224,-14,o),
(249,-14,cs),
(274,-14,o),
(295,-7,o),
(305,15,cs),
(601,720,ls),
(633,795,o),
(645,833,o),
(645,839,cs),
(645,865,o),
(617,872,o),
(599,872,cs),
(577,872,o),
(567,839,o),
(542,778,cs),
(260,99,l,{
name = hr00;
})
);
}
);
};
layerId = master01;
shapes = (
{
closed = 1;
nodes = (
(274,-14,o),
(295,-7,o),
(305,15,cs),
(601,720,ls),
(633,795,o),
(645,833,o),
(645,839,cs),
(645,865,o),
(617,872,o),
(599,872,cs),
(577,872,o),
(567,839,o),
(542,778,cs),
(260,99,l,{
name = hr00;
}),
(147,843,l),
(141,867,o),
(129,872,o),
(104,872,cs),
(81,872,o),
(66,864,o),
(66,847,cs),
(66,844,o),
(67,841,o),
(67,839,cs),
(199,15,l),
(204,-8,o),
(224,-14,o),
(249,-14,cs)
);
}
);
width = 624;
}
);
unicode = 86;
},
{
glyphname = W;
kernLeft = W;
kernRight = W;
lastChange = "2023-02-17 07:34:05 +0000";
layers = (
{
anchors = (
{
name = bottom;
pos = (482,0);
},
{
name = top;
pos = (551,860);
}
);
background = {
shapes = (
{
closed = 1;
nodes = (
(147,843,ls),
(143,867,o),
(129,872,o),
(104,872,cs),
(81,872,o),
(66,864,o),
(66,847,cs),
(66,844,o),
(67,841,o),
(67,839,cs),
(199,15,l),
(204,-8,o),
(224,-14,o),
(249,-14,cs),
(274,-14,o),
(295,-7,o),
(305,15,c),
(512,692,l),
(620,15,l),
(626,-8,o),
(645,-14,o),
(671,-14,cs),
(696,-14,o),
(717,-7,o),
(727,15,c),
(949,717,ls),
(983,825,o),
(986,836,o),
(986,839,cs),
(986,865,o),
(955,872,o),
(937,872,cs),
(917,872,o),
(914,855,o),
(910,844,cs),
(682,99,l),
(568,843,ls),
(564,867,o),
(550,872,o),
(525,872,cs),
(521,872,ls),
(497,872,o),
(491,855,o),
(487,841,cs),
(260,99,l,{
name = hr00;
})
);
}
);
};
layerId = master01;
shapes = (
{
closed = 1;
nodes = (
(274,-14,o),
(295,-7,o),
(305,15,c),
(512,692,l),
(620,15,l),
(626,-8,o),
(645,-14,o),
(671,-14,cs),
(696,-14,o),
(717,-7,o),
(727,15,c),
(949,717,ls),
(983,825,o),
(986,836,o),
(986,839,cs),
(986,865,o),
(955,872,o),
(937,872,cs),
(917,872,o),
(913,855,o),
(910,844,cs),
(682,99,l),
(568,843,ls),
(564,867,o),
(550,872,o),
(525,872,cs),
(521,872,ls),
(497,872,o),
(491,855,o),
(487,841,cs),
(260,99,l,{
name = hr00;
}),
(147,843,ls),
(143,867,o),
(129,872,o),
(104,872,cs),
(81,872,o),
(66,864,o),
(66,847,cs),
(66,844,o),
(67,841,o),
(67,839,cs),
(199,15,l),
(204,-8,o),
(224,-14,o),
(249,-14,cs)
);
}
);
width = 963;
}
);
unicode = 87;
},
{
glyphname = Wacute;
kernLeft = W;
kernRight = W;
lastChange = "2023-02-17 07:34:05 +0000";
layers = (
{
background = {
shapes = (
{
closed = 1;
nodes = (
(147,843,ls),
(143,867,o),
(129,872,o),
(104,872,cs),
(81,872,o),
(66,864,o),
(66,847,cs),
(66,844,o),
(67,841,o),
(67,839,cs),
(199,15,l),
(204,-8,o),
(224,-14,o),
(249,-14,cs),
(274,-14,o),
(295,-7,o),
(305,15,c),
(512,692,l),
(620,15,l),
(626,-8,o),
(645,-14,o),
(671,-14,cs),
(696,-14,o),
(717,-7,o),
(727,15,c),
(949,717,ls),
(983,825,o),
(986,836,o),
(986,839,cs),
(986,865,o),
(955,872,o),
(937,872,cs),
(917,872,o),
(914,855,o),
(910,844,cs),
(682,99,l),
(568,843,ls),
(564,867,o),
(550,872,o),
(525,872,cs),
(521,872,ls),
(497,872,o),
(491,855,o),
(487,841,cs),
(260,99,l,{
name = hr00;
})
);
},
{
closed = 1;
nodes = (
(434,942,o),
(429,934,o),
(429,926,cs),
(429,913,o),
(439,900,o),
(454,900,cs),
(457,900,o),
(459,900,o),
(463,902,cs),
(651,1001,ls),
(668,1010,o),
(671,1016,o),
(671,1031,cs),
(671,1049,o),
(656,1074,o),
(631,1074,cs),
(628,1074,o),
(624,1073,o),
(620,1071,cs),
(437,944,ls,{
name = hr00;
})
);
}
);
};
layerId = master01;
shapes = (
{
ref = W;
},
{
pos = (398,0);
ref = acutecomb.case;
}
);
width = 963;
}
);
unicode = 7810;
},
{
glyphname = Wcircumflex;
kernLeft = W;
kernRight = W;
lastChange = "2023-02-17 07:34:05 +0000";
layers = (
{
background = {
shapes = (
{
closed = 1;
nodes = (
(147,843,ls),
(143,867,o),
(129,872,o),
(104,872,cs),
(81,872,o),
(66,864,o),
(66,847,cs),
(66,844,o),
(67,841,o),
(67,839,cs),
(199,15,l),
(204,-8,o),
(224,-14,o),
(249,-14,cs),
(274,-14,o),
(295,-7,o),
(305,15,c),
(512,692,l),
(620,15,l),
(626,-8,o),
(645,-14,o),
(671,-14,cs),
(696,-14,o),
(717,-7,o),
(727,15,c),
(949,717,ls),
(983,825,o),
(986,836,o),
(986,839,cs),
(986,865,o),
(955,872,o),
(937,872,cs),
(917,872,o),
(914,855,o),
(910,844,cs),
(682,99,l),
(568,843,ls),
(564,867,o),
(550,872,o),
(525,872,cs),
(521,872,ls),
(497,872,o),
(491,855,o),
(487,841,cs),
(260,99,l,{
name = hr00;
})
);
},
{
closed = 1;
nodes = (
(649,913,o),
(653,910,o),
(661,910,cs),
(674,910,o),
(690,924,o),
(690,940,cs),
(690,943,o),
(689,947,o),
(684,955,cs),
(613,1063,ls),
(603,1078,o),
(593,1086,o),
(574,1086,cs),
(554,1086,o),
(540,1073,o),
(521,1055,cs),
(414,950,ls),
(411,947,o),
(410,942,o),
(410,937,cs),
(410,923,o),
(420,911,o),
(434,911,cs,{
name = hr01;
}),
(440,911,o),
(444,912,o),
(449,916,cs),
(569,1002,l),
(640,923,ls)
);
}
);
};
layerId = master01;
shapes = (
{
ref = W;
},
{
pos = (351,0);
ref = circumflexcomb.case;
}
);
width = 963;
}
);
unicode = 372;
},
{
glyphname = Wdieresis;
kernLeft = W;
kernRight = W;
lastChange = "2023-02-17 07:34:05 +0000";
layers = (
{
background = {
shapes = (
{
closed = 1;
nodes = (
(147,843,ls),
(143,867,o),
(129,872,o),
(104,872,cs),
(81,872,o),
(66,864,o),
(66,847,cs),
(66,844,o),
(67,841,o),
(67,839,cs),
(199,15,l),
(204,-8,o),
(224,-14,o),
(249,-14,cs),
(274,-14,o),
(295,-7,o),
(305,15,c),
(512,692,l),
(620,15,l),
(626,-8,o),
(645,-14,o),
(671,-14,cs),
(696,-14,o),
(717,-7,o),
(727,15,c),
(949,717,ls),
(983,825,o),
(986,836,o),
(986,839,cs),
(986,865,o),
(955,872,o),
(937,872,cs),
(917,872,o),
(914,855,o),
(910,844,cs),
(682,99,l),
(568,843,ls),
(564,867,o),
(550,872,o),
(525,872,cs),
(521,872,ls),
(497,872,o),
(491,855,o),
(487,841,cs),
(260,99,l,{
name = hr00;
})
);
},
{
closed = 1;
nodes = (
(502,1013,o),
(492,1029,o),
(457,1029,cs),
(411,1029,o),
(400,999,o),
(400,968,cs),
(400,947,o),
(410,930,o),
(445,930,cs),
(491,930,o),
(502,961,o),
(502,992,cs,{
name = hr00;
})
);
},
{
closed = 1;
nodes = (
(694,1013,o),
(684,1029,o),
(649,1029,cs),
(603,1029,o),
(592,999,o),
(592,968,cs),
(592,947,o),
(602,930,o),
(637,930,cs),
(683,930,o),
(694,961,o),
(694,992,cs)
);
}
);
};
layerId = master01;
shapes = (
{
ref = W;
},
{
pos = (354,0);
ref = dieresiscomb.case;
}
);
width = 963;
}
);
unicode = 7812;
},
{
glyphname = Wgrave;
kernLeft = W;
kernRight = W;
lastChange = "2023-02-17 07:34:05 +0000";
layers = (
{
background = {
shapes = (
{
closed = 1;
nodes = (
(147,843,ls),
(143,867,o),
(129,872,o),
(104,872,cs),
(81,872,o),
(66,864,o),
(66,847,cs),
(66,844,o),
(67,841,o),
(67,839,cs),
(199,15,l),
(204,-8,o),
(224,-14,o),
(249,-14,cs),
(274,-14,o),
(295,-7,o),
(305,15,c),
(512,692,l),
(620,15,l),
(626,-8,o),
(645,-14,o),
(671,-14,cs),
(696,-14,o),
(717,-7,o),
(727,15,c),
(949,717,ls),
(983,825,o),
(986,836,o),
(986,839,cs),
(986,865,o),
(955,872,o),
(937,872,cs),
(917,872,o),
(914,855,o),
(910,844,cs),
(682,99,l),
(568,843,ls),
(564,867,o),
(550,872,o),
(525,872,cs),
(521,872,ls),
(497,872,o),
(491,855,o),
(487,841,cs),
(260,99,l,{
name = hr00;
})
);
},
{
closed = 1;
nodes = (
(465,1074,o),
(459,1074,o),
(456,1074,cs),
(433,1074,o),
(418,1049,o),
(418,1031,cs),
(418,1016,o),
(421,1010,o),
(438,1001,cs),
(626,902,ls),
(630,900,o),
(632,900,o),
(635,900,cs),
(650,900,o),
(660,913,o),
(660,926,cs),
(660,934,o),
(655,942,o),
(652,944,cs),
(469,1071,ls,{
name = hr00;
})
);
}
);
};
layerId = master01;
shapes = (
{
ref = W;
},
{
pos = (398,0);
ref = gravecomb.case;
}
);
width = 963;
}
);
unicode = 7808;
},
{
glyphname = X;
kernRight = X;
lastChange = "2023-02-17 07:34:05 +0000";
layers = (
{
anchors = (
{
name = bottom;
pos = (320,0);
},
{
name = top;
pos = (320,860);
}
);
background = {
shapes = (
{
closed = 1;
nodes = (
(-31,45,l),
(-36,39,o),
(-41,28,o),
(-41,18,cs),
(-41,0,o),
(-25,-14,o),
(-6,-14,cs),
(14,-14,o),
(28,-3,o),
(41,15,cs),
(312,385,l),
(448,62,ls),
(473,0,o),
(480,-14,o),
(512,-14,cs),
(532,-14,o),
(547,-1,o),
(547,15,cs),
(547,34,o),
(543,42,o),
(518,99,cs),
(364,454,l),
(641,816,ls),
(647,823,o),
(650,832,o),
(650,839,cs),
(650,860,o),
(636,872,o),
(615,872,cs),
(596,872,o),
(585,864,o),
(571,846,cs),
(332,521,l),
(195,843,ls),
(185,865,o),
(174,872,o),
(148,872,cs),
(126,872,o),
(108,864,o),
(108,847,cs),
(108,844,o),
(109,841,o),
(280,455,c,{
name = hr00;
})
);
}
);
};
layerId = master01;
shapes = (
{
closed = 1;
nodes = (
(14,-14,o),
(28,-3,o),
(41,15,cs),
(312,385,l),
(448,62,ls),
(473,0,o),
(480,-14,o),
(512,-14,cs),
(532,-14,o),
(547,-1,o),
(547,15,cs),
(547,34,o),
(543,42,o),
(518,99,cs),
(364,454,l),
(641,816,ls),
(647,823,o),
(650,832,o),
(650,839,cs),
(650,860,o),
(636,872,o),
(615,872,cs),
(596,872,o),
(585,864,o),
(571,846,cs),
(332,521,l),
(195,843,ls),
(185,865,o),
(174,872,o),
(148,872,cs),
(126,872,o),
(108,864,o),
(108,847,cs),
(108,844,o),
(109,841,o),
(280,455,c,{
name = hr00;
}),
(-31,45,l),
(-36,39,o),
(-41,28,o),
(-41,18,cs),
(-41,0,o),
(-25,-14,o),
(-6,-14,cs)
);
}
);
width = 640;
}
);
unicode = 88;
},
{
glyphname = Y;
kernLeft = Y;
kernRight = Y;
lastChange = "2023-02-17 07:34:05 +0000";
layers = (
{
anchors = (
{
name = bottom;
pos = (298,0);
},
{
name = top;
pos = (378,860);
},
{
name = topleft;
pos = (20,860);
}
);
background = {
shapes = (
{
closed = 1;
nodes = (
(623,812,ls),
(630,821,o),
(634,834,o),
(634,844,cs),
(634,862,o),
(620,872,o),
(595,872,cs),
(575,872,o),
(564,865,o),
(556,854,cs),
(284,473,l),
(143,843,ls),
(134,865,o),
(125,872,o),
(99,872,cs),
(77,872,o),
(59,864,o),
(59,847,cs),
(59,844,o),
(60,841,o),
(60,839,cs),
(234,396,l),
(189,24,ls),
(188,16,o),
(188,10,o),
(188,9,cs),
(188,-12,o),
(207,-14,o),
(228,-14,cs),
(246,-14,o),
(262,-7,o),
(265,18,cs),
(312,393,l,{
name = hr00;
})
);
}
);
};
layerId = master01;
shapes = (
{
closed = 1;
nodes = (
(246,-14,o),
(262,-7,o),
(265,18,cs),
(312,393,l,{
name = hr00;
}),
(623,812,ls),
(630,821,o),
(634,834,o),
(634,844,cs),
(634,862,o),
(620,872,o),
(595,872,cs),
(575,872,o),
(564,865,o),
(556,854,cs),
(284,473,l),
(143,843,ls),
(135,865,o),
(125,872,o),
(99,872,cs),
(77,872,o),
(59,864,o),
(59,847,cs),
(59,844,o),
(59,841,o),
(60,839,cs),
(234,396,l),
(189,24,ls),
(188,16,o),
(188,10,o),
(188,9,cs),
(188,-12,o),
(207,-14,o),
(228,-14,cs)
);
}
);
width = 596;
}
);
unicode = 89;
},
{
glyphname = Yacute;
kernLeft = Y;
kernRight = Y;
lastChange = "2023-02-17 07:34:05 +0000";
layers = (
{
background = {
shapes = (
{
closed = 1;
nodes = (
(623,812,ls),
(630,821,o),
(634,834,o),
(634,844,cs),
(634,862,o),
(620,872,o),
(595,872,cs),
(575,872,o),
(564,865,o),
(556,854,cs),
(284,473,l),
(143,843,ls),
(134,865,o),
(125,872,o),
(99,872,cs),
(77,872,o),
(59,864,o),
(59,847,cs),
(59,844,o),
(60,841,o),
(60,839,cs),
(234,396,l),
(189,24,ls),
(188,16,o),
(188,10,o),
(188,9,cs),
(188,-12,o),
(207,-14,o),
(228,-14,cs),
(246,-14,o),
(262,-7,o),
(265,18,cs),
(312,393,l,{
name = hr00;
})
);
},
{
closed = 1;
nodes = (
(264,942,o),
(259,934,o),
(259,926,cs),
(259,913,o),
(269,900,o),
(284,900,cs),
(287,900,o),
(289,900,o),
(293,902,cs),
(481,1001,ls),
(498,1010,o),
(501,1016,o),
(501,1031,cs),
(501,1049,o),
(486,1074,o),
(461,1074,cs),
(458,1074,o),
(454,1073,o),
(450,1071,cs),
(267,944,ls,{
name = hr00;
})
);
}
);
};
layerId = master01;
shapes = (
{
ref = Y;
},
{
pos = (225,0);
ref = acutecomb.case;
}
);
width = 596;
}
);
unicode = 221;
},
{
glyphname = Ycircumflex;
kernLeft = Y;
kernRight = Y;
lastChange = "2023-02-17 07:34:05 +0000";
layers = (
{
background = {
shapes = (
{
closed = 1;
nodes = (
(623,812,ls),
(630,821,o),
(634,834,o),
(634,844,cs),
(634,862,o),
(620,872,o),
(595,872,cs),
(575,872,o),
(564,865,o),
(556,854,cs),
(284,473,l),
(143,843,ls),
(134,865,o),
(125,872,o),
(99,872,cs),
(77,872,o),
(59,864,o),
(59,847,cs),
(59,844,o),
(60,841,o),
(60,839,cs),
(234,396,l),
(189,24,ls),
(188,16,o),
(188,10,o),
(188,9,cs),
(188,-12,o),
(207,-14,o),
(228,-14,cs),
(246,-14,o),
(262,-7,o),
(265,18,cs),
(312,393,l,{
name = hr00;
})
);
},
{
closed = 1;
nodes = (
(453,913,o),
(457,910,o),
(465,910,cs),
(478,910,o),
(494,924,o),
(494,940,cs),
(494,943,o),
(493,947,o),
(488,955,cs),
(417,1063,ls),
(407,1078,o),
(397,1086,o),
(378,1086,cs),
(358,1086,o),
(344,1073,o),
(325,1055,cs),
(218,950,ls),
(215,947,o),
(214,942,o),
(214,937,cs),
(214,923,o),
(224,911,o),
(238,911,cs,{
name = hr01;
}),
(244,911,o),
(248,912,o),
(253,916,cs),
(373,1002,l),
(444,923,ls)
);
}
);
};
layerId = master01;
shapes = (
{
ref = Y;
},
{
pos = (178,0);
ref = circumflexcomb.case;
}
);
width = 596;
}
);
unicode = 374;
},
{
glyphname = Ydieresis;
kernLeft = Y;
kernRight = Y;
lastChange = "2023-02-17 07:34:05 +0000";
layers = (
{
background = {
shapes = (
{
closed = 1;
nodes = (
(623,812,ls),
(630,821,o),
(634,834,o),
(634,844,cs),
(634,862,o),
(620,872,o),
(595,872,cs),
(575,872,o),
(564,865,o),
(556,854,cs),
(284,473,l),
(143,843,ls),
(134,865,o),
(125,872,o),
(99,872,cs),
(77,872,o),
(59,864,o),
(59,847,cs),
(59,844,o),
(60,841,o),
(60,839,cs),
(234,396,l),
(189,24,ls),
(188,16,o),
(188,10,o),
(188,9,cs),
(188,-12,o),
(207,-14,o),
(228,-14,cs),
(246,-14,o),
(262,-7,o),
(265,18,cs),
(312,393,l,{
name = hr00;
})
);
},
{
closed = 1;
nodes = (
(332,1013,o),
(322,1029,o),
(287,1029,cs),
(241,1029,o),
(230,999,o),
(230,968,cs),
(230,947,o),
(240,930,o),
(275,930,cs),
(321,930,o),
(332,961,o),
(332,992,cs,{
name = hr00;
})
);
},
{
closed = 1;
nodes = (
(524,1013,o),
(514,1029,o),
(479,1029,cs),
(433,1029,o),
(422,999,o),
(422,968,cs),
(422,947,o),
(432,930,o),
(467,930,cs),
(513,930,o),
(524,961,o),
(524,992,cs)
);
}
);
};
layerId = master01;
shapes = (
{
ref = Y;
},
{
pos = (181,0);
ref = dieresiscomb.case;
}
);
width = 596;
}
);
unicode = 376;
},
{
glyphname = Ygrave;
kernLeft = Y;
kernRight = Y;
lastChange = "2023-02-17 07:34:05 +0000";
layers = (
{
background = {
shapes = (
{
closed = 1;
nodes = (
(623,812,ls),
(630,821,o),
(634,834,o),
(634,844,cs),
(634,862,o),
(620,872,o),
(595,872,cs),
(575,872,o),
(564,865,o),
(556,854,cs),
(284,473,l),
(143,843,ls),
(134,865,o),
(125,872,o),
(99,872,cs),
(77,872,o),
(59,864,o),
(59,847,cs),
(59,844,o),
(60,841,o),
(60,839,cs),
(234,396,l),
(189,24,ls),
(188,16,o),
(188,10,o),
(188,9,cs),
(188,-12,o),
(207,-14,o),
(228,-14,cs),
(246,-14,o),
(262,-7,o),
(265,18,cs),
(312,393,l,{
name = hr00;
})
);
},
{
closed = 1;
nodes = (
(274,1074,o),
(268,1074,o),
(265,1074,cs),
(242,1074,o),
(227,1049,o),
(227,1031,cs),
(227,1016,o),
(230,1010,o),
(247,1001,cs),
(435,902,ls),
(439,900,o),
(441,900,o),
(444,900,cs),
(459,900,o),
(469,913,o),
(469,926,cs),
(469,934,o),
(464,942,o),
(461,944,cs),
(278,1071,ls,{
name = hr00;
})
);
}
);
};
layerId = master01;
shapes = (
{
ref = Y;
},
{
pos = (225,0);
ref = gravecomb.case;
}
);
width = 596;
}
);
unicode = 7922;
},
{
glyphname = Z;
lastChange = "2023-02-17 07:34:05 +0000";
layers = (
{
anchors = (
{
name = bottom;
pos = (312,0);
},
{
name = center;
pos = (312,430);
},
{
name = top;
pos = (371,860);
}
);
background = {
shapes = (
{
closed = 1;
nodes = (
(20,43,o),
(17,36,o),
(17,27,cs),
(17,8,o),
(31,0,o),
(49,0,cs),
(535,0,ls),
(559,0,o),
(571,13,o),
(571,36,cs),
(571,55,o),
(557,63,o),
(539,63,cs),
(119,63,l),
(119,63,o),
(146,95,o),
(169,136,cs),
(584,811,ls),
(587,816,o),
(589,823,o),
(589,833,cs),
(589,851,o),
(575,860,o),
(557,860,cs),
(123,860,ls),
(99,860,o),
(87,847,o),
(87,823,cs),
(87,805,o),
(101,797,o),
(119,797,cs),
(490,797,l),
(483,785,o),
(461,757,o),
(442,727,cs),
(22,49,ls,{
name = hr00;
})
);
}
);
};
layerId = master01;
shapes = (
{
closed = 1;
nodes = (
(535,0,ls),
(559,0,o),
(571,13,o),
(571,36,cs),
(571,55,o),
(557,63,o),
(539,63,cs),
(119,63,l),
(119,63,o),
(144,96,o),
(169,136,cs),
(584,811,ls),
(587,816,o),
(589,823,o),
(589,833,cs),
(589,851,o),
(575,860,o),
(557,860,cs),
(123,860,ls),
(99,860,o),
(87,847,o),
(87,823,cs),
(87,805,o),
(101,797,o),
(119,797,cs),
(490,797,l),
(483,785,o),
(461,757,o),
(442,727,cs),
(22,49,ls,{
name = hr00;
}),
(19,44,o),
(17,36,o),
(17,27,cs),
(17,8,o),
(31,0,o),
(49,0,cs)
);
}
);
width = 624;
}
);
unicode = 90;
},
{
glyphname = Zacute;
lastChange = "2023-02-17 07:34:05 +0000";
layers = (
{
background = {
shapes = (
{
closed = 1;
nodes = (
(20,43,o),
(17,36,o),
(17,27,cs),
(17,8,o),
(31,0,o),
(49,0,cs),
(535,0,ls),
(559,0,o),
(571,13,o),
(571,36,cs),
(571,55,o),
(557,63,o),
(539,63,cs),
(119,63,l),
(119,63,o),
(146,95,o),
(169,136,cs),
(584,811,ls),
(587,816,o),
(589,823,o),
(589,833,cs),
(589,851,o),
(575,860,o),
(557,860,cs),
(123,860,ls),
(99,860,o),
(87,847,o),
(87,823,cs),
(87,805,o),
(101,797,o),
(119,797,cs),
(490,797,l),
(483,785,o),
(461,757,o),
(442,727,cs),
(22,49,ls,{
name = hr00;
})
);
},
{
closed = 1;
nodes = (
(246,942,o),
(241,934,o),
(241,926,cs),
(241,913,o),
(251,900,o),
(266,900,cs),
(269,900,o),
(271,900,o),
(275,902,cs),
(463,1001,ls),
(480,1010,o),
(483,1016,o),
(483,1031,cs),
(483,1049,o),
(468,1074,o),
(443,1074,cs),
(440,1074,o),
(436,1073,o),
(432,1071,cs),
(249,944,ls,{
name = hr00;
})
);
}
);
};
layerId = master01;
shapes = (
{
ref = Z;
},
{
pos = (218,0);
ref = acutecomb.case;
}
);
width = 624;
}
);
unicode = 377;
},
{
glyphname = Zcaron;
lastChange = "2023-02-17 07:34:05 +0000";
layers = (
{
background = {
shapes = (
{
closed = 1;
nodes = (
(20,43,o),
(17,36,o),
(17,27,cs),
(17,8,o),
(31,0,o),
(49,0,cs),
(535,0,ls),
(559,0,o),
(571,13,o),
(571,36,cs),
(571,55,o),
(557,63,o),
(539,63,cs),
(119,63,l),
(119,63,o),
(146,95,o),
(169,136,cs),
(584,811,ls),
(587,816,o),
(589,823,o),
(589,833,cs),
(589,851,o),
(575,860,o),
(557,860,cs),
(123,860,ls),
(99,860,o),
(87,847,o),
(87,823,cs),
(87,805,o),
(101,797,o),
(119,797,cs),
(490,797,l),
(483,785,o),
(461,757,o),
(442,727,cs),
(22,49,ls,{
name = hr00;
})
);
},
{
closed = 1;
nodes = (
(271,1083,o),
(267,1086,o),
(259,1086,cs),
(246,1086,o),
(229,1072,o),
(229,1056,cs),
(229,1053,o),
(230,1049,o),
(235,1041,cs),
(306,933,ls),
(316,918,o),
(326,910,o),
(345,910,cs),
(365,910,o),
(379,923,o),
(398,941,cs),
(505,1046,ls),
(508,1049,o),
(509,1054,o),
(509,1059,cs),
(509,1073,o),
(498,1085,o),
(484,1085,cs,{
name = hr01;
}),
(480,1085,o),
(475,1084,o),
(470,1080,cs),
(350,994,l),
(279,1073,ls)
);
}
);
};
layerId = master01;
shapes = (
{
ref = Z;
},
{
pos = (163,0);
ref = caroncomb.case;
}
);
width = 624;
}
);
unicode = 381;
},
{
glyphname = Zdotaccent;
lastChange = "2023-02-17 07:34:05 +0000";
layers = (
{
background = {
shapes = (
{
closed = 1;
nodes = (
(20,43,o),
(17,36,o),
(17,27,cs),
(17,8,o),
(31,0,o),
(49,0,cs),
(535,0,ls),
(559,0,o),
(571,13,o),
(571,36,cs),
(571,55,o),
(557,63,o),
(539,63,cs),
(119,63,l),
(119,63,o),
(146,95,o),
(169,136,cs),
(584,811,ls),
(587,816,o),
(589,823,o),
(589,833,cs),
(589,851,o),
(575,860,o),
(557,860,cs),
(123,860,ls),
(99,860,o),
(87,847,o),
(87,823,cs),
(87,805,o),
(101,797,o),
(119,797,cs),
(490,797,l),
(483,785,o),
(461,757,o),
(442,727,cs),
(22,49,ls,{
name = hr00;
})
);
},
{
closed = 1;
nodes = (
(406,1013,o),
(396,1029,o),
(361,1029,cs),
(315,1029,o),
(304,999,o),
(304,968,cs),
(304,947,o),
(314,930,o),
(349,930,cs),
(395,930,o),
(406,961,o),
(406,992,cs,{
name = hr00;
})
);
}
);
};
layerId = master01;
shapes = (
{
ref = Z;
},
{
pos = (270,0);
ref = dotaccentcomb.case;
}
);
width = 624;
}
);
unicode = 379;
},
{
glyphname = a;
kernLeft = a;
lastChange = "2023-02-17 07:34:05 +0000";
layers = (
{
anchors = (
{
name = bottom;
pos = (251,0);
},
{
name = ogonek;
pos = (519,11);
},
{
name = top;
pos = (319,493);
}
);
background = {
shapes = (
{
closed = 1;
nodes = (
(338,164,o),
(282,52,o),
(192,52,cs),
(145,52,o),
(117,84,o),
(117,123,cs),
(117,192,o),
(173,242,o),
(353,256,c)
);
},
{
closed = 1;
nodes = (
(448,479,o),
(366,507,o),
(282,507,cs),
(216,507,o),
(107,473,o),
(107,449,cs),
(107,431,o),
(117,402,o),
(136,402,cs),
(154,402,o),
(202,440,o),
(279,440,cs,{
name = hr01;
}),
(329,440,o),
(371,426,o),
(371,378,cs),
(371,363,o),
(370,340,o),
(366,316,c),
(114,300,o),
(38,206,o),
(38,108,cs),
(38,27,o),
(97,-14,o),
(166,-14,cs),
(229,-14,o),
(301,22,o),
(342,102,c,{
name = hr02;
}),
(342,76,ls),
(342,39,o),
(345,-14,o),
(364,-14,cs),
(383,-14,o),
(422,-4,o),
(422,14,cs),
(422,32,o),
(411,53,o),
(411,98,cs),
(411,197,o),
(448,329,o),
(448,392,cs)
);
}
);
};
layerId = master01;
shapes = (
{
closed = 1;
nodes = (
(229,-14,o),
(301,22,o),
(342,102,c,{
name = hr02;
}),
(342,76,ls),
(342,39,o),
(345,-14,o),
(364,-14,cs),
(383,-14,o),
(422,-4,o),
(422,14,cs),
(422,32,o),
(411,53,o),
(411,98,cs),
(411,197,o),
(448,329,o),
(448,392,cs),
(448,479,o),
(366,507,o),
(282,507,cs),
(216,507,o),
(107,473,o),
(107,449,cs),
(107,431,o),
(117,402,o),
(136,402,cs),
(154,402,o),
(202,440,o),
(279,440,cs,{
name = hr01;
}),
(329,440,o),
(371,426,o),
(371,378,cs),
(371,363,o),
(370,340,o),
(366,316,c),
(114,300,o),
(38,206,o),
(38,108,cs),
(38,27,o),
(97,-14,o),
(166,-14,cs)
);
},
{
closed = 1;
nodes = (
(145,52,o),
(117,84,o),
(117,123,cs),
(117,192,o),
(173,242,o),
(353,256,c),
(338,164,o),
(282,52,o),
(192,52,cs)
);
}
);
width = 501;
}
);
unicode = 97;
},
{
glyphname = aacute;
kernLeft = a;
lastChange = "2023-02-17 07:34:05 +0000";
layers = (
{
background = {
shapes = (
{
closed = 1;
nodes = (
(360,164,o),
(304,52,o),
(214,52,cs),
(167,52,o),
(139,84,o),
(139,123,cs),
(139,192,o),
(195,242,o),
(375,256,c)
);
},
{
closed = 1;
nodes = (
(470,479,o),
(388,507,o),
(304,507,cs),
(238,507,o),
(129,473,o),
(129,449,cs),
(129,431,o),
(139,402,o),
(158,402,cs),
(176,402,o),
(224,440,o),
(301,440,cs,{
name = hr01;
}),
(351,440,o),
(393,426,o),
(393,378,cs),
(393,363,o),
(392,340,o),
(388,316,c),
(136,300,o),
(60,206,o),
(60,108,cs),
(60,27,o),
(119,-14,o),
(188,-14,cs),
(251,-14,o),
(323,22,o),
(364,102,c,{
name = hr02;
}),
(364,76,ls),
(364,39,o),
(367,-14,o),
(386,-14,cs),
(405,-14,o),
(444,-4,o),
(444,14,cs),
(444,32,o),
(433,53,o),
(433,98,cs),
(433,197,o),
(470,329,o),
(470,392,cs)
);
},
{
closed = 1;
nodes = (
(266,634,o),
(264,629,o),
(264,624,cs),
(264,610,o),
(275,598,o),
(289,598,cs),
(295,598,o),
(299,599,o),
(303,603,cs),
(453,740,ls),
(463,749,o),
(466,755,o),
(466,763,cs),
(466,786,o),
(447,806,o),
(421,806,cs),
(416,806,o),
(410,805,o),
(405,799,cs),
(268,637,ls,{
name = hr00;
})
);
}
);
};
layerId = master01;
shapes = (
{
ref = a;
},
{
pos = (168,0);
ref = acutecomb;
}
);
width = 501;
}
);
unicode = 225;
},
{
glyphname = abreve;
kernLeft = a;
lastChange = "2023-02-17 07:34:05 +0000";
layers = (
{
background = {
shapes = (
{
closed = 1;
nodes = (
(338,164,o),
(282,52,o),
(192,52,cs),
(145,52,o),
(117,84,o),
(117,123,cs),
(117,192,o),
(173,242,o),
(353,256,c)
);
},
{
closed = 1;
nodes = (
(448,479,o),
(366,507,o),
(282,507,cs),
(216,507,o),
(107,473,o),
(107,449,cs),
(107,431,o),
(117,402,o),
(136,402,cs),
(154,402,o),
(202,440,o),
(279,440,cs,{
name = hr01;
}),
(329,440,o),
(371,426,o),
(371,378,cs),
(371,363,o),
(370,340,o),
(366,316,c),
(114,300,o),
(38,206,o),
(38,108,cs),
(38,27,o),
(97,-14,o),
(166,-14,cs),
(229,-14,o),
(301,22,o),
(342,102,c,{
name = hr02;
}),
(342,76,ls),
(342,39,o),
(345,-14,o),
(364,-14,cs),
(383,-14,o),
(422,-4,o),
(422,14,cs),
(422,32,o),
(411,53,o),
(411,98,cs),
(411,197,o),
(448,329,o),
(448,392,cs)
);
},
{
closed = 1;
nodes = (
(188,776,o),
(183,756,o),
(183,739,cs),
(183,687,o),
(222,598,o),
(287,598,cs),
(394,598,o),
(458,730,o),
(458,755,cs),
(458,767,o),
(450,776,o),
(438,776,cs),
(402,776,o),
(366,669,o),
(302,669,cs),
(236,669,o),
(248,776,o),
(205,776,cs,{
name = hr00;
})
);
}
);
};
layerId = master01;
shapes = (
{
ref = a;
},
{
pos = (131,0);
ref = brevecomb;
}
);
width = 501;
}
);
unicode = 259;
},
{
glyphname = acircumflex;
kernLeft = a;
lastChange = "2023-02-17 07:34:05 +0000";
layers = (
{
background = {
shapes = (
{
closed = 1;
nodes = (
(345,164,o),
(289,52,o),
(199,52,cs),
(152,52,o),
(124,84,o),
(124,123,cs),
(124,192,o),
(180,242,o),
(360,256,c)
);
},
{
closed = 1;
nodes = (
(455,479,o),
(373,507,o),
(289,507,cs),
(223,507,o),
(114,473,o),
(114,449,cs),
(114,431,o),
(124,402,o),
(143,402,cs),
(161,402,o),
(209,440,o),
(286,440,cs,{
name = hr01;
}),
(336,440,o),
(378,426,o),
(378,378,cs),
(378,363,o),
(377,340,o),
(373,316,c),
(121,300,o),
(45,206,o),
(45,108,cs),
(45,27,o),
(104,-14,o),
(173,-14,cs),
(236,-14,o),
(308,22,o),
(349,102,c,{
name = hr02;
}),
(349,76,ls),
(349,39,o),
(352,-14,o),
(371,-14,cs),
(390,-14,o),
(429,-4,o),
(429,14,cs),
(429,32,o),
(418,53,o),
(418,98,cs),
(418,197,o),
(455,329,o),
(455,392,cs)
);
},
{
closed = 1;
nodes = (
(414,601,o),
(418,598,o),
(426,598,cs),
(439,598,o),
(456,612,o),
(456,628,cs),
(456,631,o),
(455,635,o),
(450,643,cs),
(365,783,ls),
(358,795,o),
(347,806,o),
(324,806,cs),
(295,806,o),
(281,784,o),
(273,775,cs),
(156,637,ls),
(154,634,o),
(152,629,o),
(152,624,cs),
(152,610,o),
(163,598,o),
(177,598,cs),
(183,598,o),
(187,599,o),
(191,603,cs),
(321,722,l),
(406,611,ls,{
name = hr00;
})
);
}
);
};
layerId = master01;
shapes = (
{
ref = a;
},
{
pos = (117,0);
ref = circumflexcomb;
}
);
width = 501;
}
);
unicode = 226;
},
{
glyphname = adieresis;
kernLeft = a;
lastChange = "2023-02-17 07:34:05 +0000";
layers = (
{
background = {
shapes = (
{
closed = 1;
nodes = (
(360,164,o),
(304,52,o),
(214,52,cs),
(167,52,o),
(139,84,o),
(139,123,cs),
(139,192,o),
(195,242,o),
(375,256,c)
);
},
{
closed = 1;
nodes = (
(470,479,o),
(388,507,o),
(304,507,cs),
(238,507,o),
(129,473,o),
(129,449,cs),
(129,431,o),
(139,402,o),
(158,402,cs),
(176,402,o),
(224,440,o),
(301,440,cs,{
name = hr01;
}),
(351,440,o),
(393,426,o),
(393,378,cs),
(393,363,o),
(392,340,o),
(388,316,c),
(136,300,o),
(60,206,o),
(60,108,cs),
(60,27,o),
(119,-14,o),
(188,-14,cs),
(251,-14,o),
(323,22,o),
(364,102,c,{
name = hr02;
}),
(364,76,ls),
(364,39,o),
(367,-14,o),
(386,-14,cs),
(405,-14,o),
(444,-4,o),
(444,14,cs),
(444,32,o),
(433,53,o),
(433,98,cs),
(433,197,o),
(470,329,o),
(470,392,cs)
);
},
{
closed = 1;
nodes = (
(293,713,o),
(283,729,o),
(248,729,cs),
(202,729,o),
(191,699,o),
(191,668,cs),
(191,647,o),
(201,630,o),
(236,630,cs),
(282,630,o),
(293,661,o),
(293,692,cs,{
name = hr00;
})
);
},
{
closed = 1;
nodes = (
(485,713,o),
(475,729,o),
(440,729,cs),
(394,729,o),
(383,699,o),
(383,668,cs),
(383,647,o),
(393,630,o),
(428,630,cs),
(474,630,o),
(485,661,o),
(485,692,cs)
);
}
);
};
layerId = master01;
shapes = (
{
ref = a;
},
{
pos = (122,0);
ref = dieresiscomb;
}
);
width = 501;
}
);
unicode = 228;
},
{
glyphname = agrave;
kernLeft = a;
lastChange = "2023-02-17 07:54:36 +0000";
layers = (
{
background = {
shapes = (
{
closed = 1;
nodes = (
(360,164,o),
(304,52,o),
(214,52,cs),
(167,52,o),
(139,84,o),
(139,123,cs),
(139,192,o),
(195,242,o),
(375,256,c)
);
},
{
closed = 1;
nodes = (
(470,479,o),
(388,507,o),
(304,507,cs),
(238,507,o),
(129,473,o),
(129,449,cs),
(129,431,o),
(139,402,o),
(158,402,cs),
(176,402,o),
(224,440,o),
(301,440,cs,{
name = hr01;
}),
(351,440,o),
(393,426,o),
(393,378,cs),
(393,363,o),
(392,340,o),
(388,316,c),
(136,300,o),
(60,206,o),
(60,108,cs),
(60,27,o),
(119,-14,o),
(188,-14,cs),
(251,-14,o),
(323,22,o),
(364,102,c,{
name = hr02;
}),
(364,76,ls),
(364,39,o),
(367,-14,o),
(386,-14,cs),
(405,-14,o),
(444,-4,o),
(444,14,cs),
(444,32,o),
(433,53,o),
(433,98,cs),
(433,197,o),
(470,329,o),
(470,392,cs)
);
},
{
closed = 1;
nodes = (
(303,805,o),
(297,806,o),
(292,806,cs),
(266,806,o),
(247,786,o),
(247,763,cs),
(247,755,o),
(250,749,o),
(260,740,cs),
(410,603,ls),
(414,599,o),
(418,598,o),
(424,598,cs),
(438,598,o),
(449,610,o),
(449,624,cs),
(449,629,o),
(447,634,o),
(445,637,cs),
(308,799,ls,{
name = hr00;
})
);
}
);
};
layerId = master01;
shapes = (
{
ref = a;
},
{
pos = (168,300);
ref = gravecomb;
}
);
width = 501;
}
);
unicode = 224;
},
{
glyphname = amacron;
kernLeft = a;
lastChange = "2023-02-17 07:34:05 +0000";
layers = (
{
background = {
shapes = (
{
closed = 1;
nodes = (
(338,164,o),
(282,52,o),
(192,52,cs),
(145,52,o),
(117,84,o),
(117,123,cs),
(117,192,o),
(173,242,o),
(353,256,c)
);
},
{
closed = 1;
nodes = (
(448,479,o),
(366,507,o),
(282,507,cs),
(216,507,o),
(107,473,o),
(107,449,cs),
(107,431,o),
(117,402,o),
(136,402,cs),
(154,402,o),
(202,440,o),
(279,440,cs,{
name = hr01;
}),
(329,440,o),
(371,426,o),
(371,378,cs),
(371,363,o),
(370,340,o),
(366,316,c),
(114,300,o),
(38,206,o),
(38,108,cs),
(38,27,o),
(97,-14,o),
(166,-14,cs),
(229,-14,o),
(301,22,o),
(342,102,c,{
name = hr02;
}),
(342,76,ls),
(342,39,o),
(345,-14,o),
(364,-14,cs),
(383,-14,o),
(422,-4,o),
(422,14,cs),
(422,32,o),
(411,53,o),
(411,98,cs),
(411,197,o),
(448,329,o),
(448,392,cs)
);
},
{
closed = 1;
nodes = (
(201,712,o),
(194,693,o),
(194,678,cs),
(194,663,o),
(201,651,o),
(217,651,cs),
(435,651,ls),
(465,651,o),
(472,670,o),
(472,685,cs),
(472,700,o),
(465,712,o),
(449,712,cs),
(231,712,ls,{
name = hr00;
})
);
}
);
};
layerId = master01;
shapes = (
{
ref = a;
},
{
pos = (115,0);
ref = macroncomb;
}
);
width = 501;
}
);
unicode = 257;
},
{
glyphname = aogonek;
kernLeft = a;
lastChange = "2023-02-17 07:34:05 +0000";
layers = (
{
background = {
shapes = (
{
closed = 1;
nodes = (
(338,164,o),
(282,52,o),
(192,52,cs),
(145,52,o),
(117,84,o),
(117,123,cs),
(117,192,o),
(173,242,o),
(353,256,c)
);
},
{
closed = 1;
nodes = (
(448,479,o),
(366,507,o),
(282,507,cs),
(216,507,o),
(107,473,o),
(107,449,cs),
(107,431,o),
(117,402,o),
(136,402,cs),
(154,402,o),
(202,440,o),
(279,440,cs,{
name = hr01;
}),
(329,440,o),
(371,426,o),
(371,378,cs),
(371,363,o),
(370,340,o),
(366,316,c),
(114,300,o),
(38,206,o),
(38,108,cs),
(38,27,o),
(97,-14,o),
(166,-14,cs),
(229,-14,o),
(301,22,o),
(342,102,c,{
name = hr02;
}),
(342,76,ls),
(342,39,o),
(345,-14,o),
(364,-14,cs),
(383,-14,o),
(422,-4,o),
(422,14,cs),
(422,32,o),
(411,53,o),
(411,98,cs),
(411,197,o),
(448,329,o),
(448,392,cs)
);
},
{
closed = 1;
nodes = (
(273,-11,o),
(241,-63,o),
(241,-113,cs),
(241,-172,o),
(289,-229,o),
(375,-229,cs),
(433,-229,o),
(518,-189,o),
(518,-156,cs),
(518,-139,o),
(510,-131,o),
(496,-131,cs),
(475,-131,o),
(440,-172,o),
(379,-172,cs,{
name = hr01;
}),
(334,-172,o),
(309,-142,o),
(309,-107,cs),
(309,-62,o),
(343,-9,o),
(415,11,c),
(347,11,l)
);
}
);
};
layerId = master01;
shapes = (
{
ref = a;
},
{
pos = (107,0);
ref = ogonekcomb;
}
);
width = 501;
}
);
unicode = 261;
},
{
glyphname = aring;
kernLeft = a;
lastChange = "2023-02-17 07:34:05 +0000";
layers = (
{
background = {
shapes = (
{
closed = 1;
nodes = (
(345,164,o),
(289,52,o),
(199,52,cs),
(152,52,o),
(124,84,o),
(124,123,cs),
(124,192,o),
(180,242,o),
(360,256,c)
);
},
{
closed = 1;
nodes = (
(455,479,o),
(373,507,o),
(289,507,cs),
(223,507,o),
(114,473,o),
(114,449,cs),
(114,431,o),
(124,402,o),
(143,402,cs),
(161,402,o),
(209,440,o),
(286,440,cs,{
name = hr01;
}),
(336,440,o),
(378,426,o),
(378,378,cs),
(378,363,o),
(377,340,o),
(373,316,c),
(121,300,o),
(45,206,o),
(45,108,cs),
(45,27,o),
(104,-14,o),
(173,-14,cs),
(236,-14,o),
(308,22,o),
(349,102,c,{
name = hr02;
}),
(349,76,ls),
(349,39,o),
(352,-14,o),
(371,-14,cs),
(390,-14,o),
(429,-4,o),
(429,14,cs),
(429,32,o),
(418,53,o),
(418,98,cs),
(418,197,o),
(455,329,o),
(455,392,cs)
);
},
{
closed = 1;
nodes = (
(220,628,o),
(250,583,o),
(313,583,cs),
(389,583,o),
(438,642,o),
(438,711,cs),
(438,762,o),
(407,809,o),
(344,809,cs),
(256,809,o),
(220,737,o),
(220,679,cs,{
name = hr00;
})
);
},
{
closed = 1;
nodes = (
(275,719,o),
(296,758,o),
(339,758,cs),
(370,758,o),
(384,736,o),
(384,704,cs),
(384,666,o),
(357,632,o),
(320,632,cs),
(288,632,o),
(275,655,o),
(275,685,cs)
);
}
);
};
layerId = master01;
shapes = (
{
ref = a;
},
{
pos = (157,0);
ref = ringcomb;
}
);
width = 501;
}
);
unicode = 229;
},
{
glyphname = aringacute;
kernLeft = a;
lastChange = "2023-02-17 07:34:05 +0000";
layers = (
{
background = {
shapes = (
{
closed = 1;
nodes = (
(338,164,o),
(282,52,o),
(192,52,cs),
(145,52,o),
(117,84,o),
(117,123,cs),
(117,192,o),
(173,242,o),
(353,256,c)
);
},
{
closed = 1;
nodes = (
(448,479,o),
(366,507,o),
(282,507,cs),
(216,507,o),
(107,473,o),
(107,449,cs),
(107,431,o),
(117,402,o),
(136,402,cs),
(154,402,o),
(202,440,o),
(279,440,cs,{
name = hr01;
}),
(329,440,o),
(371,426,o),
(371,378,cs),
(371,363,o),
(370,340,o),
(366,316,c),
(114,300,o),
(38,206,o),
(38,108,cs),
(38,27,o),
(97,-14,o),
(166,-14,cs),
(229,-14,o),
(301,22,o),
(342,102,c,{
name = hr02;
}),
(342,76,ls),
(342,39,o),
(345,-14,o),
(364,-14,cs),
(383,-14,o),
(422,-4,o),
(422,14,cs),
(422,32,o),
(411,53,o),
(411,98,cs),
(411,197,o),
(448,329,o),
(448,392,cs)
);
},
{
closed = 1;
nodes = (
(489,846,ls),
(498,854,o),
(501,859,o),
(501,867,cs),
(501,887,o),
(484,905,o),
(460,905,cs),
(456,905,o),
(450,904,o),
(446,899,cs),
(348,782,l),
(385,751,l,{
name = hr00;
})
);
},
{
closed = 1;
nodes = (
(206,628,o),
(236,583,o),
(299,583,cs),
(375,583,o),
(424,642,o),
(424,711,cs),
(424,762,o),
(393,809,o),
(330,809,cs),
(242,809,o),
(206,737,o),
(206,679,cs)
);
},
{
closed = 1;
nodes = (
(261,719,o),
(282,758,o),
(325,758,cs),
(356,758,o),
(370,736,o),
(370,704,cs),
(370,666,o),
(343,632,o),
(306,632,cs),
(274,632,o),
(261,655,o),
(261,685,cs)
);
}
);
};
layerId = master01;
shapes = (
{
closed = 1;
nodes = (
(375,583,o),
(424,642,o),
(424,711,cs),
(424,762,o),
(393,809,o),
(330,809,cs),
(242,809,o),
(206,737,o),
(206,679,cs),
(206,628,o),
(236,583,o),
(299,583,cs)
);
},
{
ref = a;
},
{
closed = 1;
nodes = (
(274,632,o),
(261,655,o),
(261,685,cs),
(261,719,o),
(282,758,o),
(325,758,cs),
(356,758,o),
(370,736,o),
(370,704,cs),
(370,666,o),
(343,632,o),
(306,632,cs)
);
},
{
closed = 1;
nodes = (
(489,846,ls),
(498,854,o),
(501,859,o),
(501,867,cs),
(501,887,o),
(484,905,o),
(460,905,cs),
(456,905,o),
(450,904,o),
(446,899,cs),
(348,782,l),
(385,751,l,{
name = hr00;
})
);
}
);
width = 501;
}
);
unicode = 507;
},
{
glyphname = atilde;
kernLeft = a;
lastChange = "2023-02-17 07:34:05 +0000";
layers = (
{
background = {
shapes = (
{
closed = 1;
nodes = (
(360,164,o),
(304,52,o),
(214,52,cs),
(167,52,o),
(139,84,o),
(139,123,cs),
(139,192,o),
(195,242,o),
(375,256,c)
);
},
{
closed = 1;
nodes = (
(470,479,o),
(388,507,o),
(304,507,cs),
(238,507,o),
(129,473,o),
(129,449,cs),
(129,431,o),
(139,402,o),
(158,402,cs),
(176,402,o),
(224,440,o),
(301,440,cs,{
name = hr01;
}),
(351,440,o),
(393,426,o),
(393,378,cs),
(393,363,o),
(392,340,o),
(388,316,c),
(136,300,o),
(60,206,o),
(60,108,cs),
(60,27,o),
(119,-14,o),
(188,-14,cs),
(251,-14,o),
(323,22,o),
(364,102,c,{
name = hr02;
}),
(364,76,ls),
(364,39,o),
(367,-14,o),
(386,-14,cs),
(405,-14,o),
(444,-4,o),
(444,14,cs),
(444,32,o),
(433,53,o),
(433,98,cs),
(433,197,o),
(470,329,o),
(470,392,cs)
);
},
{
closed = 1;
nodes = (
(352,706,o),
(316,746,o),
(277,746,cs,{
name = hr01;
}),
(224,746,o),
(170,681,o),
(170,668,cs),
(170,651,o),
(178,637,o),
(199,637,cs,{
name = hr02;
}),
(210,637,o),
(236,677,o),
(275,677,cs,{
name = hr03;
}),
(315,677,o),
(351,637,o),
(390,637,cs,{
name = hr04;
}),
(443,637,o),
(497,702,o),
(497,715,cs),
(497,732,o),
(489,746,o),
(468,746,cs,{
name = hr05;
}),
(457,746,o),
(431,706,o),
(392,706,cs)
);
}
);
};
layerId = master01;
shapes = (
{
ref = a;
},
{
pos = (105,0);
ref = tildecomb;
}
);
width = 501;
}
);
unicode = 227;
},
{
glyphname = ae;
kernLeft = a;
lastChange = "2023-02-17 07:34:05 +0000";
layers = (
{
anchors = (
{
name = bottom;
pos = (380,0);
},
{
name = top;
pos = (500,493);
}
);
background = {
shapes = (
{
closed = 1;
nodes = (
(634,-14,o),
(718,35,o),
(718,56,cs),
(718,74,o),
(707,101,o),
(691,101,cs),
(686,101,o),
(637,48,o),
(568,48,cs),
(478,48,o),
(432,115,o),
(432,213,c),
(614,213,o),
(749,286,o),
(749,405,cs),
(749,472,o),
(694,507,o),
(624,507,cs),
(562,507,o),
(489,478,o),
(435,418,c),
(422,485,o),
(357,507,o),
(282,507,cs),
(216,507,o),
(107,473,o),
(107,449,cs),
(107,431,o),
(117,402,o),
(136,402,cs),
(154,402,o),
(202,440,o),
(279,440,cs,{
name = hr01;
}),
(329,440,o),
(371,426,o),
(371,378,cs),
(371,363,o),
(361,300,o),
(357,276,c),
(317,286,o),
(281,290,o),
(248,290,cs),
(102,290,o),
(38,188,o),
(38,108,cs),
(38,27,o),
(97,-14,o),
(166,-14,cs),
(247,-14,o),
(319,43,o),
(369,128,c),
(390,37,o),
(453,-14,o),
(564,-14,cs)
);
},
{
closed = 1;
nodes = (
(336,156,o),
(282,52,o),
(192,52,cs),
(145,52,o),
(117,84,o),
(117,123,cs),
(117,208,o),
(186,235,o),
(260,235,cs),
(291,235,o),
(323,230,o),
(351,223,c)
);
},
{
closed = 1;
nodes = (
(456,386,o),
(558,447,o),
(620,447,cs),
(652,447,o),
(676,430,o),
(676,395,cs),
(676,318,o),
(554,265,o),
(436,265,c,{
name = hr02;
})
);
}
);
};
layerId = master01;
shapes = (
{
closed = 1;
nodes = (
(247,-14,o),
(319,43,o),
(369,128,c),
(390,37,o),
(453,-14,o),
(564,-14,cs),
(634,-14,o),
(718,35,o),
(718,56,cs),
(718,74,o),
(707,101,o),
(691,101,cs),
(686,101,o),
(637,48,o),
(568,48,cs),
(478,48,o),
(432,115,o),
(432,213,c),
(614,213,o),
(749,286,o),
(749,405,cs),
(749,472,o),
(694,507,o),
(624,507,cs),
(562,507,o),
(489,478,o),
(435,418,c),
(422,485,o),
(357,507,o),
(282,507,cs),
(216,507,o),
(107,473,o),
(107,449,cs),
(107,431,o),
(117,402,o),
(136,402,cs),
(154,402,o),
(202,440,o),
(279,440,cs,{
name = hr01;
}),
(329,440,o),
(371,426,o),
(371,378,cs),
(371,363,o),
(361,300,o),
(357,276,c),
(317,286,o),
(281,290,o),
(248,290,cs),
(102,290,o),
(38,188,o),
(38,108,cs),
(38,27,o),
(97,-14,o),
(166,-14,cs)
);
},
{
closed = 1;
nodes = (
(145,52,o),
(117,84,o),
(117,123,cs),
(117,208,o),
(186,235,o),
(260,235,cs),
(291,235,o),
(323,230,o),
(351,223,c),
(336,156,o),
(282,52,o),
(192,52,cs)
);
},
{
closed = 1;
nodes = (
(456,386,o),
(558,447,o),
(620,447,cs),
(652,447,o),
(676,430,o),
(676,395,cs),
(676,318,o),
(554,265,o),
(436,265,c,{
name = hr02;
})
);
}
);
width = 759;
}
);
unicode = 230;
},
{
glyphname = aeacute;
kernLeft = a;
lastChange = "2023-02-17 07:34:05 +0000";
layers = (
{
background = {
shapes = (
{
closed = 1;
nodes = (
(634,-14,o),
(718,35,o),
(718,56,cs),
(718,74,o),
(707,101,o),
(691,101,cs),
(686,101,o),
(637,48,o),
(568,48,cs),
(478,48,o),
(432,115,o),
(432,213,c),
(614,213,o),
(749,286,o),
(749,405,cs),
(749,472,o),
(694,507,o),
(624,507,cs),
(562,507,o),
(489,478,o),
(435,418,c),
(422,485,o),
(357,507,o),
(282,507,cs),
(216,507,o),
(107,473,o),
(107,449,cs),
(107,431,o),
(117,402,o),
(136,402,cs),
(154,402,o),
(202,440,o),
(279,440,cs,{
name = hr01;
}),
(329,440,o),
(371,426,o),
(371,378,cs),
(371,363,o),
(361,300,o),
(357,276,c),
(317,286,o),
(281,290,o),
(248,290,cs),
(102,290,o),
(38,188,o),
(38,108,cs),
(38,27,o),
(97,-14,o),
(166,-14,cs),
(247,-14,o),
(319,43,o),
(369,128,c),
(390,37,o),
(453,-14,o),
(564,-14,cs)
);
},
{
closed = 1;
nodes = (
(336,156,o),
(282,52,o),
(192,52,cs),
(145,52,o),
(117,84,o),
(117,123,cs),
(117,208,o),
(186,235,o),
(260,235,cs),
(291,235,o),
(323,230,o),
(351,223,c)
);
},
{
closed = 1;
nodes = (
(456,386,o),
(558,447,o),
(620,447,cs),
(652,447,o),
(676,430,o),
(676,395,cs),
(676,318,o),
(554,265,o),
(436,265,c,{
name = hr02;
})
);
},
{
closed = 1;
nodes = (
(402,634,o),
(400,629,o),
(400,624,cs),
(400,610,o),
(411,598,o),
(425,598,cs),
(431,598,o),
(435,599,o),
(439,603,cs),
(589,740,ls),
(599,749,o),
(602,755,o),
(602,763,cs),
(602,786,o),
(583,806,o),
(557,806,cs),
(552,806,o),
(546,805,o),
(541,799,cs),
(404,637,ls,{
name = hr00;
})
);
}
);
};
layerId = master01;
shapes = (
{
ref = ae;
},
{
pos = (349,0);
ref = acutecomb;
}
);
width = 759;
}
);
unicode = 509;
},
{
glyphname = b;
lastChange = "2023-02-17 07:34:05 +0000";
layers = (
{
anchors = (
{
name = bottom;
pos = (275,0);
},
{
name = center;
pos = (275,247);
},
{
name = top;
pos = (275,493);
}
);
background = {
shapes = (
{
closed = 1;
nodes = (
(163,189,ls),
(177,302,o),
(212,441,o),
(328,441,cs),
(392,441,o),
(429,377,o),
(429,301,cs),
(429,188,o),
(355,48,o),
(188,48,cs),
(182,48,o),
(153,49,o),
(146,50,c,{
name = hr00;
})
);
},
{
closed = 1;
nodes = (
(69,-11,o),
(143,-14,o),
(168,-14,cs),
(406,-14,o),
(511,161,o),
(511,309,cs),
(511,416,o),
(454,507,o),
(352,507,cs),
(280,507,o),
(236,480,o),
(191,424,c),
(246,866,l),
(246,882,o),
(230,887,o),
(215,887,cs),
(199,887,o),
(174,886,o),
(171,861,cs),
(69,29,l)
);
}
);
};
layerId = master01;
shapes = (
{
closed = 1;
nodes = (
(406,-14,o),
(511,161,o),
(511,309,cs),
(511,416,o),
(454,507,o),
(352,507,cs),
(280,507,o),
(236,480,o),
(191,424,c),
(246,866,l),
(246,882,o),
(230,887,o),
(215,887,cs),
(199,887,o),
(174,886,o),
(171,861,cs),
(69,29,l),
(69,-11,o),
(143,-14,o),
(168,-14,cs)
);
},
{
closed = 1;
nodes = (
(182,48,o),
(153,49,o),
(146,50,c,{
name = hr00;
}),
(163,189,ls),
(177,302,o),
(212,441,o),
(328,441,cs),
(392,441,o),
(429,377,o),
(429,301,cs),
(429,188,o),
(355,48,o),
(188,48,cs)
);
}
);
width = 550;
}
);
unicode = 98;
},
{
glyphname = c;
kernLeft = c;
lastChange = "2023-02-17 07:34:05 +0000";
layers = (
{
anchors = (
{
name = bottom;
pos = (239,0);
},
{
name = top;
pos = (329,493);
}
);
background = {
shapes = (
{
closed = 1;
nodes = (
(151,507,o),
(53,358,o),
(53,209,cs),
(53,69,o),
(126,-14,o),
(266,-14,cs),
(336,-14,o),
(420,35,o),
(420,56,cs),
(420,74,o),
(409,101,o),
(394,101,cs),
(388,101,o),
(339,48,o),
(270,48,cs),
(181,48,o),
(135,109,o),
(135,207,cs),
(135,319,o),
(184,445,o),
(317,445,cs),
(382,445,o),
(403,405,o),
(415,405,cs,{
name = hr01;
}),
(434,405,o),
(452,428,o),
(452,447,cs),
(452,468,o),
(399,507,o),
(319,507,cs)
);
}
);
};
layerId = master01;
shapes = (
{
closed = 1;
nodes = (
(336,-14,o),
(420,35,o),
(420,56,cs),
(420,74,o),
(409,101,o),
(394,101,cs),
(388,101,o),
(339,48,o),
(270,48,cs),
(181,48,o),
(135,109,o),
(135,207,cs),
(135,319,o),
(184,445,o),
(317,445,cs),
(382,445,o),
(403,405,o),
(415,405,cs,{
name = hr01;
}),
(434,405,o),
(452,428,o),
(452,447,cs),
(452,468,o),
(399,507,o),
(319,507,cs),
(151,507,o),
(53,358,o),
(53,209,cs),
(53,69,o),
(126,-14,o),
(266,-14,cs)
);
}
);
width = 457;
}
);
unicode = 99;
},
{
glyphname = cacute;
kernLeft = c;
lastChange = "2023-02-17 07:34:05 +0000";
layers = (
{
background = {
shapes = (
{
closed = 1;
nodes = (
(151,507,o),
(53,358,o),
(53,209,cs),
(53,69,o),
(126,-14,o),
(266,-14,cs),
(336,-14,o),
(420,35,o),
(420,56,cs),
(420,74,o),
(409,101,o),
(394,101,cs),
(388,101,o),
(339,48,o),
(270,48,cs),
(181,48,o),
(135,109,o),
(135,207,cs),
(135,319,o),
(184,445,o),
(317,445,cs),
(382,445,o),
(403,405,o),
(415,405,cs,{
name = hr01;
}),
(434,405,o),
(452,428,o),
(452,447,cs),
(452,468,o),
(399,507,o),
(319,507,cs)
);
},
{
closed = 1;
nodes = (
(229,634,o),
(227,629,o),
(227,624,cs),
(227,610,o),
(238,598,o),
(252,598,cs),
(258,598,o),
(262,599,o),
(266,603,cs),
(416,740,ls),
(426,749,o),
(429,755,o),
(429,763,cs),
(429,786,o),
(410,806,o),
(384,806,cs),
(379,806,o),
(373,805,o),
(368,799,cs),
(231,637,ls,{
name = hr00;
})
);
}
);
};
layerId = master01;
shapes = (
{
ref = c;
},
{
pos = (178,0);
ref = acutecomb;
}
);
width = 457;
}
);
unicode = 263;
},
{
glyphname = ccaron;
kernLeft = c;
lastChange = "2023-02-17 07:34:05 +0000";
layers = (
{
background = {
shapes = (
{
closed = 1;
nodes = (
(151,507,o),
(53,358,o),
(53,209,cs),
(53,69,o),
(126,-14,o),
(266,-14,cs),
(336,-14,o),
(420,35,o),
(420,56,cs),
(420,74,o),
(409,101,o),
(394,101,cs),
(388,101,o),
(339,48,o),
(270,48,cs),
(181,48,o),
(135,109,o),
(135,207,cs),
(135,319,o),
(184,445,o),
(317,445,cs),
(382,445,o),
(403,405,o),
(415,405,cs,{
name = hr01;
}),
(434,405,o),
(452,428,o),
(452,447,cs),
(452,468,o),
(399,507,o),
(319,507,cs)
);
},
{
closed = 1;
nodes = (
(218,803,o),
(214,806,o),
(206,806,cs),
(193,806,o),
(176,792,o),
(176,776,cs),
(176,773,o),
(177,769,o),
(182,761,cs),
(267,621,ls),
(276,606,o),
(286,598,o),
(308,598,cs),
(337,598,o),
(351,620,o),
(359,629,cs),
(476,767,ls),
(478,770,o),
(480,775,o),
(480,780,cs),
(480,794,o),
(469,806,o),
(455,806,cs),
(449,806,o),
(445,805,o),
(441,801,cs),
(311,682,l),
(226,793,ls,{
name = hr00;
})
);
}
);
};
layerId = master01;
shapes = (
{
ref = c;
},
{
pos = (127,0);
ref = caroncomb;
}
);
width = 457;
}
);
unicode = 269;
},
{
glyphname = ccedilla;
kernLeft = c;
lastChange = "2023-02-17 07:34:05 +0000";
layers = (
{
background = {
shapes = (
{
closed = 1;
nodes = (
(159,507,o),
(61,358,o),
(61,209,cs),
(61,69,o),
(134,-14,o),
(274,-14,cs),
(344,-14,o),
(428,35,o),
(428,56,cs),
(428,74,o),
(417,101,o),
(402,101,cs),
(396,101,o),
(347,48,o),
(278,48,cs),
(189,48,o),
(143,109,o),
(143,207,cs),
(143,319,o),
(192,445,o),
(325,445,cs),
(390,445,o),
(411,405,o),
(423,405,cs,{
name = hr01;
}),
(442,405,o),
(460,428,o),
(460,447,cs),
(460,468,o),
(407,507,o),
(327,507,cs)
);
},
{
closed = 1;
nodes = (
(187,-72,ls),
(184,-83,o),
(182,-93,o),
(182,-101,cs),
(182,-116,o),
(190,-124,o),
(214,-124,cs),
(257,-124,o),
(305,-137,o),
(305,-193,cs),
(305,-233,o),
(276,-265,o),
(230,-265,cs),
(186,-265,o),
(171,-243,o),
(160,-220,cs),
(153,-206,o),
(141,-203,o),
(133,-203,cs),
(115,-203,o),
(106,-219,o),
(106,-235,cs),
(106,-274,o),
(151,-320,o),
(226,-320,cs),
(300,-320,o),
(367,-280,o),
(367,-185,cs),
(367,-103,o),
(301,-71,o),
(235,-71,c),
(256,0,l),
(208,0,l,{
name = hr00;
})
);
}
);
};
layerId = master01;
shapes = (
{
ref = c;
},
{
pos = (17,0);
ref = cedillacomb;
}
);
width = 457;
}
);
unicode = 231;
},
{
glyphname = ccircumflex;
kernLeft = c;
lastChange = "2023-02-17 07:34:05 +0000";
layers = (
{
background = {
shapes = (
{
closed = 1;
nodes = (
(151,507,o),
(53,358,o),
(53,209,cs),
(53,69,o),
(126,-14,o),
(266,-14,cs),
(336,-14,o),
(420,35,o),
(420,56,cs),
(420,74,o),
(409,101,o),
(394,101,cs),
(388,101,o),
(339,48,o),
(270,48,cs),
(181,48,o),
(135,109,o),
(135,207,cs),
(135,319,o),
(184,445,o),
(317,445,cs),
(382,445,o),
(403,405,o),
(415,405,cs,{
name = hr01;
}),
(434,405,o),
(452,428,o),
(452,447,cs),
(452,468,o),
(399,507,o),
(319,507,cs)
);
},
{
closed = 1;
nodes = (
(438,601,o),
(442,598,o),
(450,598,cs),
(463,598,o),
(480,612,o),
(480,628,cs),
(480,631,o),
(479,635,o),
(474,643,cs),
(389,783,ls),
(382,795,o),
(371,806,o),
(348,806,cs),
(319,806,o),
(305,784,o),
(297,775,cs),
(180,637,ls),
(178,634,o),
(176,629,o),
(176,624,cs),
(176,610,o),
(187,598,o),
(201,598,cs),
(207,598,o),
(211,599,o),
(215,603,cs),
(345,722,l),
(430,611,ls,{
name = hr00;
})
);
}
);
};
layerId = master01;
shapes = (
{
ref = c;
},
{
pos = (127,0);
ref = circumflexcomb;
}
);
width = 457;
}
);
unicode = 265;
},
{
glyphname = cdotaccent;
kernLeft = c;
lastChange = "2023-02-17 07:34:05 +0000";
layers = (
{
background = {
shapes = (
{
closed = 1;
nodes = (
(151,507,o),
(53,358,o),
(53,209,cs),
(53,69,o),
(126,-14,o),
(266,-14,cs),
(336,-14,o),
(420,35,o),
(420,56,cs),
(420,74,o),
(409,101,o),
(394,101,cs),
(388,101,o),
(339,48,o),
(270,48,cs),
(181,48,o),
(135,109,o),
(135,207,cs),
(135,319,o),
(184,445,o),
(317,445,cs),
(382,445,o),
(403,405,o),
(415,405,cs,{
name = hr01;
}),
(434,405,o),
(452,428,o),
(452,447,cs),
(452,468,o),
(399,507,o),
(319,507,cs)
);
},
{
closed = 1;
nodes = (
(379,713,o),
(369,729,o),
(334,729,cs),
(288,729,o),
(277,699,o),
(277,668,cs),
(277,647,o),
(287,630,o),
(322,630,cs),
(368,630,o),
(379,661,o),
(379,692,cs,{
name = hr00;
})
);
}
);
};
layerId = master01;
shapes = (
{
ref = c;
},
{
pos = (228,0);
ref = dotaccentcomb;
}
);
width = 457;
}
);
unicode = 267;
},
{
glyphname = d;
kernLeft = c;
lastChange = "2023-02-17 07:34:05 +0000";
layers = (
{
anchors = (
{
name = bottom;
pos = (265,0);
},
{
name = center;
pos = (265,247);
},
{
name = top;
pos = (265,1094);
},
{
name = topright;
pos = (726,860);
}
);
background = {
shapes = (
{
closed = 1;
nodes = (
(530,864,l),
(530,879,o),
(519,887,o),
(502,887,cs),
(479,887,o),
(457,882,o),
(456,864,c),
(411,507,l),
(121,507,o),
(42,302,o),
(42,167,cs),
(42,41,o),
(118,-14,o),
(198,-14,cs),
(269,-14,o),
(345,28,o),
(377,102,c),
(381,76,o),
(383,-14,o),
(409,-14,cs),
(427,-14,o),
(464,-4,o),
(464,14,cs),
(464,35,o),
(446,64,o),
(446,129,cs),
(446,150,o),
(447,175,o),
(450,207,c,{
name = hr00;
})
);
},
{
closed = 1;
nodes = (
(387,304,ls),
(373,190,o),
(338,52,o),
(222,52,cs),
(154,52,o),
(124,111,o),
(124,176,cs),
(124,321,o),
(231,445,o),
(380,445,cs),
(383,445,o),
(399,444,o),
(404,442,c)
);
}
);
};
layerId = master01;
shapes = (
{
closed = 1;
nodes = (
(269,-14,o),
(345,28,o),
(377,102,c),
(381,76,o),
(383,-14,o),
(409,-14,cs),
(427,-14,o),
(464,-4,o),
(464,14,cs),
(464,35,o),
(446,64,o),
(446,129,cs),
(446,150,o),
(447,175,o),
(450,207,c,{
name = hr00;
}),
(530,864,l),
(530,879,o),
(519,887,o),
(502,887,cs),
(479,887,o),
(457,882,o),
(456,864,c),
(411,507,l),
(121,507,o),
(42,302,o),
(42,167,cs),
(42,41,o),
(118,-14,o),
(198,-14,cs)
);
},
{
closed = 1;
nodes = (
(154,52,o),
(124,111,o),
(124,176,cs),
(124,321,o),
(231,445,o),
(380,445,cs),
(383,445,o),
(399,444,o),
(404,442,c),
(387,304,ls),
(373,190,o),
(338,52,o),
(222,52,cs)
);
}
);
width = 530;
}
);
unicode = 100;
},
{
glyphname = eth;
kernLeft = c;
lastChange = "2023-02-17 07:34:05 +0000";
layers = (
{
background = {
shapes = (
{
closed = 1;
nodes = (
(53,91,o),
(118,-14,o),
(249,-14,cs),
(437,-14,o),
(513,159,o),
(513,348,cs),
(513,607,o),
(387,883,o),
(181,883,cs),
(148,883,o),
(80,873,o),
(80,835,cs),
(80,816,o),
(90,801,o),
(107,801,cs),
(129,801,o),
(138,816,o),
(178,816,cs,{
name = hr01;
}),
(283,816,o),
(408,686,o),
(435,460,c),
(401,498,o),
(351,507,o),
(317,507,cs),
(130,507,o),
(53,342,o),
(53,207,cs)
);
},
{
closed = 1;
nodes = (
(133,319,o),
(189,445,o),
(310,445,cs),
(396,445,o),
(436,371,o),
(436,274,cs),
(436,154,o),
(361,48,o),
(258,48,cs),
(171,48,o),
(133,120,o),
(133,217,cs)
);
},
{
closed = 1;
nodes = (
(222,704,o),
(218,695,o),
(218,687,cs),
(218,669,o),
(230,652,o),
(242,652,cs),
(247,652,o),
(251,654,o),
(263,660,cs),
(496,778,ls),
(506,783,o),
(510,792,o),
(510,800,cs),
(510,818,o),
(498,835,o),
(486,835,cs),
(481,835,o),
(477,833,o),
(465,827,cs),
(232,709,ls,{
name = hr00;
})
);
}
);
};
layerId = master01;
shapes = (
{
closed = 1;
nodes = (
(437,-14,o),
(513,159,o),
(513,348,cs),
(513,607,o),
(387,883,o),
(181,883,cs),
(148,883,o),
(80,873,o),
(80,835,cs),
(80,816,o),
(90,801,o),
(107,801,cs),
(129,801,o),
(138,816,o),
(178,816,cs,{
name = hr01;
}),
(283,816,o),
(408,686,o),
(435,460,c),
(401,498,o),
(351,507,o),
(317,507,cs),
(130,507,o),
(53,342,o),
(53,207,cs),
(53,91,o),
(118,-14,o),
(249,-14,cs)
);
},
{
closed = 1;
nodes = (
(171,48,o),
(133,120,o),
(133,217,cs),
(133,319,o),
(189,445,o),
(310,445,cs),
(396,445,o),
(436,371,o),
(436,274,cs),
(436,154,o),
(361,48,o),
(258,48,cs)
);
},
{
pos = (184,349);
ref = eslash;
}
);
width = 536;
}
);
unicode = 240;
},
{
glyphname = dcaron;
kernLeft = c;
lastChange = "2023-02-17 07:34:05 +0000";
layers = (
{
background = {
shapes = (
{
closed = 1;
nodes = (
(530,864,l),
(530,879,o),
(519,887,o),
(502,887,cs),
(479,887,o),
(457,882,o),
(456,864,c),
(411,507,l),
(121,507,o),
(42,302,o),
(42,167,cs),
(42,41,o),
(118,-14,o),
(198,-14,cs),
(269,-14,o),
(345,28,o),
(377,102,c),
(381,76,o),
(383,-14,o),
(409,-14,cs),
(427,-14,o),
(464,-4,o),
(464,14,cs),
(464,35,o),
(446,64,o),
(446,129,cs),
(446,150,o),
(447,175,o),
(450,207,c,{
name = hr00;
})
);
},
{
closed = 1;
nodes = (
(387,304,ls),
(373,190,o),
(338,52,o),
(222,52,cs),
(154,52,o),
(124,111,o),
(124,176,cs),
(124,321,o),
(231,445,o),
(380,445,cs),
(383,445,o),
(399,444,o),
(404,442,c)
);
},
{
closed = 1;
nodes = (
(622,689,o),
(646,693,o),
(653,713,cs),
(698,843,o),
(711,883,o),
(711,900,cs),
(711,922,o),
(691,930,o),
(673,930,cs),
(654,930,o),
(628,926,o),
(622,891,cs),
(595,733,o),
(591,711,o),
(591,707,cs),
(591,693,o),
(599,689,o),
(614,689,cs,{
name = hr00;
})
);
}
);
};
layerId = master01;
shapes = (
{
ref = d;
},
{
pos = (256,0);
ref = caroncomb.alt;
}
);
width = 530;
}
);
unicode = 271;
},
{
glyphname = dcroat;
kernLeft = c;
lastChange = "2023-02-17 07:34:05 +0000";
layers = (
{
background = {
shapes = (
{
closed = 1;
nodes = (
(530,864,l),
(530,879,o),
(519,887,o),
(502,887,cs),
(479,887,o),
(457,882,o),
(456,864,c),
(411,507,l),
(121,507,o),
(42,302,o),
(42,167,cs),
(42,41,o),
(118,-14,o),
(198,-14,cs),
(269,-14,o),
(345,28,o),
(377,102,c),
(381,76,o),
(383,-14,o),
(409,-14,cs),
(427,-14,o),
(464,-4,o),
(464,14,cs),
(464,35,o),
(446,64,o),
(446,129,cs),
(446,150,o),
(447,175,o),
(450,207,c,{
name = hr00;
})
);
},
{
closed = 1;
nodes = (
(387,304,ls),
(373,190,o),
(338,52,o),
(222,52,cs),
(154,52,o),
(124,111,o),
(124,176,cs),
(124,321,o),
(231,445,o),
(380,445,cs),
(383,445,o),
(399,444,o),
(404,442,c)
);
},
{
closed = 1;
nodes = (
(268,753,o),
(262,733,o),
(262,717,cs),
(262,702,o),
(268,689,o),
(279,689,cs),
(591,689,ls),
(606,689,o),
(615,706,o),
(615,722,cs),
(615,738,o),
(608,753,o),
(594,753,cs),
(285,753,ls,{
name = hr00;
})
);
}
);
};
layerId = master01;
shapes = (
{
closed = 1;
nodes = (
(591,689,ls),
(606,689,o),
(615,706,o),
(615,722,cs),
(615,738,o),
(608,753,o),
(594,753,cs),
(285,753,ls,{
name = hr00;
}),
(268,753,o),
(262,733,o),
(262,717,cs),
(262,702,o),
(268,689,o),
(279,689,cs)
);
},
{
alignment = -1;
ref = d;
}
);
width = 530;
}
);
unicode = 273;
},
{
glyphname = e;
kernLeft = c;
lastChange = "2023-02-17 07:34:05 +0000";
layers = (
{
anchors = (
{
name = bottom;
pos = (231,0);
},
{
name = ogonek;
pos = (465,10);
},
{
name = top;
pos = (321,493);
}
);
background = {
shapes = (
{
closed = 1;
nodes = (
(158,386,o),
(260,447,o),
(322,447,cs),
(354,447,o),
(378,430,o),
(378,395,cs),
(378,318,o),
(256,265,o),
(138,265,c,{
name = hr00;
})
);
},
{
closed = 1;
nodes = (
(53,67,o),
(126,-14,o),
(266,-14,cs),
(336,-14,o),
(420,35,o),
(420,56,cs),
(420,74,o),
(409,101,o),
(393,101,cs),
(388,101,o),
(339,48,o),
(270,48,cs),
(180,48,o),
(134,108,o),
(134,206,c),
(309,206,o),
(451,286,o),
(451,405,cs),
(451,472,o),
(396,507,o),
(326,507,cs),
(214,507,o),
(54,413,o),
(53,207,cs)
);
}
);
};
layerId = master01;
shapes = (
{
closed = 1;
nodes = (
(336,-14,o),
(420,35,o),
(420,56,cs),
(420,74,o),
(409,101,o),
(393,101,cs),
(388,101,o),
(339,48,o),
(270,48,cs),
(180,48,o),
(134,108,o),
(134,206,c),
(309,206,o),
(451,286,o),
(451,405,cs),
(451,472,o),
(396,507,o),
(326,507,cs),
(214,507,o),
(54,413,o),
(53,207,cs),
(53,67,o),
(126,-14,o),
(266,-14,cs)
);
},
{
closed = 1;
nodes = (
(158,386,o),
(260,447,o),
(322,447,cs),
(354,447,o),
(378,430,o),
(378,395,cs),
(378,318,o),
(256,265,o),
(138,265,c,{
name = hr00;
})
);
}
);
width = 461;
}
);
unicode = 101;
},
{
glyphname = eacute;
kernLeft = c;
lastChange = "2023-02-17 07:34:05 +0000";
layers = (
{
background = {
shapes = (
{
closed = 1;
nodes = (
(167,386,o),
(269,447,o),
(331,447,cs),
(363,447,o),
(387,430,o),
(387,395,cs),
(387,318,o),
(265,265,o),
(147,265,c,{
name = hr00;
})
);
},
{
closed = 1;
nodes = (
(62,67,o),
(135,-14,o),
(275,-14,cs),
(345,-14,o),
(429,35,o),
(429,56,cs),
(429,74,o),
(418,101,o),
(402,101,cs),
(397,101,o),
(348,48,o),
(279,48,cs),
(189,48,o),
(143,108,o),
(143,206,c),
(318,206,o),
(460,286,o),
(460,405,cs),
(460,472,o),
(405,507,o),
(335,507,cs),
(223,507,o),
(63,413,o),
(62,207,cs)
);
},
{
closed = 1;
nodes = (
(205,634,o),
(203,629,o),
(203,624,cs),
(203,610,o),
(214,598,o),
(228,598,cs),
(234,598,o),
(238,599,o),
(242,603,cs),
(392,740,ls),
(402,749,o),
(405,755,o),
(405,763,cs),
(405,786,o),
(386,806,o),
(360,806,cs),
(355,806,o),
(349,805,o),
(344,799,cs),
(207,637,ls,{
name = hr00;
})
);
}
);
};
layerId = master01;
shapes = (
{
ref = e;
},
{
pos = (170,0);
ref = acutecomb;
}
);
width = 461;
}
);
unicode = 233;
},
{
glyphname = ebreve;
kernLeft = c;
lastChange = "2023-02-17 07:34:05 +0000";
layers = (
{
background = {
shapes = (
{
closed = 1;
nodes = (
(158,386,o),
(260,447,o),
(322,447,cs),
(354,447,o),
(378,430,o),
(378,395,cs),
(378,318,o),
(256,265,o),
(138,265,c,{
name = hr00;
})
);
},
{
closed = 1;
nodes = (
(53,67,o),
(126,-14,o),
(266,-14,cs),
(336,-14,o),
(420,35,o),
(420,56,cs),
(420,74,o),
(409,101,o),
(393,101,cs),
(388,101,o),
(339,48,o),
(270,48,cs),
(180,48,o),
(134,108,o),
(134,206,c),
(309,206,o),
(451,286,o),
(451,405,cs),
(451,472,o),
(396,507,o),
(326,507,cs),
(214,507,o),
(54,413,o),
(53,207,cs)
);
},
{
closed = 1;
nodes = (
(198,776,o),
(193,756,o),
(193,739,cs),
(193,687,o),
(232,598,o),
(297,598,cs),
(404,598,o),
(468,730,o),
(468,755,cs),
(468,767,o),
(460,776,o),
(448,776,cs),
(412,776,o),
(376,669,o),
(312,669,cs),
(246,669,o),
(258,776,o),
(215,776,cs,{
name = hr00;
})
);
}
);
};
layerId = master01;
shapes = (
{
ref = e;
},
{
pos = (133,0);
ref = brevecomb;
}
);
width = 461;
}
);
unicode = 277;
},
{
glyphname = ecaron;
kernLeft = c;
lastChange = "2023-02-17 07:34:05 +0000";
layers = (
{
background = {
shapes = (
{
closed = 1;
nodes = (
(158,386,o),
(260,447,o),
(322,447,cs),
(354,447,o),
(378,430,o),
(378,395,cs),
(378,318,o),
(256,265,o),
(138,265,c,{
name = hr00;
})
);
},
{
closed = 1;
nodes = (
(53,67,o),
(126,-14,o),
(266,-14,cs),
(336,-14,o),
(420,35,o),
(420,56,cs),
(420,74,o),
(409,101,o),
(393,101,cs),
(388,101,o),
(339,48,o),
(270,48,cs),
(180,48,o),
(134,108,o),
(134,206,c),
(309,206,o),
(451,286,o),
(451,405,cs),
(451,472,o),
(396,507,o),
(326,507,cs),
(214,507,o),
(54,413,o),
(53,207,cs)
);
},
{
closed = 1;
nodes = (
(220,803,o),
(216,806,o),
(208,806,cs),
(195,806,o),
(178,792,o),
(178,776,cs),
(178,773,o),
(179,769,o),
(184,761,cs),
(269,621,ls),
(278,606,o),
(288,598,o),
(310,598,cs),
(339,598,o),
(353,620,o),
(361,629,cs),
(478,767,ls),
(480,770,o),
(482,775,o),
(482,780,cs),
(482,794,o),
(471,806,o),
(457,806,cs),
(451,806,o),
(447,805,o),
(443,801,cs),
(313,682,l),
(228,793,ls,{
name = hr00;
})
);
}
);
};
layerId = master01;
shapes = (
{
ref = e;
},
{
pos = (119,0);
ref = caroncomb;
}
);
width = 461;
}
);
unicode = 283;
},
{
glyphname = ecircumflex;
kernLeft = c;
lastChange = "2023-02-17 07:34:05 +0000";
layers = (
{
background = {
shapes = (
{
closed = 1;
nodes = (
(167,386,o),
(269,447,o),
(331,447,cs),
(363,447,o),
(387,430,o),
(387,395,cs),
(387,318,o),
(265,265,o),
(147,265,c,{
name = hr00;
})
);
},
{
closed = 1;
nodes = (
(62,67,o),
(135,-14,o),
(275,-14,cs),
(345,-14,o),
(429,35,o),
(429,56,cs),
(429,74,o),
(418,101,o),
(402,101,cs),
(397,101,o),
(348,48,o),
(279,48,cs),
(189,48,o),
(143,108,o),
(143,206,c),
(318,206,o),
(460,286,o),
(460,405,cs),
(460,472,o),
(405,507,o),
(335,507,cs),
(223,507,o),
(63,413,o),
(62,207,cs)
);
},
{
closed = 1;
nodes = (
(419,601,o),
(423,598,o),
(431,598,cs),
(444,598,o),
(461,612,o),
(461,628,cs),
(461,631,o),
(460,635,o),
(455,643,cs),
(370,783,ls),
(363,795,o),
(352,806,o),
(329,806,cs),
(300,806,o),
(286,784,o),
(278,775,cs),
(161,637,ls),
(159,634,o),
(157,629,o),
(157,624,cs),
(157,610,o),
(168,598,o),
(182,598,cs),
(188,598,o),
(192,599,o),
(196,603,cs),
(326,722,l),
(411,611,ls,{
name = hr00;
})
);
}
);
};
layerId = master01;
shapes = (
{
ref = e;
},
{
pos = (119,0);
ref = circumflexcomb;
}
);
width = 461;
}
);
unicode = 234;
},
{
glyphname = edieresis;
kernLeft = c;
lastChange = "2023-02-17 07:34:05 +0000";
layers = (
{
background = {
shapes = (
{
closed = 1;
nodes = (
(167,386,o),
(269,447,o),
(331,447,cs),
(363,447,o),
(387,430,o),
(387,395,cs),
(387,318,o),
(265,265,o),
(147,265,c,{
name = hr00;
})
);
},
{
closed = 1;
nodes = (
(62,67,o),
(135,-14,o),
(275,-14,cs),
(345,-14,o),
(429,35,o),
(429,56,cs),
(429,74,o),
(418,101,o),
(402,101,cs),
(397,101,o),
(348,48,o),
(279,48,cs),
(189,48,o),
(143,108,o),
(143,206,c),
(318,206,o),
(460,286,o),
(460,405,cs),
(460,472,o),
(405,507,o),
(335,507,cs),
(223,507,o),
(63,413,o),
(62,207,cs)
);
},
{
closed = 1;
nodes = (
(274,713,o),
(264,729,o),
(229,729,cs),
(183,729,o),
(172,699,o),
(172,668,cs),
(172,647,o),
(182,630,o),
(217,630,cs),
(263,630,o),
(274,661,o),
(274,692,cs,{
name = hr00;
})
);
},
{
closed = 1;
nodes = (
(466,713,o),
(456,729,o),
(421,729,cs),
(375,729,o),
(364,699,o),
(364,668,cs),
(364,647,o),
(374,630,o),
(409,630,cs),
(455,630,o),
(466,661,o),
(466,692,cs)
);
}
);
};
layerId = master01;
shapes = (
{
ref = e;
},
{
pos = (124,0);
ref = dieresiscomb;
}
);
width = 461;
}
);
unicode = 235;
},
{
glyphname = edotaccent;
kernLeft = c;
lastChange = "2023-02-17 07:34:05 +0000";
layers = (
{
background = {
shapes = (
{
closed = 1;
nodes = (
(158,386,o),
(260,447,o),
(322,447,cs),
(354,447,o),
(378,430,o),
(378,395,cs),
(378,318,o),
(256,265,o),
(138,265,c,{
name = hr00;
})
);
},
{
closed = 1;
nodes = (
(53,67,o),
(126,-14,o),
(266,-14,cs),
(336,-14,o),
(420,35,o),
(420,56,cs),
(420,74,o),
(409,101,o),
(393,101,cs),
(388,101,o),
(339,48,o),
(270,48,cs),
(180,48,o),
(134,108,o),
(134,206,c),
(309,206,o),
(451,286,o),
(451,405,cs),
(451,472,o),
(396,507,o),
(326,507,cs),
(214,507,o),
(54,413,o),
(53,207,cs)
);
},
{
closed = 1;
nodes = (
(381,713,o),
(371,729,o),
(336,729,cs),
(290,729,o),
(279,699,o),
(279,668,cs),
(279,647,o),
(289,630,o),
(324,630,cs),
(370,630,o),
(381,661,o),
(381,692,cs,{
name = hr00;
})
);
}
);
};
layerId = master01;
shapes = (
{
ref = e;
},
{
pos = (220,0);
ref = dotaccentcomb;
}
);
width = 461;
}
);
unicode = 279;
},
{
glyphname = egrave;
kernLeft = c;
lastChange = "2023-02-17 07:54:36 +0000";
layers = (
{
background = {
shapes = (
{
closed = 1;
nodes = (
(167,386,o),
(269,447,o),
(331,447,cs),
(363,447,o),
(387,430,o),
(387,395,cs),
(387,318,o),
(265,265,o),
(147,265,c,{
name = hr00;
})
);
},
{
closed = 1;
nodes = (
(62,67,o),
(135,-14,o),
(275,-14,cs),
(345,-14,o),
(429,35,o),
(429,56,cs),
(429,74,o),
(418,101,o),
(402,101,cs),
(397,101,o),
(348,48,o),
(279,48,cs),
(189,48,o),
(143,108,o),
(143,206,c),
(318,206,o),
(460,286,o),
(460,405,cs),
(460,472,o),
(405,507,o),
(335,507,cs),
(223,507,o),
(63,413,o),
(62,207,cs)
);
},
{
closed = 1;
nodes = (
(285,805,o),
(279,806,o),
(274,806,cs),
(248,806,o),
(229,786,o),
(229,763,cs),
(229,755,o),
(232,749,o),
(242,740,cs),
(392,603,ls),
(396,599,o),
(400,598,o),
(406,598,cs),
(420,598,o),
(431,610,o),
(431,624,cs),
(431,629,o),
(429,634,o),
(427,637,cs),
(290,799,ls,{
name = hr00;
})
);
}
);
};
layerId = master01;
shapes = (
{
ref = e;
},
{
pos = (170,300);
ref = gravecomb;
}
);
width = 461;
}
);
unicode = 232;
},
{
glyphname = emacron;
kernLeft = c;
lastChange = "2023-02-17 07:34:05 +0000";
layers = (
{
background = {
shapes = (
{
closed = 1;
nodes = (
(158,386,o),
(260,447,o),
(322,447,cs),
(354,447,o),
(378,430,o),
(378,395,cs),
(378,318,o),
(256,265,o),
(138,265,c,{
name = hr00;
})
);
},
{
closed = 1;
nodes = (
(53,67,o),
(126,-14,o),
(266,-14,cs),
(336,-14,o),
(420,35,o),
(420,56,cs),
(420,74,o),
(409,101,o),
(393,101,cs),
(388,101,o),
(339,48,o),
(270,48,cs),
(180,48,o),
(134,108,o),
(134,206,c),
(309,206,o),
(451,286,o),
(451,405,cs),
(451,472,o),
(396,507,o),
(326,507,cs),
(214,507,o),
(54,413,o),
(53,207,cs)
);
},
{
closed = 1;
nodes = (
(198,712,o),
(191,693,o),
(191,678,cs),
(191,663,o),
(198,651,o),
(214,651,cs),
(432,651,ls),
(462,651,o),
(469,670,o),
(469,685,cs),
(469,700,o),
(462,712,o),
(446,712,cs),
(228,712,ls,{
name = hr00;
})
);
}
);
};
layerId = master01;
shapes = (
{
ref = e;
},
{
pos = (117,0);
ref = macroncomb;
}
);
width = 461;
}
);
unicode = 275;
},
{
glyphname = eogonek;
kernLeft = c;
lastChange = "2023-02-17 07:34:05 +0000";
layers = (
{
background = {
shapes = (
{
closed = 1;
nodes = (
(158,386,o),
(260,447,o),
(322,447,cs),
(354,447,o),
(378,430,o),
(378,395,cs),
(378,318,o),
(256,265,o),
(138,265,c,{
name = hr00;
})
);
},
{
closed = 1;
nodes = (
(53,67,o),
(126,-14,o),
(266,-14,cs),
(336,-14,o),
(420,35,o),
(420,56,cs),
(420,74,o),
(409,101,o),
(393,101,cs),
(388,101,o),
(339,48,o),
(270,48,cs),
(180,48,o),
(134,108,o),
(134,206,c),
(309,206,o),
(451,286,o),
(451,405,cs),
(451,472,o),
(396,507,o),
(326,507,cs),
(214,507,o),
(54,413,o),
(53,207,cs)
);
},
{
closed = 1;
nodes = (
(219,-11,o),
(187,-63,o),
(187,-113,cs),
(187,-172,o),
(235,-229,o),
(321,-229,cs),
(379,-229,o),
(464,-189,o),
(464,-156,cs),
(464,-139,o),
(456,-131,o),
(442,-131,cs),
(421,-131,o),
(386,-172,o),
(325,-172,cs,{
name = hr01;
}),
(280,-172,o),
(255,-142,o),
(255,-107,cs),
(255,-62,o),
(289,-9,o),
(361,11,c),
(293,11,l)
);
}
);
};
layerId = master01;
shapes = (
{
ref = e;
},
{
pos = (53,-1);
ref = ogonekcomb;
}
);
width = 461;
}
);
unicode = 281;
},
{
glyphname = f;
kernLeft = f;
kernRight = f;
lastChange = "2023-02-17 07:34:05 +0000";
layers = (
{
anchors = (
{
name = bottom;
pos = (165,0);
},
{
name = top;
pos = (165,1094);
}
);
background = {
shapes = (
{
closed = 1;
nodes = (
(339,426,o),
(353,447,o),
(353,463,cs),
(353,482,o),
(344,493,o),
(330,493,cs),
(232,493,l),
(245,600,ls),
(256,696,o),
(269,813,o),
(369,813,cs),
(427,813,o),
(453,794,o),
(460,794,cs),
(478,794,o),
(495,829,o),
(495,847,cs),
(495,864,o),
(428,882,o),
(368,882,cs),
(221,882,o),
(188,745,o),
(173,607,cs),
(160,493,l),
(76,493,ls),
(61,493,o),
(45,473,o),
(45,456,cs),
(45,442,o),
(54,426,o),
(72,426,cs),
(152,426,l),
(115,104,ls),
(80,-202,o),
(61,-276,o),
(-37,-276,cs),
(-110,-276,o),
(-142,-234,o),
(-148,-234,cs),
(-166,-234,o),
(-188,-265,o),
(-188,-281,cs),
(-188,-302,o),
(-117,-344,o),
(-37,-344,cs),
(101,-344,o),
(147,-228,o),
(163,-91,cs),
(223,426,l),
(323,426,ls,{
name = hr00;
})
);
}
);
};
layerId = master01;
shapes = (
{
closed = 1;
nodes = (
(101,-344,o),
(147,-228,o),
(163,-91,cs),
(223,426,l),
(323,426,ls,{
name = hr00;
}),
(339,426,o),
(353,447,o),
(353,463,cs),
(353,482,o),
(344,493,o),
(330,493,cs),
(232,493,l),
(245,600,ls),
(256,696,o),
(269,813,o),
(369,813,cs),
(427,813,o),
(453,794,o),
(460,794,cs),
(478,794,o),
(495,829,o),
(495,847,cs),
(495,864,o),
(428,882,o),
(368,882,cs),
(221,882,o),
(188,745,o),
(173,607,cs),
(160,493,l),
(76,493,ls),
(61,493,o),
(45,473,o),
(45,456,cs),
(45,442,o),
(54,426,o),
(72,426,cs),
(152,426,l),
(115,104,ls),
(80,-202,o),
(61,-276,o),
(-37,-276,cs),
(-110,-276,o),
(-142,-234,o),
(-148,-234,cs),
(-166,-234,o),
(-188,-265,o),
(-188,-281,cs),
(-188,-302,o),
(-117,-344,o),
(-37,-344,cs)
);
}
);
width = 330;
}
);
unicode = 102;
},
{
glyphname = g;
kernLeft = c;
lastChange = "2023-02-17 07:34:05 +0000";
layers = (
{
anchors = (
{
name = bottom;
pos = (262,-351);
},
{
name = top;
pos = (333,493);
}
);
background = {
shapes = (
{
closed = 1;
nodes = (
(387,304,l),
(371,190,o),
(338,52,o),
(222,52,cs),
(154,52,o),
(124,111,o),
(124,176,cs),
(124,321,o),
(231,445,o),
(380,445,cs),
(383,445,o),
(399,444,o),
(404,442,c,{
name = hr00;
})
);
},
{
closed = 1;
nodes = (
(336,-213,o),
(300,-279,o),
(178,-279,cs),
(94,-279,o),
(38,-227,o),
(33,-227,cs),
(14,-227,o),
(3,-265,o),
(3,-283,cs),
(3,-302,o),
(87,-343,o),
(180,-343,cs),
(342,-343,o),
(392,-234,o),
(411,-91,cs),
(481,463,l),
(481,504,o),
(432,507,o),
(411,507,cs),
(121,507,o),
(42,302,o),
(42,167,cs),
(42,41,o),
(118,-14,o),
(198,-14,cs),
(269,-14,o),
(314,8,o),
(359,69,c)
);
}
);
};
layerId = master01;
shapes = (
{
closed = 1;
nodes = (
(342,-343,o),
(393,-234,o),
(411,-91,cs),
(481,463,l),
(481,504,o),
(432,507,o),
(411,507,cs),
(121,507,o),
(42,302,o),
(42,167,cs),
(42,41,o),
(118,-14,o),
(198,-14,cs),
(269,-14,o),
(314,8,o),
(359,69,c),
(336,-213,o),
(300,-279,o),
(178,-279,cs),
(94,-279,o),
(38,-227,o),
(33,-227,cs),
(14,-227,o),
(3,-265,o),
(3,-283,cs),
(3,-302,o),
(87,-343,o),
(180,-343,cs)
);
},
{
closed = 1;
nodes = (
(154,52,o),
(124,111,o),
(124,176,cs),
(124,321,o),
(231,445,o),
(380,445,cs),
(383,445,o),
(399,444,o),
(404,442,c,{
name = hr00;
}),
(387,304,l),
(371,190,o),
(338,52,o),
(222,52,cs)
);
}
);
width = 524;
}
);
unicode = 103;
},
{
glyphname = gbreve;
kernLeft = c;
lastChange = "2023-02-17 07:34:05 +0000";
layers = (
{
background = {
shapes = (
{
closed = 1;
nodes = (
(387,304,l),
(371,190,o),
(338,52,o),
(222,52,cs),
(154,52,o),
(124,111,o),
(124,176,cs),
(124,321,o),
(231,445,o),
(380,445,cs),
(383,445,o),
(399,444,o),
(404,442,c,{
name = hr00;
})
);
},
{
closed = 1;
nodes = (
(336,-213,o),
(300,-279,o),
(178,-279,cs),
(94,-279,o),
(38,-227,o),
(33,-227,cs),
(14,-227,o),
(3,-265,o),
(3,-283,cs),
(3,-302,o),
(87,-343,o),
(180,-343,cs),
(342,-343,o),
(392,-234,o),
(411,-91,cs),
(481,463,l),
(481,504,o),
(432,507,o),
(411,507,cs),
(121,507,o),
(42,302,o),
(42,167,cs),
(42,41,o),
(118,-14,o),
(198,-14,cs),
(269,-14,o),
(314,8,o),
(359,69,c)
);
},
{
closed = 1;
nodes = (
(198,776,o),
(193,756,o),
(193,739,cs),
(193,687,o),
(232,598,o),
(297,598,cs),
(404,598,o),
(468,730,o),
(468,755,cs),
(468,767,o),
(460,776,o),
(448,776,cs),
(412,776,o),
(376,669,o),
(312,669,cs),
(246,669,o),
(258,776,o),
(215,776,cs,{
name = hr00;
})
);
}
);
};
layerId = master01;
shapes = (
{
ref = g;
},
{
pos = (145,0);
ref = brevecomb;
}
);
width = 524;
}
);
unicode = 287;
},
